SplineFontDB: 3.0
FontName: Autopia-Bold-Italic
FullName: Autopia Bold Italic
FamilyName: Autopia Bold Italic
Weight: Bold
Copyright: SIL Open Font License - 2014 - Antoine Gelgon (Luuse)
Version: V.1.0
ItalicAngle: -104
UnderlinePosition: -256
UnderlineWidth: 102
Ascent: 1638
Descent: 410
InvalidEm: 0
sfntRevision: 0x00010000
LayerCount: 2
Layer: 0 1 "Arri+AOgA-re" 1
Layer: 1 1 "Avant" 0
XUID: [1021 327 -1103567284 9548162]
StyleMap: 0x0021
FSType: 8
OS2Version: 3
OS2_WeightWidthSlopeOnly: 0
OS2_UseTypoMetrics: 0
CreationTime: 1391727600
ModificationTime: 1548637152
PfmFamily: 17
TTFWeight: 700
TTFWidth: 5
LineGap: 0
VLineGap: 0
Panose: 2 2 5 0 0 0 0 0 0 0
OS2TypoAscent: 1544
OS2TypoAOffset: 0
OS2TypoDescent: -497
OS2TypoDOffset: 0
OS2TypoLinegap: 332
OS2WinAscent: 1876
OS2WinAOffset: 0
OS2WinDescent: 506
OS2WinDOffset: 0
HheadAscent: 1876
HheadAOffset: 0
HheadDescent: -506
HheadDOffset: 0
OS2SubXSize: 768
OS2SubYSize: 1024
OS2SubXOff: 0
OS2SubYOff: 512
OS2SupXSize: 768
OS2SupYSize: 1024
OS2SupXOff: 0
OS2SupYOff: 1024
OS2StrikeYSize: 102
OS2StrikeYPos: 657
OS2CapHeight: 1498
OS2XHeight: 1010
OS2Vendor: '    '
OS2CodePages: 20000111.40000000
OS2UnicodeRanges: 8000002f.1000004a.00000000.00000000
Lookup: 258 0 0 "'kern' Horizontal Kerning lookup 0" { "'kern' Horizontal Kerning lookup 0 subtable"  } ['kern' ('DFLT' <'dflt' > ) ]
MarkAttachClasses: 1
DEI: 91125
TtTable: prep
PUSHW_1
 0
CALL
SVTCA[y-axis]
PUSHW_3
 1
 3
 2
CALL
SVTCA[x-axis]
PUSHW_3
 4
 2
 2
CALL
SVTCA[x-axis]
PUSHW_8
 4
 40
 33
 26
 17
 10
 0
 8
CALL
PUSHW_8
 5
 35
 29
 22
 17
 10
 0
 8
CALL
SVTCA[y-axis]
PUSHW_8
 1
 86
 70
 55
 39
 24
 0
 8
CALL
PUSHW_8
 2
 37
 29
 22
 17
 10
 0
 8
CALL
PUSHW_8
 3
 31
 29
 22
 17
 10
 0
 8
CALL
SVTCA[y-axis]
PUSHW_3
 6
 3
 7
CALL
PUSHW_1
 0
DUP
RCVT
RDTG
ROUND[Black]
RTG
WCVTP
EndTTInstrs
TtTable: fpgm
PUSHW_1
 0
FDEF
MPPEM
PUSHW_1
 8
LT
IF
PUSHB_2
 1
 1
INSTCTRL
EIF
PUSHW_1
 511
SCANCTRL
PUSHW_1
 68
SCVTCI
PUSHW_2
 8
 3
SDS
SDB
ENDF
PUSHW_1
 1
FDEF
DUP
DUP
RCVT

StartChar: greater
Encoding: 33 33 4
Width: 584
Flags: W
LayerCount: 2
Fore
SplineSet
745 1373 m 1,0,1
 700.453479281 1312.41673182 700.453479281 1312.41673182 685.22673964 1250.70836591 c 128,-1,2
 670 1189 670 1189 663 1149 c 128,-1,3
 656 1109 656 1109 638 1023 c 128,-1,4
 620 937 620 937 591 807 c 128,-1,5
 562 677 562 677 537 544 c 1,6,-1
 257 465 l 1,7,8
 282 598 282 598 311 728 c 128,-1,9
 340 858 340 858 358 946.5 c 128,-1,10
 376 1035 376 1035 384 1077 c 128,-1,11
 392 1119 392 1119 403 1159 c 0,12,13
 427.0997151 1246.63532764 427.0997151 1246.63532764 476 1313 c 1,14,-1
 745 1373 l 1,0,1
188 25 m 0,15,16
 143 70 143 70 143 151.5 c 128,-1,17
 143 233 143 233 200.5 286.5 c 128,-1,18
 258 340 258 340 343 339 c 128,-1,19
 428 338 428 338 470 293 c 128,-1,20
 512 248 512 248 511 167 c 128,-1,21
 510 86 510 86 456.5 31.5 c 128,-1,22
 403 -23 403 -23 317 -23 c 128,-1,23
 231 -23 231 -23 188 25 c 0,15,16
EndSplineSet
EndChar

StartChar: question
Encoding: 34 34 5
Width: 932
Flags: W
LayerCount: 2
Fore
SplineSet
672 1385 m 1,0,1
 677.746268657 1333.28358209 677.746268657 1333.28358209 659.873134328 1274.64179104 c 128,-1,2
 642 1216 642 1216 633.5 1188 c 128,-1,3
 625 1160 625 1160 604.5 1114 c 0,4,5
 571.726451613 1040.45935484 571.726451613 1040.45935484 448 909 c 1,6,-1
 196 870 l 1,7,8
 289.243902439 963.243902439 289.243902439 963.243902439 318.12195122 1024.12195122 c 128,-1,9
 347 1085 347 1085 361.5 1128.5 c 0,10,11
 394.642857143 1227.92857143 394.642857143 1227.92857143 389 1290 c 1,12,-1
 672 1385 l 1,0,1
1061 1385 m 1,13,14
 1066.74626866 1333.28358209 1066.74626866 1333.28358209 1048.87313433 1274.64179104 c 128,-1,15
 1031 1216 1031 1216 1022.5 1188 c 128,-1,16
 1014 1160 1014 1160 993.5 1114 c 0,17,18
 960.726451613 1040.45935484 960.726451613 1040.45935484 837 909 c 1,19,-1
 585 870 l 1,20,21
 678.243902439 963.243902439 678.243902439 963.243902439 707.12195122 1024.12195122 c 128,-1,22
 736 1085 736 1085 750.5 1128.5 c 0,23,24
 783.642857143 1227.92857143 783.642857143 1227.92857143 778 1290 c 1,25,-1
 1061 1385 l 1,13,14
EndSplineSet
EndChar

StartChar: at
Encoding: 35 35 6
Width: 1147
Flags: W
LayerCount: 2
Fore
SplineSet
1078 811 m 1,0,1
 1033 643.272727273 1033 643.272727273 1033 637.136363636 c 128,-1,2
 1033 631 1033 631 1032 628 c 128,-1,3
 1031 625 1031 625 1029.5 614.5 c 128,-1,4
 1028 604 1028 604 1027 591.5 c 128,-1,5
 1026 579 1026 579 1023 567 c 1,6,-1
 1159 567 l 1,7,-1
 973 435 l 1,8,-1
 958 435 l 1,9,10
 950.412790698 384.418604651 950.412790698 384.418604651 907.706395349 265.709302326 c 128,-1,11
 865 147 865 147 836 63 c 1,12,-1
 556 -16 l 1,13,14
 585 68 585 68 615 150 c 128,-1,15
 645 232 645 232 661 289 c 128,-1,16
 677 346 677 346 681 376 c 128,-1,17
 685 406 685 406 689 435 c 1,18,-1
 575 435 l 1,19,20
 567.965957447 381.072340426 567.965957447 381.072340426 522.982978723 263.536170213 c 128,-1,21
 478 146 478 146 449 63 c 1,22,-1
 169 -16 l 1,23,24
 198 67 198 67 229 148.5 c 128,-1,25
 260 230 260 230 277.5 286.5 c 128,-1,26
 295 343 295 343 298.5 374 c 128,-1,27
 302 405 302 405 307 435 c 1,28,-1
 193 435 l 1,29,-1
 378 566 l 1,30,31
 389 628 389 628 402.5 688 c 128,-1,32
 416 748 416 748 429 809 c 1,33,34
 403 809 403 809 376 810 c 128,-1,35
 349 811 349 811 322 811 c 1,36,-1
 502 939 l 1,37,-1
 503 941 l 1,38,39
 518.589545015 1062.88189739 518.589545015 1062.88189739 608 1268 c 1,40,-1
 888 1347 l 1,41,42
 816.278268551 1180.4204947 816.278268551 1180.4204947 788 1054 c 0,43,44
 788 1049.8 788 1049.8 784 1031.4 c 2,45,-1
 777.5 1001.5 l 2,46,47
 769.857142857 966.342857143 769.857142857 966.342857143 772.928571429 954.671428571 c 128,-1,48
 776 943 776 943 777 937 c 1,49,-1
 814 943 l 1,50,51
 859 948 859 948 886 948 c 1,52,53
 893.553191489 993.319148936 893.553191489 993.319148936 908.776595745 1031.65957447 c 128,-1,54
 924 1070 924 1070 938.5 1110.5 c 128,-1,55
 953 1151 953 1151 967.5 1197 c 128,-1,56
 982 1243 982 1243 1006 1287 c 1,57,-1
 1275 1347 l 1,58,59
 1256.25974026 1313.84415584 1256.25974026 1313.84415584 1242.12987013 1267.92207792 c 0,60,61
 1213.17647059 1173.82352941 1213.17647059 1173.82352941 1204.58823529 1152.91176471 c 0,62,63
 1194.23030303 1127.69090909 1194.23030303 1127.69090909 1181 1088 c 1,64,-1
 1175 1068 l 1,65,-1
 1171 1052 l 1,66,67
 1169.21428571 1034.14285714 1169.21428571 1034.14285714 1168.60714286 1019.57142857 c 0,68,69
 1166.61744966 971.818791946 1166.61744966 971.818791946 1156 943 c 1,70,-1
 1288 943 l 1,71,-1
 1102 811 l 1,72,-1
 1078 811 l 1,0,1
691 811 m 1,73,74
 652.637010676 649.327402135 652.637010676 649.327402135 647 569 c 0,75,76
 647 567 647 567 651 567 c 2,77,-1
 754 567 l 1,78,79
 761.257425743 610.544554455 761.257425743 610.544554455 784.128712871 681.772277228 c 128,-1,80
 807 753 807 753 812 811 c 1,81,-1
 691 811 l 1,73,74
EndSplineSet
EndChar

StartChar: A
Encoding: 36 36 7
Width: 1147
Flags: W
LayerCount: 2
Fore
SplineSet
1024 1409 m 1,0,-1
 1032 1408 l 1,1,2
 1162.09090909 1408 1162.09090909 1408 1253 1283 c 0,3,4
 1264 1268 1264 1268 1276 1254 c 128,-1,5
 1288 1240 1288 1240 1296 1223 c 1,6,-1
 1018 1114 l 1,7,8
 998 1154 998 1154 963 1192 c 1,9,10
 961 1182 961 1182 958.5 1173 c 128,-1,11
 956 1164 956 1164 951.5 1141.5 c 0,12,13
 934.636363636 1057.18181818 934.636363636 1057.18181818 924 1017 c 2,14,-1
 915 983 l 1,15,-1
 915 980 l 1,16,17
 914 974 914 974 913.5 967.5 c 128,-1,18
 913 961 913 961 911 951 c 128,-1,19
 909 941 909 941 907 926.5 c 128,-1,20
 905 912 905 912 900 897.5 c 128,-1,21
 895 883 895 883 884 870.5 c 128,-1,22
 873 858 873 858 860.5 843 c 128,-1,23
 848 828 848 828 832 815 c 1,24,25
 840 798 840 798 854 790 c 128,-1,26
 868 782 868 782 879 772.5 c 128,-1,27
 890 763 890 763 893.5 757 c 128,-1,28
 897 751 897 751 902 743 c 1,29,30
 920 733 920 733 945.5 730.5 c 0,31,32
 993.748554913 725.769749518 993.748554913 725.769749518 1041.87427746 684.884874759 c 128,-1,33
 1090 644 1090 644 1113.5 613 c 128,-1,34
 1137 582 1137 582 1147.5 548 c 128,-1,35
 1158 514 1158 514 1158 474.5 c 128,-1,36
 1158 435 1158 435 1151.5 393 c 0,37,38
 1102.01731079 73.2657004831 1102.01731079 73.2657004831 694 -7 c 1,39,40
 688.545454545 -54.7272727273 688.545454545 -54.7272727273 664 -142 c 1,41,-1
 384 -221 l 1,42,43
 409.443786982 -138.307692308 409.443786982 -138.307692308 412.221893491 -90.1538461538 c 128,-1,44
 415 -42 415 -42 423 -19 c 1,45,-1
 421 -17 l 1,46,-1
 418 -17 l 1,47,48
 412 -16 412 -16 410 -16 c 2,49,-1
 400 -16 l 1,50,51
 268.783283582 -13.1474626866 268.783283582 -13.1474626866 176 114 c 0,52,53
 149 151 149 151 131 190 c 1,54,-1
 409 299 l 1,55,56
 434.692307692 239.051282051 434.692307692 239.051282051 474 196 c 1,57,58
 486 253 486 253 499.5 309.5 c 128,-1,59
 513 366 513 366 523.5 415 c 128,-1,60
 534 464 534 464 538.5 490 c 128,-1,61
 543 516 543 516 546 532.5 c 128,-1,62
 549 549 549 549 553 559 c 128,-1,63
 557 569 557 569 564 579 c 128,-1,64
 571 589 571 589 584 602.5 c 128,-1,65
 597 616 597 616 619 639 c 1,66,67
 616 644 616 644 613 649.5 c 128,-1,68
 610 655 610 655 600 664.5 c 128,-1,69
 590 674 590 674 575 682.5 c 128,-1,70
 560 691 560 691 552 712 c 1,71,-1
 554 713 l 1,72,73
 533 715 533 715 515 722 c 1,74,75
 517 719 517 719 515 719.5 c 128,-1,76
 513 720 513 720 509 721.5 c 128,-1,77
 505 723 505 723 500.5 725.5 c 128,-1,78
 496 728 496 728 489 730.5 c 0,79,80
 414.374558304 757.151943463 414.374558304 757.151943463 361 833 c 0,81,82
 281.182509506 956.051964512 281.182509506 956.051964512 374 1152 c 0,83,84
 456.749003984 1324.11792829 456.749003984 1324.11792829 747 1398 c 1,85,86
 753 1430 753 1430 757 1441 c 2,87,-1
 767 1476 l 1,88,-1
 1047 1555 l 1,89,90
 1016.28571429 1432.14285714 1016.28571429 1432.14285714 1024 1409 c 1,0,-1
805 502 m 1,91,92
 784 404 784 404 760.5 308 c 128,-1,93
 737 212 737 212 724 112 c 1,94,-1
 741 105 l 1,95,-1
 780 111 l 1,96,97
 844.743861977 177.493696085 844.743861977 177.493696085 863.871930989 272.746848042 c 128,-1,98
 883 368 883 368 870 429 c 128,-1,99
 857 490 857 490 811 537 c 1,100,-1
 805 502 l 1,91,92
679.5 1089.5 m 128,-1,102
 692 1139 692 1139 698.5 1180 c 128,-1,103
 705 1221 705 1221 706.5 1243 c 128,-1,104
 708 1265 708 1265 714 1284 c 1,105,-1
 710 1286 l 1,106,-1
 696 1286 l 1,107,108
 654.363636364 1244.36363636 654.363636364 1244.36363636 628.681818182 1171.18181818 c 128,-1,109
 603 1098 603 1098 605.5 1043 c 128,-1,110
 608 988 608 988 643 936 c 1,111,-1
 656 990 l 1,112,101
 667 1040 667 1040 679.5 1089.5 c 128,-1,102
936 732 m 1,113,-1
 936 731.5 l 1,114,115
 938 731 938 731 936 732 c 1,113,-1
EndSplineSet
EndChar

StartChar: B
Encoding: 37 37 8
Width: 1835
Flags: W
LayerCount: 2
Fore
SplineSet
1314 1199 m 0,0,1
 1182.51162791 1193.02325581 1182.51162791 1193.02325581 1056 1195 c 1,2,3
 1045.25192308 929.880769231 1045.25192308 929.880769231 944 804 c 0,4,5
 832.437262357 665.300380228 832.437262357 665.300380228 648 620 c 0,6,7
 548.505479452 595.798630137 548.505479452 595.798630137 502.252739726 596.399315068 c 0,8,9
 359.042194093 598.259192285 359.042194093 598.259192285 315 700.5 c 0,10,11
 277.604141291 787.31181486 277.604141291 787.31181486 281.302070646 890.15590743 c 128,-1,12
 285 993 285 993 312 1069.5 c 128,-1,13
 339 1146 339 1146 386 1209 c 0,14,15
 507.02306425 1371.22240527 507.02306425 1371.22240527 736 1421 c 0,16,17
 923.553742802 1461.77255278 923.553742802 1461.77255278 997 1363 c 0,18,19
 1014.88888889 1337.44444444 1014.88888889 1337.44444444 1021 1324 c 1,20,21
 1063 1333 1063 1333 1100.5 1330.5 c 128,-1,22
 1138 1328 1138 1328 1182 1328 c 2,23,-1
 1459 1328 l 2,24,25
 1469 1328 1469 1328 1479 1330 c 1,26,-1
 1491 1342 l 1,27,-1
 1743 1381 l 1,28,29
 1723 1362 1723 1362 1705 1342.5 c 128,-1,30
 1687 1323 1687 1323 1671.5 1309 c 128,-1,31
 1656 1295 1656 1295 1642.5 1288.5 c 128,-1,32
 1629 1282 1629 1282 1622 1271.5 c 128,-1,33
 1615 1261 1615 1261 1612 1250.5 c 128,-1,34
 1609 1240 1609 1240 1606 1229.5 c 0,35,36
 1598.25 1202.375 1598.25 1202.375 1590 1190 c 0,37,38
 1523 1097 1523 1097 1450.5 1010 c 128,-1,39
 1378 923 1378 923 1262 778 c 128,-1,40
 1146 633 1146 633 988 434.5 c 128,-1,41
 830 236 830 236 669 35 c 1,42,-1
 400 -25 l 1,43,44
 560 176 560 176 718 374.5 c 128,-1,45
 876 573 876 573 991 717.5 c 128,-1,46
 1106 862 1106 862 1177.5 947 c 128,-1,47
 1249 1032 1249 1032 1287.5 1084.5 c 128,-1,48
 1326 1137 1326 1137 1329.5 1156 c 128,-1,49
 1333 1175 1333 1175 1341 1192 c 1,50,51
 1335.46153846 1196.61538462 1335.46153846 1196.61538462 1314 1199 c 0,0,1
1474 665 m 1,52,-1
 1599 754 l 1,53,54
 1812.57272964 772.844652615 1812.57272964 772.844652615 1854.5 570.5 c 0,55,56
 1875.710178 468.137836604 1875.710178 468.137836604 1853.855089 367.568918302 c 128,-1,57
 1832 267 1832 267 1795 199.5 c 128,-1,58
 1758 132 1758 132 1705 81 c 0,59,60
 1601.14141414 -18.9393939394 1601.14141414 -18.9393939394 1433 -62 c 0,61,62
 1324.94047619 -91.8095238095 1324.94047619 -91.8095238095 1228 -69 c 0,63,64
 1157.40677966 -52.3898305085 1157.40677966 -52.3898305085 1124 7 c 0,65,66
 1073 97.6666666667 1073 97.6666666667 1073 218 c 0,67,68
 1076.11971831 272.595070423 1076.11971831 272.595070423 1101.05985915 355.797535211 c 128,-1,69
 1126 439 1126 439 1163 501.5 c 128,-1,70
 1200 564 1200 564 1251.5 610.5 c 0,71,72
 1349.68277503 699.150466776 1349.68277503 699.150466776 1517 742 c 1,73,-1
 1474 665 l 1,52,-1
1472 59 m 1,74,75
 1588.08195638 196.847323199 1588.08195638 196.847323199 1581.5 396.5 c 0,76,77
 1578.14884179 498.151798916 1578.14884179 498.151798916 1533.5 567.5 c 0,78,79
 1510 604 1510 604 1471 618 c 1,80,-1
 1458 601 l 1,81,82
 1399.53080569 515.545023697 1399.53080569 515.545023697 1367 380 c 0,83,84
 1341.96989967 275.707915273 1341.96989967 275.707915273 1381.5 159 c 0,85,86
 1410.28646081 74.0114014252 1410.28646081 74.0114014252 1472 59 c 1,74,75
668 734 m 1,87,88
 759.463855422 830.545180723 759.463855422 830.545180723 771 1055.5 c 0,89,90
 774 1114 774 1114 775 1162 c 1,91,92
 763 1178 763 1178 753.5 1197.5 c 128,-1,93
 744 1217 744 1217 732.5 1235.5 c 0,94,95
 705.446043165 1279.02158273 705.446043165 1279.02158273 673 1292 c 1,96,97
 521.064516129 1112.79404467 521.064516129 1112.79404467 581 850 c 0,98,99
 603.8375 755.3875 603.8375 755.3875 668 734 c 1,87,88
1551 59 m 1,100,-1
 1551 58.5 l 1,101,102
 1553 59 1553 59 1551 59 c 1,100,-1
1536 57 m 1,103,104
 1534 57 1534 57 1532.5 56.5 c 128,-1,105
 1531 56 1531 56 1529 56 c 1,106,107
 1531 56 1531 56 1532.5 56.5 c 128,-1,108
 1534 57 1534 57 1536 57 c 1,103,104
EndSplineSet
EndChar

StartChar: C
Encoding: 38 38 9
Width: 1540
Flags: W
LayerCount: 2
Fore
SplineSet
905 796 m 1,0,-1
 878 768 l 1,1,2
 882 752 882 752 885.5 735.5 c 128,-1,3
 889 719 889 719 899.5 699 c 128,-1,4
 910 679 910 679 927.5 658.5 c 128,-1,5
 945 638 945 638 968.5 602.5 c 0,6,7
 1054.66666667 472.333333333 1054.66666667 472.333333333 1120 407 c 2,8,-1
 1145 382 l 1,9,10
 1205.73333333 468.761904762 1205.73333333 468.761904762 1225.86666667 529.880952381 c 128,-1,11
 1246 591 1246 591 1261.5 633 c 0,12,13
 1299.15911873 735.044063647 1299.15911873 735.044063647 1349 788 c 1,14,-1
 1601 827 l 1,15,16
 1561.20408163 785.612244898 1561.20408163 785.612244898 1541.60204082 726.806122449 c 128,-1,17
 1522 668 1522 668 1511.5 632.5 c 128,-1,18
 1501 597 1501 597 1475 538.5 c 0,19,20
 1428.56886228 434.02994012 1428.56886228 434.02994012 1261 269 c 1,21,22
 1435.54891226 101.079527446 1435.54891226 101.079527446 1622 72 c 1,23,-1
 1377 -55 l 1,24,25
 1210.11344922 -28.3691674291 1210.11344922 -28.3691674291 1052 99 c 1,26,27
 926.309392265 18.5580110497 926.309392265 18.5580110497 758 -13 c 0,28,29
 726 -19 726 -19 698 -19 c 1,30,-1
 693 -20 l 257,31,-1
 688 -20 l 1,32,-1
 685 -21 l 257,33,-1
 681 -21 l 1,34,35
 515.308930625 -58.7523955539 515.308930625 -58.7523955539 379 12.5 c 0,36,37
 202.66104182 104.677182685 202.66104182 104.677182685 196 314.5 c 0,38,39
 190.654767284 482.874830547 190.654767284 482.874830547 333 631.5 c 0,40,41
 408.935170178 710.785251216 408.935170178 710.785251216 502 743 c 1,42,-1
 513 755 l 1,43,-1
 518 761 l 1,44,45
 513 806 513 806 499.5 848.5 c 128,-1,46
 486 891 486 891 482.5 935 c 128,-1,47
 479 979 479 979 484.5 1025.5 c 128,-1,48
 490 1072 490 1072 503.5 1116 c 0,49,50
 546.547670533 1256.30351877 546.547670533 1256.30351877 657.5 1323.5 c 0,51,52
 766.862903226 1389.73387097 766.862903226 1389.73387097 909 1423 c 0,53,54
 1046.99690402 1456.30959752 1046.99690402 1456.30959752 1145 1396 c 0,55,56
 1198.92941176 1363.31550802 1198.92941176 1363.31550802 1221.46470588 1291.15775401 c 128,-1,57
 1244 1219 1244 1219 1243 1170 c 128,-1,58
 1242 1121 1242 1121 1224.5 1076.5 c 0,59,60
 1176.49289564 954.424791769 1176.49289564 954.424791769 1016 851.5 c 0,61,62
 970 822 970 822 921 802 c 1,63,-1
 902 793 l 1,64,-1
 905 796 l 1,0,-1
654.5 542.5 m 128,-1,66
 648 551 648 551 634.5 569 c 128,-1,67
 621 587 621 587 612.5 615.5 c 128,-1,68
 604 644 604 644 594 675 c 1,69,70
 579.692307692 658.307692308 579.692307692 658.307692308 568 651 c 1,71,72
 444.149797571 493.372469636 444.149797571 493.372469636 491.5 322.5 c 0,73,74
 514.696714635 238.790116753 514.696714635 238.790116753 576.5 178 c 0,75,76
 612.73253012 142.361445783 612.73253012 142.361445783 656.36626506 124.180722892 c 128,-1,77
 700 106 700 106 725 102 c 128,-1,78
 750 98 750 98 781 102 c 128,-1,79
 812 106 812 106 843 109 c 1,80,81
 839.857142857 112.142857143 839.857142857 112.142857143 842.428571429 112.571428571 c 128,-1,82
 845 113 845 113 850.5 113 c 2,83,-1
 862 113 l 2,84,85
 868 113 868 113 872 114 c 1,86,-1
 879 119 l 1,87,88
 915.727272727 158.787878788 915.727272727 158.787878788 933 168 c 1,89,-1
 944 178 l 2,90,91
 945 180 945 180 945 184 c 0,92,93
 927 212 927 212 903.5 235 c 128,-1,94
 880 258 880 258 853.5 285.5 c 0,95,96
 800.75142315 340.239089184 800.75142315 340.239089184 752.375711575 407.619544592 c 0,97,98
 686.926829268 498.780487805 686.926829268 498.780487805 681 508 c 1,99,-1
 667 525 l 1,100,65
 661 534 661 534 654.5 542.5 c 128,-1,66
832 1297 m 1,101,102
 728.005891684 1124.58871516 728.005891684 1124.58871516 784.5 933 c 0,103,104
 796 894 796 894 801 853 c 1,105,-1
 831 864 l 1,106,107
 999.854951185 980.89958159 999.854951185 980.89958159 950.5 1164.5 c 0,108,109
 920.989437485 1274.27929256 920.989437485 1274.27929256 832 1297 c 1,101,102
871 112 m 1,110,111
 870 112 870 112 869 111.5 c 1,112,-1
 869 111 l 1,113,114
 870 111 870 111 871 112 c 1,110,111
893 884 m 2,115,-1
 892 883 l 2,116,117
 892.585786438 883.414213562 892.585786438 883.414213562 893 884 c 2,115,-1
677 519 m 1,118,-1
 677 521 l 1,119,-1
 677 519 l 1,118,-1
EndSplineSet
EndChar

StartChar: Ucircumflex
Encoding: 8217 8217 10
Width: 504
Flags: W
LayerCount: 2
Fore
SplineSet
675 1338 m 1,0,1
 678.5625 1295.25 678.5625 1295.25 656 1205 c 2,2,-1
 649.5 1178 l 1,3,4
 613.158636027 1053.40103781 613.158636027 1053.40103781 556.079318013 982.700518903 c 128,-1,5
 499 912 499 912 450 862 c 1,6,-1
 198 823 l 1,7,8
 274.63356974 902.028368794 274.63356974 902.028368794 301.81678487 944.514184397 c 128,-1,9
 329 987 329 987 344 1023 c 128,-1,10
 359 1059 359 1059 370.5 1098.5 c 0,11,12
 397.533484677 1191.35414302 397.533484677 1191.35414302 392 1243 c 1,13,-1
 675 1338 l 1,0,1
EndSplineSet
EndChar

StartChar: E
Encoding: 40 40 11
Width: 717
Flags: W
LayerCount: 2
Fore
SplineSet
848 1427 m 1,0,1
 854 1430 854 1430 864 1436 c 1,2,-1
 889 1447 l 2,3,4
 894 1449 894 1449 898.5 1450.5 c 128,-1,5
 903 1452 903 1452 908 1454 c 2,6,-1
 878 1446 l 1,7,8
 526.949152542 1328.98305085 526.949152542 1328.98305085 372.5 913 c 0,9,10
 187.562922038 414.902803356 187.562922038 414.902803356 238 3 c 0,11,12
 268.014388489 -242.117505995 268.014388489 -242.117505995 396 -299 c 0,13,14
 405 -303 405 -303 419 -310 c 1,15,-1
 684 -190 l 1,16,17
 662 -179 662 -179 648.5 -173 c 128,-1,18
 635 -167 635 -167 609 -140.5 c 128,-1,19
 583 -114 583 -114 562 -65.5 c 128,-1,20
 541 -17 541 -17 530 36.5 c 0,21,22
 485.346417846 253.678785929 485.346417846 253.678785929 523 490.5 c 0,23,24
 583.670830912 872.087594422 583.670830912 872.087594422 720 1141.5 c 0,25,26
 795.727272727 1291.15151515 795.727272727 1291.15151515 890 1354 c 1,27,28
 999.615384615 1384.69230769 999.615384615 1384.69230769 1075 1445 c 1,29,-1
 848 1427 l 1,0,1
920 1458 m 2,30,-1
 933 1461.5 l 2,31,32
 925 1459 925 1459 920 1458 c 2,30,-1
919 1457 m 1,33,-1
 908 1454 l 1,34,-1
 919 1457 l 1,33,-1
920 1458 m 1,35,-1
 919 1457 l 1,36,-1
 920 1458 l 1,35,-1
EndSplineSet
EndChar

StartChar: F
Encoding: 41 41 12
Width: 717
Flags: W
LayerCount: 2
Fore
SplineSet
551 1470 m 1,0,1
 621.100502513 1431.55778894 621.100502513 1431.55778894 660.550251256 1388.77889447 c 128,-1,2
 700 1346 700 1346 724 1271 c 128,-1,3
 748 1196 748 1196 756 1113.5 c 0,4,5
 786.175235337 802.31788559 786.175235337 802.31788559 647.5 342.5 c 0,6,7
 507.976654083 -120.130041725 507.976654083 -120.130041725 181.5 -257.5 c 0,8,9
 90 -296 90 -296 -7 -322 c 1,10,-1
 53 -213 l 1,11,12
 43 -218 43 -218 46 -216 c 128,-1,13
 49 -214 49 -214 54 -212 c 1,14,-1
 56 -209 l 1,15,-1
 88 -198 l 1,16,17
 128.192771084 -172.879518072 128.192771084 -172.879518072 184.096385542 -102.439759036 c 0,18,19
 323.212333346 72.8493333858 323.212333346 72.8493333858 405 400 c 0,20,21
 409.666666667 421 409.666666667 421 418.833333333 458.5 c 0,22,23
 514.32374541 849.142594859 514.32374541 849.142594859 455.5 1122.5 c 0,24,25
 420.612083569 1284.62619989 420.612083569 1284.62619989 311.5 1337 c 0,26,27
 299 1343 299 1343 286 1350 c 1,28,-1
 551 1470 l 1,0,1
EndSplineSet
EndChar

StartChar: G
Encoding: 42 42 13
Width: 1024
Flags: W
LayerCount: 2
Fore
SplineSet
577 934 m 1,0,1
 546.777777778 916.222222222 546.777777778 916.222222222 513 893 c 1,2,-1
 316 896 l 1,3,4
 414.662790698 965.063953488 414.662790698 965.063953488 567 1032 c 0,5,6
 570 1033 570 1033 572.5 1034.5 c 128,-1,7
 575 1036 575 1036 578 1037 c 1,8,9
 543.01863354 1067.60869565 543.01863354 1067.60869565 494.50931677 1092.30434783 c 0,10,11
 400.482758621 1140.17241379 400.482758621 1140.17241379 366 1165 c 1,12,-1
 631 1285 l 1,13,-1
 637 1280 l 1,14,15
 651.6105919 1332.18068536 651.6105919 1332.18068536 686 1372 c 1,16,-1
 955 1432 l 1,17,18
 915.598726115 1386.03184713 915.598726115 1386.03184713 912.299363057 1339.01592357 c 128,-1,19
 909 1292 909 1292 909.5 1262 c 128,-1,20
 910 1232 910 1232 905 1199 c 1,21,-1
 984 1237 l 1,22,-1
 1104 1191 l 1,23,-1
 913 1100 l 1,24,25
 1036.78947368 1011.57894737 1036.78947368 1011.57894737 1105 959 c 1,26,-1
 843 840 l 1,27,28
 832 797 832 797 807 765 c 1,29,-1
 538 705 l 1,30,31
 577 756.1875 577 756.1875 577 867 c 2,32,-1
 577 934 l 1,0,1
590 1027 m 1,33,-1
 589 1027 l 1,34,-1
 590 1027 l 1,33,-1
EndSplineSet
EndChar

StartChar: H
Encoding: 43 43 14
Width: 1229
Flags: W
LayerCount: 2
Fore
SplineSet
877 967 m 1,0,-1
 877 576 l 1,1,-1
 1250 576 l 1,2,-1
 1064 444 l 1,3,-1
 877 444 l 1,4,-1
 877 137 l 1,5,6
 806 114 806 114 736 90 c 128,-1,7
 666 66 666 66 594 42 c 1,8,-1
 594 444 l 1,9,-1
 239 444 l 1,10,-1
 425 576 l 1,11,-1
 594 576 l 1,12,-1
 594 872 l 1,13,-1
 877 967 l 1,0,-1
EndSplineSet
EndChar

StartChar: I
Encoding: 44 44 15
Width: 573
Flags: W
LayerCount: 2
Fore
SplineSet
451 231 m 1,0,1
 468.856287425 182.532934132 468.856287425 182.532934132 447 111.5 c 0,2,3
 429 53 429 53 415 -3 c 128,-1,4
 401 -59 401 -59 373.5 -106 c 0,5,6
 335.635761589 -170.713425647 335.635761589 -170.713425647 219 -290 c 1,7,-1
 -33 -329 l 1,8,9
 67.1578947368 -228.842105263 67.1578947368 -228.842105263 104 -167 c 0,10,11
 128.674418605 -125.875968992 128.674418605 -125.875968992 151.837209302 -31.9379844961 c 128,-1,12
 175 62 175 62 176 76.5 c 128,-1,13
 177 91 177 91 175 101 c 128,-1,14
 173 111 173 111 173 122 c 1,15,-1
 451 231 l 1,0,1
EndSplineSet
EndChar

StartChar: J
Encoding: 45 45 16
Width: 803
Flags: W
LayerCount: 2
Fore
SplineSet
797 610 m 1,0,-1
 756 416 l 1,1,-1
 217 416 l 1,2,-1
 258 610 l 1,3,-1
 797 610 l 1,0,-1
EndSplineSet
EndChar

StartChar: uni00AD
Encoding: 173 173 17
Width: 803
Flags: W
LayerCount: 2
Fore
SplineSet
452 579 m 1,0,-1
 760 579 l 1,1,-1
 574 447 l 1,2,-1
 266 447 l 1,3,-1
 452 579 l 1,0,-1
EndSplineSet
EndChar

StartChar: K
Encoding: 46 46 18
Width: 573
Flags: W
LayerCount: 2
Fore
SplineSet
182 25 m 0,0,1
 137 70 137 70 137 151.5 c 128,-1,2
 137 233 137 233 194.5 286.5 c 128,-1,3
 252 340 252 340 337 339 c 128,-1,4
 422 338 422 338 464 293 c 128,-1,5
 506 248 506 248 505 167 c 128,-1,6
 504 86 504 86 450.5 31.5 c 128,-1,7
 397 -23 397 -23 311 -23 c 128,-1,8
 225 -23 225 -23 182 25 c 0,0,1
EndSplineSet
EndChar

StartChar: L
Encoding: 47 47 19
Width: 532
Flags: W
LayerCount: 2
Fore
SplineSet
841 1448 m 1,0,1
 709 1104 709 1104 577.5 764 c 128,-1,2
 446 424 446 424 314 80 c 1,3,-1
 34 1 l 1,4,5
 167 346 167 346 298 685.5 c 128,-1,6
 429 1025 429 1025 561 1369 c 1,7,-1
 841 1448 l 1,0,1
EndSplineSet
EndChar

StartChar: M
Encoding: 48 48 20
Width: 1147
Flags: W
LayerCount: 2
Fore
SplineSet
580 1336.5 m 0,0,1
 641 1383 641 1383 739.012797075 1418.76142596 c 128,-1,2
 837.02559415 1454.52285192 837.02559415 1454.52285192 900.012797075 1457.26142596 c 128,-1,3
 963 1460 963 1460 998.5 1456.5 c 0,4,5
 1081.88372093 1448.27906977 1081.88372093 1448.27906977 1111.94186047 1425.63953488 c 0,6,7
 1169.48461108 1382.29882485 1169.48461108 1382.29882485 1189.74230554 1344.14941242 c 128,-1,8
 1210 1306 1210 1306 1223.5 1258.5 c 128,-1,9
 1237 1211 1237 1211 1245 1159.5 c 0,10,11
 1262.91505792 1044.17181467 1262.91505792 1044.17181467 1254.45752896 960.085907336 c 0,12,13
 1238.79990389 804.415661704 1238.79990389 804.415661704 1194.89995195 649.207830852 c 128,-1,14
 1151 494 1151 494 1107.5 390 c 128,-1,15
 1064 286 1064 286 999.5 202 c 0,16,17
 838.745627981 -7.35453100159 838.745627981 -7.35453100159 555 -31 c 0,18,19
 429.332103321 -41.4723247232 429.332103321 -41.4723247232 348 11 c 0,20,21
 289.969491525 50.7050847458 289.969491525 50.7050847458 254.984745763 143.852542373 c 0,22,23
 150.243534506 422.727729964 150.243534506 422.727729964 260.5 802.5 c 0,24,25
 368.788794567 1175.49473684 368.788794567 1175.49473684 580 1336.5 c 0,0,1
772 1325 m 1,26,-1
 754 1306 l 1,27,28
 651.234367056 1200.37976614 651.234367056 1200.37976614 571 976.5 c 0,29,30
 505.027721594 792.416061868 505.027721594 792.416061868 492.513860797 657.708030934 c 128,-1,31
 480 523 480 523 489 464.5 c 128,-1,32
 498 406 498 406 504 366.5 c 128,-1,33
 510 327 510 327 520.5 288.5 c 0,34,35
 544.685714286 199.819047619 544.685714286 199.819047619 592 149 c 0,36,37
 620.870967742 117.241935484 620.870967742 117.241935484 692 102 c 0,38,39
 693 101 693 101 697 101 c 0,40,41
 774.041176471 183.544117647 774.041176471 183.544117647 813.020588235 274.272058824 c 128,-1,42
 852 365 852 365 872 423 c 0,43,44
 1008.44573926 818.692643846 1008.44573926 818.692643846 957 1085 c 0,45,46
 934.444736842 1201.53552632 934.444736842 1201.53552632 907.222368421 1240.76776316 c 128,-1,47
 880 1280 880 1280 853.9984375 1299.9546875 c 128,-1,48
 827.996875 1319.909375 827.996875 1319.909375 772 1325 c 1,26,-1
EndSplineSet
EndChar

StartChar: N
Encoding: 49 49 21
Width: 1147
Flags: W
LayerCount: 2
Fore
SplineSet
742.5 1407 m 1,0,1
 817.857142857 1407 817.857142857 1407 859 1395 c 1,2,3
 863 1399 863 1399 867 1402 c 128,-1,4
 871 1405 871 1405 876 1409 c 1,5,-1
 1104 1427 l 1,6,7
 1077 1405 1077 1405 1052.5 1381 c 128,-1,8
 1028 1357 1028 1357 1010 1341 c 128,-1,9
 992 1325 992 1325 982.5 1317.5 c 128,-1,10
 973 1310 973 1310 963 1300 c 1,11,12
 957 1288 957 1288 956.5 1273.5 c 0,13,14
 953.008130081 1172.23577236 953.008130081 1172.23577236 936.504065041 1099.61788618 c 128,-1,15
 920 1027 920 1027 902 945.5 c 128,-1,16
 884 864 884 864 861.5 757.5 c 128,-1,17
 839 651 839 651 823.5 576.5 c 128,-1,18
 808 502 808 502 797.5 462.5 c 128,-1,19
 787 423 787 423 781.5 393 c 128,-1,20
 776 363 776 363 775 344.5 c 128,-1,21
 774 326 774 326 771 308 c 0,22,23
 771 238.625 771 238.625 762 215 c 1,24,25
 774 203 774 203 785 190.5 c 128,-1,26
 796 178 796 178 808 167 c 0,27,28
 850.768472906 127.795566502 850.768472906 127.795566502 884.884236453 126.897783251 c 128,-1,29
 919 126 919 126 938.5 127 c 128,-1,30
 958 128 958 128 977.5 129.5 c 128,-1,31
 997 131 997 131 1014 131 c 1,32,-1
 828 -1 l 1,33,34
 797 -1 797 -1 764 -3.5 c 128,-1,35
 731 -6 731 -6 698.5 -5.5 c 0,36,37
 588.597571552 -3.8091934085 588.597571552 -3.8091934085 534 54 c 1,38,39
 392.333333333 -1 392.333333333 -1 179 -1 c 1,40,-1
 365 131 l 1,41,42
 393 131 393 131 421 131 c 128,-1,43
 449 131 449 131 478 133 c 1,44,-1
 481 136 l 1,45,46
 491 174 491 174 491 217.5 c 128,-1,47
 491 261 491 261 499 302.5 c 128,-1,48
 507 344 507 344 517.5 384 c 128,-1,49
 528 424 528 424 545.5 508.5 c 0,50,51
 583 689.571428571 583 689.571428571 618 847.285714286 c 0,52,53
 663.713339223 1053.27561837 663.713339223 1053.27561837 668 1099 c 1,54,55
 668 1182.33333333 668 1182.33333333 678 1209 c 1,56,57
 662 1224 662 1224 647.5 1240 c 128,-1,58
 633 1256 633 1256 619.5 1264.5 c 128,-1,59
 606 1273 606 1273 594 1272.5 c 128,-1,60
 582 1272 582 1272 562.5 1273 c 128,-1,61
 543 1274 543 1274 515.5 1273 c 128,-1,62
 488 1272 488 1272 460 1271 c 1,63,-1
 646 1403 l 1,64,-1
 742.5 1407 l 1,0,1
EndSplineSet
EndChar

StartChar: O
Encoding: 50 50 22
Width: 1147
Flags: W
LayerCount: 2
Fore
SplineSet
317 1047 m 1,0,1
 367.19218241 1134.17589577 367.19218241 1134.17589577 407.096091205 1179.58794788 c 128,-1,2
 447 1225 447 1225 504.5 1266 c 128,-1,3
 562 1307 562 1307 627 1335.5 c 0,4,5
 760.367078622 1393.97633447 760.367078622 1393.97633447 900 1396 c 1,6,7
 1089.85282258 1404.43790323 1089.85282258 1404.43790323 1159.5 1254 c 0,8,9
 1184.58542141 1199.81548975 1184.58542141 1199.81548975 1198.79271071 1141.40774487 c 128,-1,10
 1213 1083 1213 1083 1214.5 1060 c 0,11,12
 1216.98169336 1021.94736842 1216.98169336 1021.94736842 1193.99084668 953.473684211 c 128,-1,13
 1171 885 1171 885 1129.5 827.5 c 128,-1,14
 1088 770 1088 770 1036 721 c 0,15,16
 945.318577075 635.550197628 945.318577075 635.550197628 729.5 497 c 1,17,-1
 629 431 l 1,18,-1
 630 431 l 1,19,20
 628 429 628 429 627 429 c 1,21,22
 632 431 632 431 626 426 c 0,23,24
 545.255813953 366.093023256 545.255813953 366.093023256 512 329 c 0,25,26
 474.27173913 279.663043478 474.27173913 279.663043478 437 143 c 1,27,-1
 437 136 l 1,28,29
 485 141 485 141 533 138 c 128,-1,30
 581 135 581 135 630 135 c 2,31,-1
 902 135 l 1,32,33
 920 161 920 161 934.5 189 c 128,-1,34
 949 217 949 217 966 244 c 1,35,-1
 1235 304 l 1,36,37
 1222 283 1222 283 1210 261 c 128,-1,38
 1198 239 1198 239 1185 217.5 c 0,39,40
 1104.60099751 84.5324189526 1104.60099751 84.5324189526 913 31.5 c 0,41,42
 810.032258065 3 810.032258065 3 679 3 c 2,43,-1
 265 3 l 1,44,45
 198.320754717 -8.11320754717 198.320754717 -8.11320754717 162 15 c 0,46,47
 140.769230769 30.9230769231 140.769230769 30.9230769231 170 104 c 0,48,49
 181 134 181 134 189.5 160 c 128,-1,50
 198 186 198 186 208.5 210 c 0,51,52
 231.974137931 263.655172414 231.974137931 263.655172414 261.487068966 292.327586207 c 0,53,54
 318.08554475 347.314158563 318.08554475 347.314158563 339.542772375 363.657079281 c 128,-1,55
 361 380 361 380 375.5 391.5 c 128,-1,56
 390 403 390 403 405 414 c 1,57,58
 394.625 414 394.625 414 414.3125 424.5 c 128,-1,59
 434 435 434 435 446.5 443.5 c 128,-1,60
 459 452 459 452 474 462.5 c 128,-1,61
 489 473 489 473 502 481.5 c 128,-1,62
 515 490 515 490 528.5 498.5 c 128,-1,63
 542 507 542 507 568.5 524.5 c 128,-1,64
 595 542 595 542 632 566 c 128,-1,65
 669 590 669 590 704 616 c 0,66,67
 842.989338072 719.249222568 842.989338072 719.249222568 893 829.5 c 0,68,69
 937.683356514 928.006490496 937.683356514 928.006490496 931.5 975 c 0,70,71
 929 994 929 994 925.5 1006.5 c 0,72,73
 919.666666667 1027.33333333 919.666666667 1027.33333333 916.833333333 1036.66666667 c 0,74,75
 913 1049.29411765 913 1049.29411765 907.5 1070.64705882 c 128,-1,76
 902 1092 902 1092 889.5 1126.5 c 128,-1,77
 877 1161 877 1161 858 1188 c 0,78,79
 816.2 1247.4 816.2 1247.4 737 1260 c 0,80,81
 728 1261 728 1261 723.5 1262 c 128,-1,82
 719 1263 719 1263 716.5 1263.5 c 128,-1,83
 714 1264 714 1264 711.5 1263.5 c 128,-1,84
 709 1263 709 1263 704 1263 c 0,85,86
 645.459610028 1207.62395543 645.459610028 1207.62395543 586 1107 c 1,87,-1
 317 1047 l 1,0,1
427 425 m 1,88,89
 411.6 414 411.6 414 406 414 c 0,90,91
 381 394 381 394 377 390 c 0,92,93
 377 388.6 377 388.6 386 395.3 c 0,94,95
 417.835820896 419 417.835820896 419 420 419 c 1,96,-1
 427 425 l 1,88,89
414 416 m 2,97,-1
 416 417 l 2,98,99
 414.732050808 416.767949192 414.732050808 416.767949192 414 416 c 2,97,-1
556 385 m 1,100,101
 555.746489589 384.747569715 555.746489589 384.747569715 555.5 384.5 c 0,102,103
 548 380 548 380 556 385 c 1,100,101
443 436 m 2,104,-1
 442 435 l 2,105,106
 446 437 446 437 447.5 438.5 c 128,-1,107
 449 440 449 440 447 439 c 2,108,-1
 438 433 l 2,109,110
 442 435 442 435 443.5 436 c 128,-1,111
 445 437 445 437 443 436 c 2,104,-1
560 388 m 2,112,113
 565.856406461 391.392304845 565.856406461 391.392304845 576 398 c 2,114,-1
 560 388 l 2,112,113
400 131 m 1,115,116
 397.607695155 130.321152423 397.607695155 130.321152423 394.5 130 c 1,117,118
 397 130 397 130 400 131 c 1,115,116
567.5 393 m 1,119,120
 565.205257702 392.159209617 565.205257702 392.159209617 559.602628851 388.079604808 c 128,-1,121
 554 384 554 384 567.5 393 c 1,119,120
577 398 m 1,122,-1
 585 403 l 1,123,-1
 577 398 l 1,122,-1
432 428 m 2,124,-1
 430 426 l 1,125,126
 430 426 430 426 432 428 c 2,124,-1
418 417.5 m 1,127,-1
 418 417.5 l 1,128,129
 418 418 418 418 418 417.5 c 1,127,-1
631 431 m 1,130,-1
 632 432 l 1,131,-1
 631 431 l 1,130,-1
EndSplineSet
EndChar

StartChar: P
Encoding: 51 51 23
Width: 1147
Flags: W
LayerCount: 2
Fore
SplineSet
662 808 m 1,0,1
 704 808 704 808 744 806 c 1,2,-1
 785 831 l 1,3,-1
 817 848 l 1,4,5
 844.666666667 873.361111111 844.666666667 873.361111111 876.333333333 918.680555556 c 0,6,7
 930.654321808 996.421514061 930.654321808 996.421514061 897 1107 c 1,8,-1
 893 1122 l 1,9,10
 891 1124 891 1124 891 1126 c 0,11,12
 876.034482759 1173.3908046 876.034482759 1173.3908046 853.017241379 1211.1954023 c 128,-1,13
 830 1249 830 1249 784.5 1275.5 c 128,-1,14
 739 1302 739 1302 684 1298 c 1,15,16
 658 1272 658 1272 638 1243 c 0,17,18
 609.111111111 1201.11111111 609.111111111 1201.11111111 593 1185 c 1,19,-1
 313 1106 l 1,20,21
 322 1124 322 1124 332 1136.5 c 0,22,23
 334 1139 334 1139 330 1131 c 1,24,25
 338.8 1146.4 338.8 1146.4 345.4 1155.2 c 128,-1,26
 352 1164 352 1164 359.5 1174.5 c 128,-1,27
 367 1185 367 1185 374 1193.5 c 128,-1,28
 381 1202 381 1202 395 1219.5 c 0,29,30
 504 1355.75 504 1355.75 729 1412 c 0,31,32
 878.872659176 1449.46816479 878.872659176 1449.46816479 998.5 1416.5 c 0,33,34
 1139.60930708 1377.61160828 1139.60930708 1377.61160828 1188 1178 c 0,35,36
 1196 1145 1196 1145 1194 1121 c 0,37,38
 1186 1031 1186 1031 1131.5 958 c 0,39,40
 1060.91803279 863.459016393 1060.91803279 863.459016393 944 805 c 1,41,42
 940 797 940 797 940 796.5 c 128,-1,43
 940 796 940 796 940 780 c 128,-1,44
 940 764 940 764 953 746 c 128,-1,45
 966 728 966 728 982.5 712 c 128,-1,46
 999 696 999 696 1015.5 680 c 128,-1,47
 1032 664 1032 664 1048.5 631.5 c 128,-1,48
 1065 599 1065 599 1078 550 c 128,-1,49
 1091 501 1091 501 1093.5 450 c 0,50,51
 1102.49911445 266.418065278 1102.49911445 266.418065278 961.5 130.5 c 0,52,53
 800.516042382 -24.6827339203 800.516042382 -24.6827339203 550 -59 c 0,54,55
 279.098385857 -93.7309761722 279.098385857 -93.7309761722 161.5 78 c 0,56,57
 130 124 130 124 106 176 c 1,58,-1
 384 285 l 1,59,60
 478.27027027 67 478.27027027 67 669 67 c 0,61,62
 676 67 676 67 681 68 c 1,63,64
 714.792792793 89.5045045045 714.792792793 89.5045045045 749.896396396 138.252252252 c 0,65,66
 840.071908282 263.477376033 840.071908282 263.477376033 798.5 455.5 c 0,67,68
 784.103912495 521.996213715 784.103912495 521.996213715 734.5 570 c 0,69,70
 667.521640091 634.817767654 667.521640091 634.817767654 658 671 c 1,71,-1
 613 671 l 2,72,73
 591 671 591 671 569 672.5 c 0,74,75
 517.666666667 676 517.666666667 676 481 676 c 2,76,-1
 460.5 676 l 2,77,78
 451 676 451 676 443.25 676.5 c 128,-1,79
 435.5 677 435.5 677 431.25 677 c 128,-1,80
 427 677 427 677 421 678 c 1,81,-1
 444 681 l 1,82,-1
 513 706 l 1,83,-1
 396 751 l 1,84,85
 557.615853659 826.420731707 557.615853659 826.420731707 662 808 c 1,0,1
938 802 m 2,86,-1
 933 800 l 2,87,88
 934 800 934 800 938 802 c 2,86,-1
802 838 m 0,89,90
 800 837 800 837 801 837 c 128,-1,91
 802 837 802 837 804 839 c 1,92,93
 803 838 803 838 802 838 c 0,89,90
322 1117 m 2,94,-1
 323 1118 l 2,95,96
 322 1118 322 1118 322 1117 c 2,94,-1
EndSplineSet
EndChar

StartChar: Q
Encoding: 52 52 24
Width: 1147
Flags: W
LayerCount: 2
Fore
SplineSet
580 128 m 1,0,1
 602 128 602 128 605 127 c 1,2,-1
 659 127 l 1,3,-1
 661 128 l 1,4,5
 660 141 660 141 662 153.5 c 128,-1,6
 664 166 664 166 667.5 192.5 c 0,7,8
 674.690909091 246.945454545 674.690909091 246.945454545 677 337 c 1,9,10
 668 343 668 343 661 351 c 128,-1,11
 654 359 654 359 647 366.5 c 0,12,13
 630.280991736 384.41322314 630.280991736 384.41322314 616 386 c 0,14,15
 535 386 535 386 455.5 388 c 128,-1,16
 376 390 376 390 327 387.5 c 128,-1,17
 278 385 278 385 250 382.5 c 128,-1,18
 222 380 222 380 196 383 c 128,-1,19
 170 386 170 386 151.5 398.5 c 128,-1,20
 133 411 133 411 134.5 431 c 128,-1,21
 136 451 136 451 140 460.5 c 128,-1,22
 144 470 144 470 152.5 494.5 c 128,-1,23
 161 519 161 519 182.5 555.5 c 128,-1,24
 204 592 204 592 229 626.5 c 128,-1,25
 254 661 254 661 281.5 693.5 c 128,-1,26
 309 726 309 726 331 754 c 0,27,28
 381.111111111 817.777777778 381.111111111 817.777777778 410.055555556 851.888888889 c 128,-1,29
 439 886 439 886 467.5 920 c 0,30,31
 533.212435233 998.393782383 533.212435233 998.393782383 573.106217617 1043.69689119 c 128,-1,32
 613 1089 613 1089 646.5 1128 c 0,33,34
 703.363419483 1194.19920477 703.363419483 1194.19920477 825 1248 c 0,35,36
 835 1252 835 1252 841.5 1255 c 128,-1,37
 848 1258 848 1258 852.5 1260 c 128,-1,38
 857 1262 857 1262 862 1263.5 c 0,39,40
 869 1265.6 869 1265.6 880 1270.3 c 0,41,42
 892.286549708 1275.5497076 892.286549708 1275.5497076 923 1285 c 1,43,-1
 927 1290 l 1,44,-1
 1196 1350 l 1,45,46
 1126.36580882 1249.41727941 1126.36580882 1249.41727941 1127.5 1182.5 c 0,47,48
 1129.10702341 1087.68561873 1129.10702341 1087.68561873 1093.55351171 947.342809365 c 128,-1,49
 1058 807 1058 807 1047 755.5 c 128,-1,50
 1036 704 1036 704 1033.5 677.5 c 0,51,52
 1028.03703704 619.592592593 1028.03703704 619.592592593 1023 607 c 1,53,-1
 1023 604 l 2,54,55
 1023 598 1023 598 1021 594 c 1,56,57
 1021.16579428 599.619184913 1021.16579428 599.619184913 1023 604 c 1,58,59
 1022 602 1022 602 1022 598.5 c 2,60,-1
 1022 593 l 2,61,62
 1022 559.935483871 1022 559.935483871 1041.5 545.467741935 c 0,63,64
 1081.2173913 516 1081.2173913 516 1109 516 c 2,65,-1
 1145 516 l 1,66,67
 1150 517 1150 517 1155.5 517 c 2,68,-1
 1166 517 l 1,69,70
 1191.33333333 523.333333333 1191.33333333 523.333333333 1185 517 c 1,71,72
 1190 518 1190 518 1195 518 c 128,-1,73
 1200 518 1200 518 1205 518 c 1,74,-1
 1027 391 l 1,75,-1
 1042 393 l 2,76,77
 1044 393 1044 393 1041.5 392.5 c 128,-1,78
 1039 392 1039 392 1037 392 c 2,79,-1
 1019 386 l 1,80,-1
 996 385 l 2,81,82
 987 384 987 384 977.5 384 c 2,83,-1
 959 384 l 1,84,85
 955.2 332.7 955.2 332.7 947 263 c 1,86,-1
 943 221.5 l 1,87,88
 943 204 943 204 962 185 c 0,89,90
 972 178 972 178 979.5 169.5 c 128,-1,91
 987 161 987 161 1006.5 148 c 0,92,93
 1036.5 128 1036.5 128 1115 128 c 1,94,-1
 929 -4 l 1,95,-1
 873.5 -4 l 2,96,97
 781 -4 781 -4 718 45 c 1,98,99
 606.510948905 -2.78102189781 606.510948905 -2.78102189781 500 -5 c 1,100,-1
 400.5 -5 l 2,101,102
 388 -5 388 -5 380.5 -3.5 c 0,103,104
 378 -3 378 -3 380 -3 c 2,105,-1
 395 -3 l 1,106,-1
 580 128 l 1,0,1
420 516 m 0,107,108
 424 514 424 514 489.1 520.420512821 c 128,-1,109
 554.2 526.841025641 554.2 526.841025641 743 522 c 1,110,-1
 755 609 l 2,111,112
 762.132486388 660.353901996 762.132486388 660.353901996 791.566243194 782.176950998 c 128,-1,113
 821 904 821 904 830 957 c 128,-1,114
 839 1010 839 1010 840 1044 c 128,-1,115
 841 1078 841 1078 845 1110 c 1,116,-1
 794 1048 l 1,117,118
 620.298507463 842.71641791 620.298507463 842.71641791 583.149253731 792.858208955 c 128,-1,119
 546 743 546 743 525 719 c 1,120,-1
 507 696 l 1,121,122
 440.66498994 614.6861167 440.66498994 614.6861167 418 531 c 0,123,124
 418 521 418 521 420 516 c 0,107,108
919 1282 m 1,125,-1
 919 1281.5 l 1,126,127
 920 1282 920 1282 919 1282 c 1,125,-1
613 97 m 1,128,-1
 615 98 l 1,129,-1
 613 97 l 1,128,-1
884 143 m 1,130,131
 883.585786438 142.414213562 883.585786438 142.414213562 883 142 c 1,132,133
 884 142 884 142 884 143 c 1,130,131
EndSplineSet
EndChar

StartChar: R
Encoding: 53 53 25
Width: 1147
Flags: W
LayerCount: 2
Fore
SplineSet
410 306 m 1,0,1
 474.869297796 145.853921066 474.869297796 145.853921066 629 105 c 1,2,3
 663 101 663 101 696 101 c 1,4,5
 784.267605634 189.267605634 784.267605634 189.267605634 810.633802817 263.633802817 c 128,-1,6
 837 338 837 338 842.5 388.5 c 128,-1,7
 848 439 848 439 845 487 c 128,-1,8
 842 535 842 535 828.5 581 c 0,9,10
 798.729537367 682.440094899 798.729537367 682.440094899 731 737 c 0,11,12
 664.277591973 792.284280936 664.277591973 792.284280936 555 773 c 1,13,14
 503 752 503 752 450 730.5 c 128,-1,15
 397 709 397 709 340 700 c 1,16,-1
 246 714 l 1,17,-1
 236 712 l 1,18,19
 238 714 238 714 238.5 716 c 128,-1,20
 239 718 239 718 242.5 761.5 c 0,21,22
 249.050906555 842.918410042 249.050906555 842.918410042 281.025453278 955.959205021 c 128,-1,23
 313 1069 313 1069 319 1092 c 128,-1,24
 325 1115 325 1115 332 1137 c 0,25,26
 374.938576779 1271.94981273 374.938576779 1271.94981273 551 1331.5 c 0,27,28
 602.235938641 1348.82980278 602.235938641 1348.82980278 678.117969321 1358.41490139 c 128,-1,29
 754 1368 754 1368 799 1360 c 1,30,-1
 1148 1360 l 1,31,-1
 962 1228 l 1,32,-1
 615 1228 l 1,33,-1
 603 1191 l 2,34,35
 602 1186 602 1186 601.5 1182 c 0,36,37
 597.317757009 1148.54205607 597.317757009 1148.54205607 584.658878505 1111.77102804 c 128,-1,38
 572 1075 572 1075 561.5 1035.5 c 0,39,40
 535.515497553 937.748776509 535.515497553 937.748776509 527 856 c 1,41,42
 635.73540856 894.661478599 635.73540856 894.661478599 689.36770428 901.3307393 c 128,-1,43
 743 908 743 908 776 910.5 c 128,-1,44
 809 913 809 913 841.5 911 c 0,45,46
 996.347656741 901.470913431 996.347656741 901.470913431 1068 778.5 c 0,47,48
 1140.49502015 654.082870828 1140.49502015 654.082870828 1124.5 492 c 0,49,50
 1102.53244818 269.395474868 1102.53244818 269.395474868 936 128 c 0,51,52
 725.381932913 -45.8110262371 725.381932913 -45.8110262371 448 -29 c 0,53,54
 224.019295302 -19.0453020134 224.019295302 -19.0453020134 132 197 c 1,55,-1
 410 306 l 1,0,1
676 87 m 2,56,-1
 670 86 l 2,57,58
 668 85 668 85 671 85.5 c 128,-1,59
 674 86 674 86 676 87 c 2,56,-1
565 776.5 m 2,60,-1
 564 776 l 2,61,62
 565 776 565 776 565 776.5 c 2,60,-1
EndSplineSet
EndChar

StartChar: S
Encoding: 54 54 26
Width: 1147
Flags: W
LayerCount: 2
Fore
SplineSet
235 716 m 1,0,1
 212.9375 782.1875 212.9375 782.1875 305 997 c 0,2,3
 421.213333333 1258.48 421.213333333 1258.48 622 1368 c 0,4,5
 878.543814433 1507.93298969 878.543814433 1507.93298969 1065 1441 c 0,6,7
 1140 1415 1140 1415 1185.5 1361 c 128,-1,8
 1231 1307 1231 1307 1261 1236 c 1,9,-1
 983 1127 l 1,10,11
 902.446640316 1320.32806324 902.446640316 1320.32806324 759 1327 c 1,12,13
 644.96411339 1237.99638118 644.96411339 1237.99638118 563.5 1028 c 0,14,15
 541 970 541 970 532 933.5 c 128,-1,16
 523 897 523 897 516 869.5 c 0,17,18
 505.506666667 828.276190476 505.506666667 828.276190476 526 799 c 1,19,20
 687.626373626 887.894505495 687.626373626 887.894505495 870 896 c 0,21,22
 1041.81042654 903.636018957 1041.81042654 903.636018957 1111 744.5 c 0,23,24
 1147 661.7 1147 661.7 1147 576.85 c 128,-1,25
 1147 492 1147 492 1134.5 432 c 0,26,27
 1075.6738056 149.634266886 1075.6738056 149.634266886 804 23.5 c 0,28,29
 611.074935401 -66.0723514212 611.074935401 -66.0723514212 436 -20 c 0,30,31
 356.530191458 0.913107511046 356.530191458 0.913107511046 313.265095729 38.9565537555 c 128,-1,32
 270 77 270 77 253 109.5 c 128,-1,33
 236 142 236 142 221 192 c 128,-1,34
 206 242 206 242 195 295 c 0,35,36
 170.028735632 415.316091954 170.028735632 415.316091954 176.514367816 478.158045977 c 128,-1,37
 183 541 183 541 198 597.5 c 128,-1,38
 213 654 213 654 224 713 c 1,39,-1
 235 716 l 1,0,1
665 760 m 1,40,41
 577.359183673 699.746938776 577.359183673 699.746938776 548.679591837 689.373469388 c 128,-1,42
 520 679 520 679 504.5 673 c 128,-1,43
 489 667 489 667 472 661 c 1,44,45
 470 650 470 650 468 639.5 c 128,-1,46
 466 629 466 629 459.5 587 c 0,47,48
 448.224946237 514.145806452 448.224946237 514.145806452 508.5 269.5 c 0,49,50
 528.419176058 188.651579531 528.419176058 188.651579531 619 134.5 c 0,51,52
 665 107 665 107 725 99 c 1,53,54
 822.548387097 204.677419355 822.548387097 204.677419355 854 352.5 c 0,55,56
 885.60916442 501.063072776 885.60916442 501.063072776 836 636 c 0,57,58
 807.371428571 712.342857143 807.371428571 712.342857143 731 754 c 0,59,60
 720 760 720 760 708 762 c 1,61,-1
 691 762 l 2,62,63
 677 762 677 762 665 760 c 1,40,41
721 763 m 1,64,-1
 717 763 l 1,65,-1
 721 763 l 1,64,-1
EndSplineSet
EndChar

StartChar: T
Encoding: 55 55 27
Width: 1147
Flags: W
LayerCount: 2
Fore
SplineSet
1030 1173 m 1,0,-1
 1028 1179 l 1,1,2
 1028 1183.8 1028 1183.8 1021 1189.4 c 128,-1,3
 1014 1195 1014 1195 1009 1199 c 0,4,5
 969 1205 969 1205 928.5 1201.5 c 128,-1,6
 888 1198 888 1198 847 1198 c 2,7,-1
 548 1198 l 1,8,9
 525.549618321 1170.26717557 525.549618321 1170.26717557 489 1105 c 1,10,-1
 209 1026 l 1,11,12
 266.186440678 1132.57473035 266.186440678 1132.57473035 325.593220339 1190.78736518 c 128,-1,13
 385 1249 385 1249 482 1288.5 c 128,-1,14
 579 1328 579 1328 682 1333 c 0,15,16
 702 1335 702 1335 722.5 1332.5 c 128,-1,17
 743 1330 743 1330 763 1330 c 2,18,-1
 1033 1330 l 2,19,20
 1059 1330 1059 1330 1101 1334 c 128,-1,21
 1143 1338 1143 1338 1185 1336.5 c 0,22,23
 1289.15175538 1332.78029445 1289.15175538 1332.78029445 1311 1279 c 0,24,25
 1319.49350649 1259.18181818 1319.49350649 1259.18181818 1310.24675325 1233.09090909 c 0,26,27
 1295.90822408 1192.63289631 1295.90822408 1192.63289631 1292.95411204 1181.31644815 c 128,-1,28
 1290 1170 1290 1170 1284.5 1154 c 0,29,30
 1263.45076586 1092.76586433 1263.45076586 1092.76586433 1225.22538293 1040.38293217 c 128,-1,31
 1187 988 1187 988 1152 942.5 c 128,-1,32
 1117 897 1117 897 1073 844.5 c 128,-1,33
 1029 792 1029 792 986.5 739.5 c 0,34,35
 881.328358209 609.582089552 881.328358209 609.582089552 839.164179104 538.291044776 c 0,36,37
 764.550329484 412.134211958 764.550329484 412.134211958 737.275164742 339.067105979 c 128,-1,38
 710 266 710 266 698 228.5 c 128,-1,39
 686 191 686 191 663 158 c 1,40,-1
 394 98 l 1,41,42
 416.75 130.229166667 416.75 130.229166667 432.375 183.614583333 c 0,43,44
 499.950573698 414.497793469 499.950573698 414.497793469 717 679.5 c 0,45,46
 760 732 760 732 803.5 784.5 c 128,-1,47
 847 837 847 837 884 885.5 c 128,-1,48
 921 934 921 934 953.5 978 c 128,-1,49
 986 1022 986 1022 998.5 1056 c 0,50,51
 1033.92746114 1152.3626943 1033.92746114 1152.3626943 1030 1172 c 1,52,-1
 1030 1173 l 1,0,-1
EndSplineSet
EndChar

StartChar: U
Encoding: 56 56 28
Width: 1147
Flags: W
LayerCount: 2
Fore
SplineSet
196.5 256.5 m 128,-1,1
 186 289 186 289 186 329 c 128,-1,2
 186 369 186 369 196 409.5 c 128,-1,3
 206 450 206 450 229.5 499 c 128,-1,4
 253 548 253 548 286 590.5 c 0,5,6
 357.438752784 682.504454343 357.438752784 682.504454343 450 723 c 1,7,8
 459.341463415 758.030487805 459.341463415 758.030487805 431 797 c 0,9,10
 390.095652174 853.243478261 390.095652174 853.243478261 372.047826087 915.12173913 c 128,-1,11
 354 977 354 977 350.5 1006.5 c 0,12,13
 344.270998415 1059.00158479 344.270998415 1059.00158479 382.135499208 1139.50079239 c 128,-1,14
 420 1220 420 1220 469.5 1270 c 128,-1,15
 519 1320 519 1320 579.5 1356 c 0,16,17
 686.899224806 1419.90697674 686.899224806 1419.90697674 846 1454 c 1,18,19
 1000.82254697 1478.08350731 1000.82254697 1478.08350731 1103 1430 c 0,20,21
 1193.48818898 1387.41732283 1193.48818898 1387.41732283 1231 1253 c 0,22,23
 1262.24035608 1150.35311573 1262.24035608 1150.35311573 1240.62017804 1082.17655786 c 128,-1,24
 1219 1014 1219 1014 1187 971 c 128,-1,25
 1155 928 1155 928 1132 905.5 c 1,26,-1
 1080 859 l 1,27,-1
 1055 842 l 1,28,-1
 1082 862 l 2,29,30
 1085 863 1085 863 1083 861.5 c 0,31,32
 1073 854 1073 854 1068.5 850.5 c 128,-1,33
 1064 847 1064 847 1060.5 845 c 128,-1,34
 1057 843 1057 843 1051 836 c 0,35,36
 1037.58823529 820.352941176 1037.58823529 820.352941176 1032 798 c 1,37,38
 1035.16262976 774.280276817 1035.16262976 774.280276817 1054.58131488 750.640138408 c 0,39,40
 1095.46666667 700.866666667 1095.46666667 700.866666667 1104.23333333 685.933333333 c 128,-1,41
 1113 671 1113 671 1123.5 645.5 c 128,-1,42
 1134 620 1134 620 1142.5 592 c 0,43,44
 1162.78729282 525.171270718 1162.78729282 525.171270718 1160.89364641 493.585635359 c 0,45,46
 1145.19882482 231.799216544 1145.19882482 231.799216544 937 93 c 0,47,48
 806.35193133 5.90128755365 806.35193133 5.90128755365 646.5 -24.5 c 0,49,50
 459.844341307 -59.9989289539 459.844341307 -59.9989289539 338 12 c 0,51,52
 270.972222222 52.5694444444 270.972222222 52.5694444444 234 145 c 1,53,-1
 215 200 l 2,54,55
 210.2 216.8 210.2 216.8 208.6 220.4 c 128,-1,0
 207 224 207 224 196.5 256.5 c 128,-1,1
751 686 m 1,56,57
 650.666666667 686 650.666666667 686 600 690 c 1,58,59
 579.310344828 677.068965517 579.310344828 677.068965517 569.655172414 666.034482759 c 128,-1,60
 560 655 560 655 548.5 640.5 c 128,-1,61
 537 626 537 626 520.5 598 c 128,-1,62
 504 570 504 570 492 540 c 0,63,64
 453.655913978 444.139784946 453.655913978 444.139784946 478 363.5 c 0,65,66
 518.197938144 230.344329897 518.197938144 230.344329897 540 197 c 0,67,68
 584 129 584 129 665 106 c 0,69,70
 681 101 681 101 697 100.5 c 128,-1,71
 713 100 713 100 729 99 c 1,72,-1
 735.5 99 l 2,73,74
 762.666666667 99 762.666666667 99 814.333333333 182 c 0,75,76
 911.172930206 337.568126589 911.172930206 337.568126589 859 492 c 0,77,78
 820.410326087 604.260869565 820.410326087 604.260869565 775 647 c 0,79,80
 758 663 758 663 751 686 c 1,56,57
735 836 m 1,81,82
 780 824 780 824 825 821 c 1,83,-1
 853 842 l 1,84,85
 858 848 858 848 867 857 c 128,-1,86
 876 866 876 866 885 876 c 128,-1,87
 894 886 894 886 902 894 c 128,-1,88
 910 902 910 902 913 906 c 2,89,-1
 931 933 l 1,90,91
 933 947 933 947 941.5 959.5 c 128,-1,92
 950 972 950 972 958 995.5 c 128,-1,93
 966 1019 966 1019 965 1064 c 128,-1,94
 964 1109 964 1109 952 1154 c 0,95,96
 912.969162996 1300.36563877 912.969162996 1300.36563877 804 1322.5 c 0,97,98
 772 1329 772 1329 739 1328 c 1,99,-1
 738 1327 l 2,100,101
 736 1326 736 1326 732 1322 c 128,-1,102
 728 1318 728 1318 722.5 1313 c 128,-1,103
 717 1308 717 1308 712.5 1302.5 c 0,104,105
 650.068965517 1226.1954023 650.068965517 1226.1954023 641.5 1160.5 c 0,106,107
 640 1149 640 1149 634 1138 c 1,108,-1
 634 1131 l 1,109,110
 627.427083333 1091.5625 627.427083333 1091.5625 644.213541667 1045.78125 c 128,-1,111
 661 1000 661 1000 670.5 977 c 128,-1,112
 680 954 680 954 690 936.5 c 128,-1,113
 700 919 700 919 709.5 902 c 0,114,115
 731.720338983 862.237288136 731.720338983 862.237288136 735 836 c 1,81,82
1050 839 m 2,116,-1
 1047 837 l 2,117,118
 1048 837 1048 837 1050 839 c 2,116,-1
1050 839 m 1,119,-1
 1051 840 l 1,120,-1
 1050 839 l 1,119,-1
760 1343 m 1,121,-1
 756 1341 l 2,122,123
 760 1343 760 1343 760 1343 c 1,121,-1
EndSplineSet
EndChar

StartChar: V
Encoding: 57 57 29
Width: 1147
Flags: W
LayerCount: 2
Fore
SplineSet
667 103 m 1,0,1
 771.275862069 181.206896552 771.275862069 181.206896552 847 421 c 0,2,3
 884.951807229 541.180722892 884.951807229 541.180722892 891 644 c 1,4,-1
 882 655 l 1,5,6
 635.289570552 527.07607362 635.289570552 527.07607362 464 578 c 0,7,8
 399.855670103 596.865979381 399.855670103 596.865979381 368.927835052 632.432989691 c 0,9,10
 270 746.2 270 746.2 270 898.5 c 0,11,12
 270 1046.77922078 270 1046.77922078 349.5 1181 c 0,13,14
 438.010309278 1330.43298969 438.010309278 1330.43298969 591 1396 c 0,15,16
 872.985673352 1516.85100287 872.985673352 1516.85100287 1033 1429 c 0,17,18
 1141.19490695 1371.12830558 1141.19490695 1371.12830558 1179 1228.5 c 0,19,20
 1255.18116217 941.089251804 1255.18116217 941.089251804 1174 736 c 1,21,22
 1165.62505633 581.063542136 1165.62505633 581.063542136 1093.5 406.5 c 0,23,24
 1015.97831013 218.875040466 1015.97831013 218.875040466 909 131 c 0,25,26
 761.458934517 10.9084350721 761.458934517 10.9084350721 567 -22 c 0,27,28
 431.845289938 -44.8723355489 431.845289938 -44.8723355489 321.5 2 c 0,29,30
 236.090295797 38.2802283342 236.090295797 38.2802283342 183 125.5 c 0,31,32
 176 137 176 137 170 150.5 c 128,-1,33
 164 164 164 164 154 183 c 1,34,-1
 432 292 l 1,35,36
 466.703703704 222.592592593 466.703703704 222.592592593 486.851851852 198.296296296 c 0,37,38
 558.174857143 112.289142857 558.174857143 112.289142857 665 103 c 1,39,-1
 667 103 l 1,0,1
927 791 m 1,40,41
 949.949824971 970.773628938 949.949824971 970.773628938 889 1163 c 0,42,43
 851.629265471 1271.71486408 851.629265471 1271.71486408 755 1315.5 c 0,44,45
 723 1330 723 1330 687 1332 c 1,46,47
 595.642503377 1236.58217019 595.642503377 1236.58217019 565.5 1102.5 c 0,48,49
 534.657131181 965.302411116 534.657131181 965.302411116 582 843 c 0,50,51
 629.198156682 719.760368664 629.198156682 719.760368664 728 700 c 0,52,53
 738 698 738 698 749 698 c 1,54,-1
 775.5 715.5 l 2,55,56
 784 721 784 721 801 732 c 0,57,58
 819.75862069 744.137931034 819.75862069 744.137931034 897 780 c 1,59,-1
 927 791 l 1,40,41
876 652 m 1,60,-1
 877 653 l 1,61,-1
 876 652 l 1,60,-1
EndSplineSet
EndChar

StartChar: W
Encoding: 58 58 30
Width: 573
Flags: W
LayerCount: 2
Fore
SplineSet
336 950 m 0,0,1
 391 1003 391 1003 476 1002 c 128,-1,2
 561 1001 561 1001 603 956 c 128,-1,3
 645 911 645 911 644 830.5 c 128,-1,4
 643 750 643 750 590 694.5 c 128,-1,5
 537 639 537 639 451 639 c 128,-1,6
 365 639 365 639 322 688 c 1,7,8
 276 733 276 733 276 815 c 128,-1,9
 276 897 276 897 336 950 c 0,0,1
182 25 m 0,10,11
 137 70 137 70 137 151.5 c 128,-1,12
 137 233 137 233 194.5 286.5 c 128,-1,13
 252 340 252 340 337 339 c 128,-1,14
 422 338 422 338 464 293 c 128,-1,15
 506 248 506 248 505 167 c 128,-1,16
 504 86 504 86 450.5 31.5 c 128,-1,17
 397 -23 397 -23 311 -23 c 128,-1,18
 225 -23 225 -23 182 25 c 0,10,11
EndSplineSet
EndChar

StartChar: X
Encoding: 59 59 31
Width: 573
Flags: W
LayerCount: 2
Fore
SplineSet
476 258 m 1,0,1
 489.425981873 214.060422961 489.425981873 214.060422961 462 97.5 c 1,2,-1
 455 70.5 l 2,3,4
 452 61 452 61 449.5 52.5 c 128,-1,5
 447 44 447 44 443.5 33.5 c 128,-1,6
 440 23 440 23 436 12 c 128,-1,7
 432 1 432 1 428.5 -9.5 c 0,8,9
 381.461538462 -150.615384615 381.461538462 -150.615384615 237 -271 c 1,10,-1
 9 -289 l 1,11,12
 122.334384858 -197.107255521 122.334384858 -197.107255521 181 18 c 0,13,14
 209.549295775 108.838668374 209.549295775 108.838668374 193 163 c 1,15,-1
 476 258 l 1,0,1
336 950 m 0,16,17
 391 1003 391 1003 476 1002 c 128,-1,18
 561 1001 561 1001 603 956 c 128,-1,19
 645 911 645 911 644 830.5 c 128,-1,20
 643 750 643 750 590 694.5 c 128,-1,21
 537 639 537 639 451 639 c 128,-1,22
 365 639 365 639 322 688 c 1,23,24
 276 733 276 733 276 815 c 128,-1,25
 276 897 276 897 336 950 c 0,16,17
EndSplineSet
EndChar

StartChar: Y
Encoding: 60 60 32
Width: 1229
Flags: W
LayerCount: 2
Fore
SplineSet
1002 64 m 1,0,1
 915 108 915 108 824.5 142.5 c 128,-1,2
 734 177 734 177 644 214 c 1,3,-1
 473 287 l 1,4,5
 455 296 455 296 448 298 c 2,6,-1
 428 306 l 2,7,8
 408 314 408 314 382.5 325 c 128,-1,9
 357 336 357 336 325.5 346 c 128,-1,10
 294 356 294 356 272.5 367 c 0,11,12
 113.657394366 448.268309859 113.657394366 448.268309859 227.5 550 c 0,13,14
 307.517745303 621.505219207 307.517745303 621.505219207 452 664 c 1,15,16
 555 711 555 711 659.5 752 c 128,-1,17
 764 793 764 793 868 838 c 2,18,-1
 929 865 l 1,19,-1
 929.5 865 l 1,20,21
 931 866 931 866 930 865 c 2,22,-1
 991 893 l 1,23,24
 1071.61290323 927.548387097 1071.61290323 927.548387097 1159 956 c 1,25,26
 1154 930 1154 930 1150.5 905.5 c 128,-1,27
 1147 881 1147 881 1143 856 c 1,28,29
 1112.27777778 847.222222222 1112.27777778 847.222222222 1020.13888889 805.611111111 c 128,-1,30
 928 764 928 764 873.5 741 c 128,-1,31
 819 718 819 718 773 700 c 128,-1,32
 727 682 727 682 680 663 c 2,33,-1
 543 605 l 2,34,35
 534.938576034 601.254304135 534.938576034 601.254304135 532.469288017 600.627152067 c 128,-1,36
 530 600 530 600 524 597.5 c 128,-1,37
 518 595 518 595 515 594 c 2,38,-1
 471 577 l 1,39,-1
 464 560 l 1,40,41
 475.347560976 503.262195122 475.347560976 503.262195122 578 471 c 0,42,43
 677.187279152 439.826855124 677.187279152 439.826855124 792.093639576 387.413427562 c 128,-1,44
 907 335 907 335 985.5 302 c 128,-1,45
 1064 269 1064 269 1132.5 243 c 128,-1,46
 1201 217 1201 217 1267 184 c 1,47,-1
 1002 64 l 1,0,1
493 585 m 2,48,-1
 498 587 l 2,49,50
 494 585 494 585 493 585 c 2,48,-1
924 862 m 1,51,-1
 925 863 l 1,52,-1
 924 862 l 1,51,-1
EndSplineSet
EndChar

StartChar: Z
Encoding: 61 61 33
Width: 1229
Flags: W
LayerCount: 2
Fore
SplineSet
434 348 m 1,0,-1
 1260 348 l 1,1,-1
 1074 216 l 1,2,-1
 248 216 l 1,3,-1
 434 348 l 1,0,-1
434 798 m 1,4,-1
 1260 798 l 1,5,-1
 1074 666 l 1,6,-1
 248 666 l 1,7,-1
 434 798 l 1,4,-1
EndSplineSet
EndChar

StartChar: bracketleft
Encoding: 62 62 34
Width: 1229
Flags: W
LayerCount: 2
Fore
SplineSet
458 957 m 1,0,1
 558 915 558 915 655.5 872.5 c 128,-1,2
 753 830 753 830 847.5 790 c 128,-1,3
 942 750 942 750 999 729.5 c 128,-1,4
 1056 709 1056 709 1091.5 697.5 c 128,-1,5
 1127 686 1127 686 1147.5 678.5 c 128,-1,6
 1168 671 1168 671 1186 658 c 0,7,8
 1205.3740458 644.007633588 1205.3740458 644.007633588 1285 556 c 1,9,-1
 1232 535 l 1,10,-1
 1271 544 l 1,11,12
 1261 528 1261 528 1253.5 511.5 c 128,-1,13
 1246 495 1246 495 1225.5 475 c 128,-1,14
 1205 455 1205 455 1166 432 c 128,-1,15
 1127 409 1127 409 1085 389 c 128,-1,16
 1043 369 1043 369 1001 352 c 128,-1,17
 959 335 959 335 873.5 298 c 128,-1,18
 788 261 788 261 652 203.5 c 128,-1,19
 516 146 516 146 379 87 c 1,20,-1
 303 153 l 1,21,-1
 849 387 l 2,22,23
 891 405 891 405 913.5 412 c 128,-1,24
 936 419 936 419 949 424 c 0,25,26
 969.1875 431.764423077 969.1875 431.764423077 991 467 c 1,27,28
 963.5 508.25 963.5 508.25 944 518 c 0,29,30
 858 564 858 564 767.5 597 c 128,-1,31
 677 630 677 630 582.5 670 c 128,-1,32
 488 710 488 710 390.5 752.5 c 128,-1,33
 293 795 293 795 193 837 c 1,34,-1
 458 957 l 1,0,1
EndSplineSet
EndChar

StartChar: backslash
Encoding: 63 63 35
Width: 930
Flags: W
LayerCount: 2
Fore
SplineSet
311 1196 m 1,0,1
 366.909090909 1286.31468531 366.909090909 1286.31468531 423.454545455 1329.65734266 c 128,-1,2
 480 1373 480 1373 534.5 1401.5 c 128,-1,3
 589 1430 589 1430 648.5 1449.5 c 0,4,5
 779.265982113 1492.35607817 779.265982113 1492.35607817 881 1477 c 0,6,7
 943.549019608 1471.31372549 943.549019608 1471.31372549 967.774509804 1457.65686275 c 128,-1,8
 992 1444 992 1444 1012.5 1418.5 c 128,-1,9
 1033 1393 1033 1393 1049.5 1362 c 0,10,11
 1155.41154582 1163.01467149 1155.41154582 1163.01467149 960.5 1010 c 0,12,13
 866.021276596 935.829787234 866.021276596 935.829787234 782 890 c 1,14,-1
 742 867 l 2,15,16
 741 867 741 867 741 866 c 2,17,-1
 756 877 l 1,18,-1
 685 835 l 1,19,-1
 684 834 l 1,20,21
 700 843 700 843 721 853 c 1,22,23
 709 847 709 847 703 842 c 128,-1,24
 697 837 697 837 688.5 830.5 c 128,-1,25
 680 824 680 824 672.5 812.5 c 128,-1,26
 665 801 665 801 655 783.5 c 128,-1,27
 645 766 645 766 638 747.5 c 0,28,29
 608.498127341 669.530765115 608.498127341 669.530765115 649.5 621.5 c 0,30,31
 683.219512195 582 683.219512195 582 733 582 c 2,32,-1
 737 582 l 2,33,34
 749 582 749 582 762 585 c 0,35,36
 781.882352941 589.588235294 781.882352941 589.588235294 836 595 c 1,37,-1
 692 469 l 1,38,-1
 688 466 l 1,39,-1
 665 464 l 1,40,-1
 663 464 l 1,41,42
 413.371517028 414.074303406 413.371517028 414.074303406 351 545.5 c 0,43,44
 337 575 337 575 346 624.5 c 128,-1,45
 355 674 355 674 386.5 727 c 0,46,47
 432.4 804.228571429 432.4 804.228571429 523 856 c 1,48,-1
 527 859 l 1,49,-1
 559 878 l 1,50,-1
 528 859 l 2,51,52
 526 858 526 858 527 859 c 0,53,54
 529 861 529 861 533.5 863.5 c 128,-1,55
 538 866 538 866 540.5 867.5 c 128,-1,56
 543 869 543 869 548.5 872.5 c 0,57,58
 573.8 888.6 573.8 888.6 621.4 915.8 c 128,-1,59
 669 943 669 943 699 964.5 c 0,60,61
 770.408450704 1015.67605634 770.408450704 1015.67605634 785.704225352 1054.33802817 c 128,-1,62
 801 1093 801 1093 804 1117.5 c 128,-1,63
 807 1142 807 1142 803.5 1165.5 c 0,64,65
 794.31884058 1227.14492754 794.31884058 1227.14492754 751.5 1292.5 c 0,66,67
 731.769230769 1322.61538462 731.769230769 1322.61538462 701 1338 c 0,68,69
 699 1338 699 1338 698 1339 c 2,70,-1
 669 1345 l 1,71,-1
 662 1345 l 2,72,73
 659 1345 659 1345 654.5 1346.5 c 0,74,75
 653 1347 653 1347 654 1347 c 0,76,77
 675 1347 675 1347 681.5 1347.5 c 2,78,-1
 673.5 1348 l 1,79,-1
 653 1348 l 1,80,81
 618.823255814 1315.37674419 618.823255814 1315.37674419 580 1256 c 1,82,-1
 311 1196 l 1,0,1
504 340 m 0,83,84
 677.087237027 336.066199158 677.087237027 336.066199158 675 167 c 0,85,86
 674 86 674 86 620.5 31.5 c 128,-1,87
 567 -23 567 -23 481 -23 c 128,-1,88
 395 -23 395 -23 352 25 c 0,89,90
 307 70 307 70 307 151.5 c 128,-1,91
 307 233 307 233 364.5 286.5 c 128,-1,92
 422 340 422 340 504 340 c 0,83,84
703 1375 m 2,93,94
 703.527864045 1375.25348301 703.527864045 1375.25348301 704 1375.5 c 2,95,-1
 703 1375 l 2,93,94
731 860 m 1,96,-1
 732 860.5 l 1,97,-1
 731 860 l 1,96,-1
566 882 m 1,98,-1
 566 881.5 l 1,99,100
 568 882 568 882 566 882 c 1,98,-1
763.5 583.5 m 0,101,102
 765 584 765 584 763.5 584 c 128,-1,103
 762 584 762 584 761.5 583.5 c 1,104,105
 762.591673087 583.408326913 762.591673087 583.408326913 763.5 583.5 c 0,101,102
738 865 m 2,106,-1
 739.5 865.5 l 2,107,108
 739 865 739 865 738 865 c 2,106,-1
721 853 m 1,109,-1
 722 854 l 1,110,-1
 721 853 l 1,109,-1
EndSplineSet
EndChar

StartChar: bracketright
Encoding: 64 64 36
Width: 1696
Flags: W
LayerCount: 2
Fore
SplineSet
1457 69 m 1,0,1
 1257.37037037 -38.962962963 1257.37037037 -38.962962963 1022 -62.5 c 0,2,3
 777.699029126 -86.9300970874 777.699029126 -86.9300970874 573 -7 c 0,4,5
 408.800865801 55.3956709957 408.800865801 55.3956709957 309.5 199 c 0,6,7
 277 246 277 246 261.5 291 c 128,-1,8
 246 336 246 336 236.5 361 c 128,-1,9
 227 386 227 386 221 409.5 c 0,10,11
 178.747368421 574.989473684 178.747368421 574.989473684 227 768 c 0,12,13
 314.676056338 1118.70422535 314.676056338 1118.70422535 644.5 1307.5 c 0,14,15
 869.243555556 1436.14631111 869.243555556 1436.14631111 1119 1458 c 0,16,17
 1306.22494432 1474.38218263 1306.22494432 1474.38218263 1470.5 1414 c 0,18,19
 1658.93842474 1344.73614658 1658.93842474 1344.73614658 1755.5 1176.5 c 0,20,21
 1828.93124464 1048.56308923 1828.93124464 1048.56308923 1830.5 876 c 0,22,23
 1831 821 1831 821 1821.5 780 c 128,-1,24
 1812 739 1812 739 1807 717 c 128,-1,25
 1802 695 1802 695 1796 674.5 c 0,26,27
 1786.43010753 641.802867384 1786.43010753 641.802867384 1755.21505376 584.401433692 c 128,-1,28
 1724 527 1724 527 1680 481.5 c 128,-1,29
 1636 436 1636 436 1583 402 c 0,30,31
 1478.28797084 334.826245443 1478.28797084 334.826245443 1345 314 c 0,32,33
 1264.5 300 1264.5 300 1230.75 300 c 0,34,35
 1093.10344828 300 1093.10344828 300 1084 432 c 1,36,37
 994.545454545 357.454545455 994.545454545 357.454545455 889 334 c 0,38,39
 778.239263804 307.938650307 778.239263804 307.938650307 740.619631902 308.969325153 c 0,40,41
 653.40237467 311.35883905 653.40237467 311.35883905 624 384 c 0,42,43
 600.928571429 447.446428571 600.928571429 447.446428571 603.964285714 492.223214286 c 128,-1,44
 607 537 607 537 612.5 566 c 0,45,46
 636.741438356 693.818493151 636.741438356 693.818493151 689.870719178 785.909246575 c 128,-1,47
 743 878 743 878 793 932 c 0,48,49
 941.287240729 1092.15021999 941.287240729 1092.15021999 1174.5 1133.5 c 0,50,51
 1332.12914798 1161.44843049 1332.12914798 1161.44843049 1404 1093 c 0,52,53
 1405 1092 1405 1092 1411 1086.5 c 128,-1,54
 1417 1081 1417 1081 1422 1075.5 c 0,55,56
 1437 1059 1437 1059 1430 1066 c 1,57,-1
 1419 1067 l 1,58,-1
 1342 1055 l 1,59,60
 1302 1033 1302 1033 1264 1014 c 1,61,-1
 1401 1025 l 1,62,-1
 1450 1041 l 1,63,64
 1455 1052 1455 1052 1462.5 1061 c 128,-1,65
 1470 1070 1470 1070 1470 1058 c 1,66,67
 1457.5 1038 1457.5 1038 1453 1029 c 1,68,-1
 1454 1029 l 1,69,-1
 1453 1028 l 1,70,71
 1441.89298893 934.701107011 1441.89298893 934.701107011 1422.94649446 873.350553506 c 128,-1,72
 1404 812 1404 812 1388 754 c 1,73,-1
 1387 753 l 1,74,75
 1386 723 1386 723 1381 692 c 128,-1,76
 1376 661 1376 661 1371.5 630.5 c 0,77,78
 1353.59060403 509.11409396 1353.59060403 509.11409396 1389 456 c 0,79,80
 1391 454 1391 454 1391.5 452 c 0,81,82
 1392.44444444 448.222222222 1392.44444444 448.222222222 1398.22222222 444.611111111 c 0,83,84
 1410 437.25 1410 437.25 1423 434 c 1,85,86
 1529.43097643 558.169472503 1529.43097643 558.169472503 1545.5 736 c 0,87,88
 1566.21081081 965.19963964 1566.21081081 965.19963964 1429 1139 c 0,89,90
 1314.2309613 1284.37411569 1314.2309613 1284.37411569 1101.5 1322 c 0,91,92
 847.817293702 1366.86905009 847.817293702 1366.86905009 675 1176.5 c 0,93,94
 546.705754901 1035.17587063 546.705754901 1035.17587063 504.5 836.5 c 0,95,96
 462.478927203 638.69348659 462.478927203 638.69348659 519 455 c 0,97,98
 593.651685393 212.382022472 593.651685393 212.382022472 833.5 115 c 0,99,100
 992.460670066 50.4595775674 992.460670066 50.4595775674 1203 71 c 0,101,102
 1271.52857143 77.6857142857 1271.52857143 77.6857142857 1296 94 c 1,103,-1
 1457 69 l 1,0,1
1141.5 791.5 m 128,-1,105
 1153 830 1153 830 1159.5 859 c 128,-1,106
 1166 888 1166 888 1167.5 906.5 c 128,-1,107
 1169 925 1169 925 1171 944 c 1,108,109
 1154.17647059 953.176470588 1154.17647059 953.176470588 1139.08823529 970.588235294 c 128,-1,110
 1124 988 1124 988 1119 990.5 c 128,-1,111
 1114 993 1114 993 1113.5 994 c 0,112,113
 1111.75 997.5 1111.75 997.5 1078 1005 c 1,114,115
 923.207877462 865.687089716 923.207877462 865.687089716 890 619 c 0,116,117
 878.656934307 539.598540146 878.656934307 539.598540146 908 477 c 1,118,119
 915 486 915 486 920.5 495.5 c 128,-1,120
 926 505 926 505 932 515 c 2,121,-1
 946 540 l 1,122,123
 948 546 948 546 951 552 c 2,124,-1
 962 578 l 1,125,126
 982.605633803 621.084507042 982.605633803 621.084507042 1012.3028169 645.042253521 c 0,127,128
 1063.07471965 686.001706485 1063.07471965 686.001706485 1119 715 c 1,129,104
 1130 753 1130 753 1141.5 791.5 c 128,-1,105
1405 436 m 2,130,131
 1410 433 1410 433 1410 434 c 2,132,-1
 1405 436 l 2,130,131
EndSplineSet
EndChar

StartChar: asciicircum
Encoding: 65 65 37
Width: 1417
Flags: W
LayerCount: 2
Fore
SplineSet
1009 541 m 1,0,1
 909.129032258 518.806451613 909.129032258 518.806451613 830 526 c 1,2,-1
 637 522 l 1,3,4
 623 494 623 494 612.5 476.5 c 128,-1,5
 602 459 602 459 591 439.5 c 128,-1,6
 580 420 580 420 563 392 c 128,-1,7
 546 364 546 364 530.5 334.5 c 0,8,9
 492.322775264 261.840120664 492.322775264 261.840120664 488.161387632 230.420060332 c 0,10,11
 479.661083925 166.239532359 479.661083925 166.239532359 471 150 c 1,12,13
 503 130 503 130 535.5 128.5 c 128,-1,14
 568 127 568 127 609 127 c 1,15,-1
 423 -5 l 1,16,17
 374 -5 374 -5 324.5 -4 c 128,-1,18
 275 -3 275 -3 230 17 c 1,19,20
 147.5 -5 147.5 -5 30 -5 c 1,21,-1
 203 118 l 1,22,23
 210.202702703 168.418918919 210.202702703 168.418918919 225.101351351 199.209459459 c 0,24,25
 253.246753247 257.376623377 253.246753247 257.376623377 280.623376623 305.688311688 c 128,-1,26
 308 354 308 354 325 385 c 2,27,-1
 337 406 l 1,28,-1
 351 432 l 2,29,30
 355 440 355 440 358 448.5 c 128,-1,31
 361 457 361 457 367.5 469.5 c 128,-1,32
 374 482 374 482 383 501 c 0,33,34
 409.769230769 557.512820513 409.769230769 557.512820513 448 583 c 1,35,36
 467.12037037 691.348765432 467.12037037 691.348765432 505.060185185 782.174382716 c 128,-1,37
 543 873 543 873 552.5 890.5 c 128,-1,38
 562 908 562 908 567.5 918.5 c 128,-1,39
 573 929 573 929 597.5 977.5 c 128,-1,40
 622 1026 622 1026 664.5 1112 c 128,-1,41
 707 1198 707 1198 743 1254.5 c 128,-1,42
 779 1311 779 1311 802.5 1331 c 128,-1,43
 826 1351 826 1351 844 1361.5 c 2,44,-1
 880 1382 l 1,45,-1
 896 1390 l 2,46,47
 894 1390 894 1390 897.5 1391.5 c 128,-1,48
 901 1393 901 1393 906 1396 c 128,-1,49
 911 1399 911 1399 916.5 1402 c 128,-1,50
 922 1405 922 1405 932 1410.5 c 128,-1,51
 942 1416 942 1416 960 1423.5 c 128,-1,52
 978 1431 978 1431 1002 1442 c 0,53,54
 1068.66666667 1472.55555556 1068.66666667 1472.55555556 1134 1478 c 1,55,-1
 1247 1516 l 1,56,57
 1241 1400 1241 1400 1252.5 1286 c 128,-1,58
 1264 1172 1264 1172 1271.5 1104 c 128,-1,59
 1279 1036 1279 1036 1281 992.5 c 128,-1,60
 1283 949 1283 949 1283 900.5 c 0,61,62
 1283 783.285714286 1283 783.285714286 1270 735 c 1,63,-1
 1274 737 l 1,64,65
 1292.66393443 701.745901639 1292.66393443 701.745901639 1295.33196721 624.37295082 c 128,-1,66
 1298 547 1298 547 1301.5 512.5 c 0,67,68
 1310.19852941 426.757352941 1310.19852941 426.757352941 1314.09926471 365.378676471 c 128,-1,69
 1318 304 1318 304 1322 278 c 128,-1,70
 1326 252 1326 252 1321 224 c 1,71,72
 1326 220 1326 220 1330.5 216 c 128,-1,73
 1335 212 1335 212 1352.5 197 c 128,-1,74
 1370 182 1370 182 1390 166.5 c 128,-1,75
 1410 151 1410 151 1430 142 c 0,76,77
 1463.33333333 127 1463.33333333 127 1538 127 c 1,78,-1
 1352 -5 l 1,79,-1
 1299.5 -5 l 2,80,81
 1189.90909091 -5 1189.90909091 -5 1132 40.5 c 0,82,83
 1125 46 1125 46 1117 51 c 1,84,85
 1091 40 1091 40 1061 31 c 128,-1,86
 1031 22 1031 22 1002 12.5 c 0,87,88
 948.578947368 -5 948.578947368 -5 829 -5 c 1,89,-1
 1015 127 l 1,90,-1
 1030 127 l 1,91,-1
 1039 139 l 1,92,93
 1046.06153846 160.184615385 1046.06153846 160.184615385 1038.03076923 223.092307692 c 128,-1,94
 1030 286 1030 286 1028 320 c 128,-1,95
 1026 354 1026 354 1019 409 c 128,-1,96
 1012 464 1012 464 1009 520 c 1,97,-1
 1009 541 l 1,0,1
729 662 m 1,98,-1
 764 658 l 1,99,-1
 988 658 l 1,100,101
 993 683 993 683 992.5 696.5 c 128,-1,102
 992 710 992 710 993.5 740.5 c 128,-1,103
 995 771 995 771 996.5 805 c 0,104,105
 1000.43925234 894.289719626 1000.43925234 894.289719626 995.219626168 943.644859813 c 128,-1,106
 990 993 990 993 980.5 1072.5 c 128,-1,107
 971 1152 971 1152 966 1233 c 1,108,109
 931 1169 931 1169 899.5 1104 c 128,-1,110
 868 1039 868 1039 846 995 c 128,-1,111
 824 951 824 951 807 910 c 128,-1,112
 790 869 790 869 774 824 c 0,113,114
 736.56 718.7 736.56 718.7 729 662 c 1,98,-1
357 441 m 1,115,-1
 354 436 l 1,116,-1
 357 441 l 1,115,-1
EndSplineSet
EndChar

StartChar: underscore
Encoding: 66 66 38
Width: 1393
Flags: W
LayerCount: 2
Fore
SplineSet
743 1438 m 1,0,1
 906.287846482 1509.74769012 906.287846482 1509.74769012 1029 1491 c 1,2,3
 1188.61363636 1491 1188.61363636 1491 1261.80681818 1462.5 c 128,-1,4
 1335 1434 1335 1434 1377.5 1391.5 c 128,-1,5
 1420 1349 1420 1349 1434.5 1296.5 c 0,6,7
 1494.00811409 1081.03958692 1494.00811409 1081.03958692 1329 932 c 0,8,9
 1259.58695652 869.304347826 1259.58695652 869.304347826 1179 840 c 1,10,-1
 1167 835 l 1,11,-1
 1162 828 l 1,12,13
 1169 817 1169 817 1174 804.5 c 128,-1,14
 1179 792 1179 792 1188 784 c 128,-1,15
 1197 776 1197 776 1205 771.5 c 128,-1,16
 1213 767 1213 767 1226.5 757.5 c 0,17,18
 1268.18248175 728.167883212 1268.18248175 728.167883212 1285.59124088 703.083941606 c 128,-1,19
 1303 678 1303 678 1317 650.5 c 128,-1,20
 1331 623 1331 623 1342 592 c 0,21,22
 1374.93799324 499.174746336 1374.93799324 499.174746336 1354.5 430 c 0,23,24
 1348 408 1348 408 1343 380 c 128,-1,25
 1338 352 1338 352 1323 321.5 c 128,-1,26
 1308 291 1308 291 1287.5 263.5 c 0,27,28
 1172.84266263 109.691376702 1172.84266263 109.691376702 919 42 c 0,29,30
 772.75 3 772.75 3 620 3 c 0,31,32
 486.347826087 3 486.347826087 3 440.173913043 21 c 128,-1,33
 394 39 394 39 368 60 c 1,34,35
 230.352941176 -5 230.352941176 -5 37 -5 c 1,36,-1
 223 127 l 1,37,-1
 281 127 l 1,38,-1
 309 148 l 1,39,-1
 309 155 l 1,40,41
 308 181 308 181 313 206 c 128,-1,42
 318 231 318 231 322 256 c 128,-1,43
 326 281 326 281 328 305 c 128,-1,44
 330 329 330 329 333.5 347.5 c 128,-1,45
 337 366 337 366 340 380 c 128,-1,46
 343 394 343 394 345 408 c 1,47,-1
 380 559 l 1,48,49
 402.166666667 647.666666667 402.166666667 647.666666667 408.583333333 687.833333333 c 128,-1,50
 415 728 415 728 423 769 c 128,-1,51
 431 810 431 810 454 847 c 1,52,-1
 453 847 l 1,53,54
 463 876 463 876 463.5 905.5 c 128,-1,55
 464 935 464 935 475.5 988.5 c 0,56,57
 518.796033994 1189.92067989 518.796033994 1189.92067989 523 1274 c 1,58,59
 504 1283.5 504 1283.5 478.5 1313.25 c 128,-1,60
 453 1343 453 1343 443.5 1351.5 c 128,-1,61
 434 1360 434 1360 421 1363.5 c 128,-1,62
 408 1367 408 1367 394 1368 c 128,-1,63
 380 1369 380 1369 366 1368 c 128,-1,64
 352 1367 352 1367 340 1367 c 1,65,-1
 526 1499 l 1,66,67
 550 1499 550 1499 576.5 1499.5 c 128,-1,68
 603 1500 603 1500 629 1497.5 c 0,69,70
 686.473684211 1491.97368421 686.473684211 1491.97368421 722 1460 c 1,71,-1
 743 1438 l 1,0,1
709 723 m 1,72,73
 705 722 705 722 680 722 c 1,74,-1
 668 672 l 2,75,76
 654 612 654 612 640 553.5 c 128,-1,77
 626 495 626 495 618.5 455 c 128,-1,78
 611 415 611 415 609.5 394 c 0,79,80
 606.736842105 355.315789474 606.736842105 355.315789474 603.368421053 340.157894737 c 128,-1,81
 600 325 600 325 600 321.5 c 128,-1,82
 600 318 600 318 598 316 c 1,83,84
 590.24137931 261.689655172 590.24137931 261.689655172 593.120689655 241.344827586 c 128,-1,85
 596 221 596 221 609.5 204.5 c 128,-1,86
 623 188 623 188 641 175 c 0,87,88
 678.691275168 147.77852349 678.691275168 147.77852349 716 139 c 1,89,90
 787.169811321 130.320754717 787.169811321 130.320754717 926 141 c 0,91,92
 962.988679245 143.845283019 962.988679245 143.845283019 985.494339623 167.422641509 c 128,-1,93
 1008 191 1008 191 1019.5 206 c 128,-1,94
 1031 221 1031 221 1041.5 245 c 128,-1,95
 1052 269 1052 269 1061 297 c 0,96,97
 1081.98342541 362.281767956 1081.98342541 362.281767956 1079.49171271 401.640883978 c 0,98,99
 1074.3571316 482.746772691 1074.3571316 482.746772691 1025 568 c 0,100,101
 1001.74285714 608.171428571 1001.74285714 608.171428571 948 644 c 0,102,103
 905.47826087 672.347826087 905.47826087 672.347826087 892 702 c 1,104,-1
 892 703 l 1,105,106
 887 702 887 702 886 707.5 c 128,-1,107
 885 713 885 713 883 718 c 1,108,109
 868 719 868 719 853 720 c 128,-1,110
 838 721 838 721 822 723 c 1,111,-1
 709 723 l 1,72,73
856 853 m 1,112,113
 859.489795918 854.163265306 859.489795918 854.163265306 912.244897959 856.081632653 c 128,-1,114
 965 858 965 858 993 856 c 1,115,116
 1011 866 1011 866 1029.5 874.5 c 2,117,-1
 1080 898 l 1,118,119
 1165.89263531 985.98757764 1165.89263531 985.98757764 1168 1104 c 0,120,121
 1170.23106728 1228.93976752 1170.23106728 1228.93976752 1074 1304 c 0,122,123
 1015.1147541 1351.8442623 1015.1147541 1351.8442623 902 1357.5 c 0,124,125
 892 1358 892 1358 884.5 1358.5 c 128,-1,126
 877 1359 877 1359 869.5 1359 c 2,127,-1
 816 1359 l 1,128,-1
 806 1351 l 1,129,130
 795.932885906 1214.08724832 795.932885906 1214.08724832 755 1064 c 0,131,132
 745.496350365 1029.15328467 745.496350365 1029.15328467 744.248175182 996.076642336 c 128,-1,133
 743 963 743 963 736 937 c 1,134,135
 791.3 869.85 791.3 869.85 810.65 860.425 c 128,-1,136
 830 851 830 851 837.5 850 c 1,137,138
 819.30940242 852.264639723 819.30940242 852.264639723 814.15470121 853.132319862 c 128,-1,139
 809 854 809 854 812.5 854 c 2,140,-1
 838 852 l 1,141,142
 843 853 843 853 847 853 c 2,143,-1
 856 853 l 1,112,113
863 1390 m 2,144,-1
 858 1388 l 2,145,146
 861 1390 861 1390 863 1390.5 c 128,-1,147
 865 1391 865 1391 863 1390 c 2,144,-1
305 127 m 2,148,149
 306 127 306 127 306.5 127.5 c 2,150,-1
 306 128 l 1,151,-1
 305 127 l 2,148,149
1129 913.5 m 2,152,-1
 1132 914 l 2,153,154
 1130 914 1130 914 1129 913.5 c 2,152,-1
1112 813 m 2,155,156
 1109 813 1109 813 1109 812 c 2,157,-1
 1112 813 l 2,155,156
605 1352 m 1,158,-1
 606 1352 l 1,159,-1
 605 1352 l 1,158,-1
EndSplineSet
EndChar

StartChar: grave
Encoding: 67 67 39
Width: 1352
Flags: W
LayerCount: 2
Fore
SplineSet
1259 1025 m 1,0,-1
 1267 1218 l 2,1,2
 1267 1234 1267 1234 1268 1249.5 c 128,-1,3
 1269 1265 1269 1265 1266 1281 c 1,4,5
 1256 1301 1256 1301 1209 1333 c 0,6,7
 1126.75 1389 1126.75 1389 976 1389 c 0,8,9
 901.2 1389 901.2 1389 870 1383 c 1,10,-1
 848 1378 l 1,11,-1
 847 1378 l 1,12,13
 698.955193483 1308.91242363 698.955193483 1308.91242363 589 1094 c 0,14,15
 457.17699115 830.353982301 457.17699115 830.353982301 487 553 c 0,16,17
 497 460 497 460 534.5 363 c 0,18,19
 613.719262499 158.086174337 613.719262499 158.086174337 826 113 c 0,20,21
 902.352941176 96.0326797386 902.352941176 96.0326797386 1005 112 c 1,22,-1
 1028 117 l 1,23,-1
 1042 123 l 1,24,25
 1044 125 1044 125 1047 126.5 c 128,-1,26
 1050 128 1050 128 1058.5 138 c 128,-1,27
 1067 148 1067 148 1076 171.5 c 128,-1,28
 1085 195 1085 195 1101.5 230 c 0,29,30
 1135.94470046 303.064516129 1135.94470046 303.064516129 1180 411 c 1,31,-1
 1460 490 l 1,32,33
 1389.49180328 318.327868852 1389.49180328 318.327868852 1331 205 c 0,34,35
 1297.94724075 140.960278957 1297.94724075 140.960278957 1155 71.5 c 0,36,37
 886.732529556 -58.8553201451 886.732529556 -58.8553201451 609.5 -18 c 0,38,39
 263.437681808 32.9986574178 263.437681808 32.9986574178 209 435 c 0,40,41
 173.633379104 696.168892772 173.633379104 696.168892772 283.5 959.5 c 0,42,43
 384.546031298 1201.68969406 384.546031298 1201.68969406 579 1341 c 0,44,45
 668.648093842 1405.24780059 668.648093842 1405.24780059 838 1470 c 0,46,47
 1002.72968545 1532.89678899 1002.72968545 1532.89678899 1209.5 1521.5 c 0,48,49
 1460.48651417 1507.66609764 1460.48651417 1507.66609764 1541 1394 c 0,50,51
 1553 1377 1553 1377 1551.5 1354.5 c 128,-1,52
 1550 1332 1550 1332 1550 1313 c 2,53,-1
 1542 1120 l 1,54,55
 1471 1097 1471 1097 1401 1073 c 128,-1,56
 1331 1049 1331 1049 1259 1025 c 1,0,-1
1060 128 m 1,57,58
 1063 129 1063 129 1059.5 128 c 1,59,-1
 1060 128 l 1,57,58
EndSplineSet
EndChar

StartChar: a
Encoding: 68 68 40
Width: 1585
Flags: W
LayerCount: 2
Fore
SplineSet
234 126 m 1,0,-1
 286 127 l 1,1,2
 290 130 290 130 293.5 133 c 128,-1,3
 297 136 297 136 302 138 c 1,4,-1
 302 139 l 1,5,6
 297.5 134.5 297.5 134.5 298.25 136.75 c 128,-1,7
 299 139 299 139 302 141 c 0,8,9
 313 286 313 286 343.5 427.5 c 128,-1,10
 374 569 374 569 408.5 710 c 128,-1,11
 443 851 443 851 474.5 992 c 128,-1,12
 506 1133 506 1133 520 1278 c 1,13,14
 460.875 1339.8125 460.875 1339.8125 430 1360 c 1,15,16
 407 1366 407 1366 385 1366 c 2,17,-1
 340 1366 l 1,18,-1
 526 1498 l 1,19,20
 551 1498 551 1498 577.5 1498.5 c 128,-1,21
 604 1499 604 1499 629.5 1496 c 0,22,23
 688.036437247 1489.11336032 688.036437247 1489.11336032 724 1460 c 1,24,-1
 744 1442 l 1,25,26
 980.910062333 1525.61531612 980.910062333 1525.61531612 1260 1473 c 0,27,28
 1455.10638298 1433.9787234 1455.10638298 1433.9787234 1538.5 1312 c 0,29,30
 1629.48975968 1178.91050077 1629.48975968 1178.91050077 1633 952.5 c 0,31,32
 1637.24165701 678.913122621 1637.24165701 678.913122621 1504.5 458 c 0,33,34
 1303.47208122 123.442587721 1303.47208122 123.442587721 864 24 c 0,35,36
 674.648746446 -19.5507883174 674.648746446 -19.5507883174 458 12 c 0,37,38
 402.732984293 18.3769633508 402.732984293 18.3769633508 362 53 c 1,39,40
 229.696969697 -6 229.696969697 -6 48 -6 c 1,41,-1
 234 126 l 1,0,-1
801 1358 m 1,42,43
 786 1213 786 1213 754 1071.5 c 128,-1,44
 722 930 722 930 687.5 788.5 c 128,-1,45
 653 647 653 647 623 505 c 128,-1,46
 593 363 593 363 584 217 c 1,47,48
 598 209 598 209 608.5 195.5 c 128,-1,49
 619 182 619 182 630.5 170.5 c 0,50,51
 656.482758621 144.517241379 656.482758621 144.517241379 695.74137931 139.75862069 c 128,-1,52
 735 135 735 135 752.5 133.5 c 0,53,54
 933.541480821 117.982158787 933.541480821 117.982158787 1041 182 c 0,55,56
 1123.858458 231.362485616 1123.858458 231.362485616 1211 360 c 0,57,58
 1408.90911188 654.562399077 1408.90911188 654.562399077 1331 1029.5 c 0,59,60
 1272.32146037 1311.89047195 1272.32146037 1311.89047195 994 1349 c 0,61,62
 898.402985075 1361.74626866 898.402985075 1361.74626866 801 1358 c 1,42,43
EndSplineSet
EndChar

StartChar: b
Encoding: 69 69 41
Width: 1274
Flags: W
LayerCount: 2
Fore
SplineSet
386 1363 m 2,0,-1
 362 1362 l 1,1,-1
 338 1362 l 1,2,-1
 524 1494 l 1,3,4
 548 1494 548 1494 574 1495 c 128,-1,5
 600 1496 600 1496 625.5 1493 c 0,6,7
 691.151315789 1485.27631579 691.151315789 1485.27631579 726.5 1446 c 0,8,9
 731 1441 731 1441 736 1436 c 1,10,11
 870.567567568 1498.10810811 870.567567568 1498.10810811 1004.5 1488 c 0,12,13
 1031 1486 1031 1486 1135 1486 c 2,14,-1
 1239 1486 l 2,15,16
 1379 1486 1379 1486 1427 1470 c 128,-1,17
 1475 1454 1475 1454 1489 1436 c 128,-1,18
 1503 1418 1503 1418 1503 1398 c 2,19,-1
 1503 1361 l 2,20,21
 1503 1236.88888889 1503 1236.88888889 1489 1156 c 1,22,-1
 1209 1077 l 1,23,24
 1220 1140.8 1220 1140.8 1220 1165.9 c 2,25,-1
 1220 1277 l 2,26,27
 1220 1321.10526316 1220 1321.10526316 1206.5 1331.05263158 c 0,28,29
 1186.63948498 1345.68669528 1186.63948498 1345.68669528 1147.81974249 1347.84334764 c 128,-1,30
 1109 1350 1109 1350 1101 1350.5 c 128,-1,31
 1093 1351 1093 1351 1083.5 1351.5 c 128,-1,32
 1074 1352 1074 1352 1040.5 1353.5 c 128,-1,33
 1007 1355 1007 1355 952.5 1354 c 128,-1,34
 898 1353 898 1353 844 1354 c 2,35,-1
 804 1355 l 1,36,37
 801 1354 801 1354 797 1350 c 0,38,39
 792 1274 792 1274 777.5 1202.5 c 128,-1,40
 763 1131 763 1131 754.5 1085.5 c 128,-1,41
 746 1040 746 1040 741.5 1024 c 128,-1,42
 737 1008 737 1008 733 992 c 0,43,44
 716.885057471 927.540229885 716.885057471 927.540229885 754.5 891 c 0,45,46
 794.005988024 852.622754491 794.005988024 852.622754491 817 844 c 1,47,48
 864 847 864 847 911 847 c 128,-1,49
 958 847 958 847 1005 846 c 1,50,51
 1025 894 1025 894 1034 944 c 1,52,-1
 1314 1023 l 1,53,54
 1301.75086906 956.186558517 1301.75086906 956.186558517 1270.87543453 893.093279258 c 128,-1,55
 1240 830 1240 830 1226 813 c 1,56,-1
 1226 630 l 1,57,58
 1155 607 1155 607 1085 583 c 128,-1,59
 1015 559 1015 559 943 535 c 1,60,-1
 943 702 l 1,61,62
 912 702 912 702 852 714 c 1,63,-1
 673 714 l 1,64,65
 659 655 659 655 644 597 c 128,-1,66
 629 539 629 539 618.5 491.5 c 128,-1,67
 608 444 608 444 605.5 408 c 128,-1,68
 603 372 603 372 599.5 347.5 c 128,-1,69
 596 323 596 323 592.5 307.5 c 128,-1,70
 589 292 589 292 587 277 c 128,-1,71
 585 262 585 262 585 246.5 c 0,72,73
 585 161.235294118 585 161.235294118 719.5 137.5 c 0,74,75
 767.666666667 129 767.666666667 129 880 129 c 1,76,-1
 960 130 l 1,77,-1
 1029 133 l 1,78,79
 1034 141 1034 141 1037.5 150 c 128,-1,80
 1041 159 1041 159 1056 189.5 c 0,81,82
 1099.80434783 278.56884058 1099.80434783 278.56884058 1133 380 c 1,83,-1
 1413 459 l 1,84,85
 1329.85106383 209.553191489 1329.85106383 209.553191489 1249 119 c 0,86,87
 1241 111 1241 111 1231 105 c 128,-1,88
 1221 99 1221 99 1198.5 83 c 128,-1,89
 1176 67 1176 67 1133 50 c 128,-1,90
 1090 33 1090 33 1045 22 c 0,91,92
 963.181818182 2 963.181818182 2 863 2 c 1,93,94
 828.978021978 -9.34065934066 828.978021978 -9.34065934066 673.989010989 -3.67032967033 c 128,-1,95
 519 2 519 2 485.5 8 c 0,96,97
 407.360338573 21.9951632406 407.360338573 21.9951632406 363 51 c 1,98,99
 228.8 -10 228.8 -10 46 -10 c 1,100,-1
 232 122 l 1,101,-1
 282 122 l 1,102,103
 284 124 284 124 286.5 125 c 128,-1,104
 289 126 289 126 291 128 c 1,105,-1
 290 128 l 1,106,107
 225 89 225 89 305 139 c 1,108,109
 301.121212121 170.03030303 301.121212121 170.03030303 310.560606061 221.015151515 c 128,-1,110
 320 272 320 272 323 306 c 128,-1,111
 326 340 326 340 332 377.5 c 0,112,113
 339.448275862 424.051724138 339.448275862 424.051724138 367.224137931 530.525862069 c 128,-1,114
 395 637 395 637 403 675.5 c 128,-1,115
 411 714 411 714 418 754.5 c 128,-1,116
 425 795 425 795 448 832 c 1,117,118
 439.135135135 867.459459459 439.135135135 867.459459459 451.567567568 909.72972973 c 128,-1,119
 464 952 464 952 473.5 998.5 c 0,120,121
 510.396072013 1179.09656301 510.396072013 1179.09656301 511.698036007 1226.54828151 c 128,-1,122
 513 1274 513 1274 512 1275 c 0,123,124
 494.09009009 1282.67567568 494.09009009 1282.67567568 476.545045045 1304.83783784 c 0,125,126
 442.865921788 1347.37988827 442.865921788 1347.37988827 425 1357 c 0,127,128
 415 1359 415 1359 405.5 1361 c 128,-1,129
 396 1363 396 1363 386 1363 c 2,0,-1
1109 137 m 1,130,131
 1108.20483682 136.75 1108.20483682 136.75 1107.5 136.5 c 1,132,133
 1108 137 1108 137 1109 137 c 1,130,131
954 752 m 1,134,-1
 956 754 l 1,135,-1
 954 752 l 1,134,-1
694 719 m 2,136,137
 693 719 693 719 693 718.5 c 2,138,-1
 694 719 l 2,136,137
567 1331 m 1,139,-1
 568 1331 l 2,140,141
 567 1331 567 1331 567 1331 c 1,139,-1
EndSplineSet
EndChar

StartChar: c
Encoding: 70 70 42
Width: 1198
Flags: W
LayerCount: 2
Fore
SplineSet
622 -2 m 1,0,1
 618 -3 618 -3 561.5 -3 c 128,-1,2
 505 -3 505 -3 463 4 c 128,-1,3
 421 11 421 11 402 27 c 0,4,5
 376.852941176 48.1764705882 376.852941176 48.1764705882 367 60 c 1,6,7
 229.222222222 -2 229.222222222 -2 45 -2 c 1,8,-1
 231 130 l 1,9,-1
 303 130 l 1,10,-1
 309 137 l 1,11,12
 301.982885086 189.628361858 301.982885086 189.628361858 323.991442543 289.314180929 c 128,-1,13
 346 389 346 389 356 435 c 128,-1,14
 366 481 366 481 375.5 534.5 c 128,-1,15
 385 588 385 588 395 630.5 c 0,16,17
 425.705882353 761 425.705882353 761 432.852941176 774.5 c 128,-1,18
 440 788 440 788 442.5 792.5 c 128,-1,19
 445 797 445 797 446 798 c 128,-1,20
 447 799 447 799 448 801 c 2,21,-1
 446 798 l 1,22,-1
 448 800 l 1,23,24
 456 845 456 845 462.5 889.5 c 128,-1,25
 469 934 469 934 476.5 975.5 c 128,-1,26
 484 1017 484 1017 492.5 1053.5 c 128,-1,27
 501 1090 501 1090 505.5 1116.5 c 128,-1,28
 510 1143 510 1143 514 1162 c 128,-1,29
 518 1181 518 1181 521.5 1201.5 c 0,30,31
 530.391489362 1253.5787234 530.391489362 1253.5787234 526 1277 c 1,32,33
 511.559322034 1301.06779661 511.559322034 1301.06779661 479.779661017 1329.03389831 c 128,-1,34
 448 1357 448 1357 438 1363 c 0,35,36
 405.8 1370 405.8 1370 348 1370 c 1,37,-1
 534 1502 l 1,38,-1
 616 1502 l 2,39,40
 687.086956522 1502 687.086956522 1502 723.5 1468.5 c 1,41,-1
 753 1439 l 1,42,43
 872.142857143 1483.67857143 872.142857143 1483.67857143 964.071428571 1491.33928571 c 0,44,45
 1116.45714286 1504.03809524 1116.45714286 1504.03809524 1230.72857143 1496.01904762 c 128,-1,46
 1345 1488 1345 1488 1371 1483.5 c 0,47,48
 1467.13953488 1466.86046512 1467.13953488 1466.86046512 1491 1443 c 1,49,50
 1494 1426 1494 1426 1498 1410 c 128,-1,51
 1502 1394 1502 1394 1502.5 1361.5 c 128,-1,52
 1503 1329 1503 1329 1499.5 1281 c 128,-1,53
 1496 1233 1496 1233 1494 1184 c 1,54,55
 1423 1161 1423 1161 1353 1137 c 128,-1,56
 1283 1113 1283 1113 1211 1089 c 1,57,-1
 1219 1282 l 1,58,59
 1219 1340.5 1219 1340.5 1199 1343 c 0,60,61
 1191 1344 1191 1344 1169.5 1347.5 c 0,62,63
 1063.56363636 1364.74545455 1063.56363636 1364.74545455 979.781818182 1363.87272727 c 0,64,65
 816.340425532 1362.17021277 816.340425532 1362.17021277 808 1358 c 1,66,67
 811.058823529 1327.41176471 811.058823529 1327.41176471 804.529411765 1300.20588235 c 128,-1,68
 798 1273 798 1273 794.5 1251 c 0,69,70
 782.416666667 1175.04761905 782.416666667 1175.04761905 771.708333333 1123.52380952 c 128,-1,71
 761 1072 761 1072 753 1012.5 c 128,-1,72
 745 953 745 953 737 920.5 c 128,-1,73
 729 888 729 888 729 887 c 2,74,-1
 732 888 l 1,75,76
 753 867 753 867 772 843 c 0,77,78
 804.259574468 802.25106383 804.259574468 802.25106383 854.129787234 807.625531915 c 128,-1,79
 904 813 904 813 950.5 813 c 128,-1,80
 997 813 997 813 1045 811 c 1,81,82
 1054 836 1054 836 1061.5 861 c 128,-1,83
 1069 886 1069 886 1078 911 c 1,84,-1
 1358 990 l 1,85,86
 1346 955 1346 955 1334.5 919.5 c 128,-1,87
 1323 884 1323 884 1312 856.5 c 128,-1,88
 1301 829 1301 829 1288 812.5 c 128,-1,89
 1275 796 1275 796 1270.5 779.5 c 128,-1,90
 1266 763 1266 763 1270 749.5 c 128,-1,91
 1274 736 1274 736 1273.5 713 c 128,-1,92
 1273 690 1273 690 1271 659 c 128,-1,93
 1269 628 1269 628 1267 596 c 1,94,95
 1196 573 1196 573 1126 549 c 128,-1,96
 1056 525 1056 525 984 501 c 1,97,98
 991 613 991 613 991 625.5 c 128,-1,99
 991 638 991 638 988.5 650 c 128,-1,100
 986 662 986 662 985 673 c 1,101,102
 921 675 921 675 857.5 678.5 c 128,-1,103
 794 682 794 682 730 680 c 1,104,-1
 669 676 l 1,105,-1
 634 506 l 2,106,107
 628 477 628 477 621 448 c 128,-1,108
 614 419 614 419 608.5 390.5 c 128,-1,109
 603 362 603 362 601 334 c 128,-1,110
 599 306 599 306 596.5 284.5 c 128,-1,111
 594 263 594 263 590.5 249.5 c 128,-1,112
 587 236 587 236 593 225 c 128,-1,113
 599 214 599 214 599.5 213.5 c 0,114,115
 611.58974359 199.307692308 611.58974359 199.307692308 613.794871795 197.653846154 c 128,-1,116
 616 196 616 196 621 191.5 c 128,-1,117
 626 187 626 187 636.5 176.5 c 2,118,-1
 658 155 l 1,119,120
 671.818181818 144.636363636 671.818181818 144.636363636 710 131 c 1,121,122
 730 129 730 129 750.5 129 c 2,123,-1
 807 129 l 1,124,125
 811 130 811 130 815 130 c 2,126,-1
 822 130 l 1,127,-1
 640 1 l 1,128,-1
 659 4 l 1,129,-1
 636 -2 l 1,130,-1
 622 -2 l 1,0,1
665.5 4.5 m 1,131,132
 665.763932023 4.74303398875 665.763932023 4.74303398875 666.881966011 4.87151699437 c 128,-1,133
 668 5 668 5 665.5 4.5 c 1,131,132
449 803 m 1,134,-1
 448 801 l 1,135,-1
 449 803 l 1,134,-1
EndSplineSet
EndChar

StartChar: d
Encoding: 71 71 43
Width: 1487
Flags: W
LayerCount: 2
Fore
SplineSet
1124 696 m 1,0,1
 1139 699 1139 699 1162.5 699 c 128,-1,2
 1186 699 1186 699 1208.5 698 c 128,-1,3
 1231 697 1231 697 1253 692.5 c 128,-1,4
 1275 688 1275 688 1293 680 c 0,5,6
 1323.13636364 666.606060606 1323.13636364 666.606060606 1357 635 c 1,7,8
 1364 637.333333333 1364 637.333333333 1400.5 653.666666667 c 0,9,10
 1477.08872902 687.939248601 1477.08872902 687.939248601 1658 700 c 1,11,-1
 1472 568 l 1,12,-1
 1426 563 l 1,13,14
 1422 561 1422 561 1418.5 559 c 128,-1,15
 1415 557 1415 557 1411 555 c 0,16,17
 1409 550 1409 550 1408 544.5 c 128,-1,18
 1407 539 1407 539 1405 525 c 128,-1,19
 1403 511 1403 511 1403.5 488.5 c 128,-1,20
 1404 466 1404 466 1399 427.5 c 128,-1,21
 1394 389 1394 389 1378.5 336.5 c 128,-1,22
 1363 284 1363 284 1337.5 236.5 c 0,23,24
 1283.33943662 135.612676056 1283.33943662 135.612676056 1195 78 c 0,25,26
 1048.08293839 -17.0639810427 1048.08293839 -17.0639810427 877 -29 c 1,27,-1
 849 -30 l 1,28,-1
 834 -30 l 1,29,-1
 780 -32 l 1,30,31
 523.146341463 -32 523.146341463 -32 409 98 c 0,32,33
 279.8896 245.0424 279.8896 245.0424 265 520.5 c 0,34,35
 252.066189624 759.77549195 252.066189624 759.77549195 352 980 c 0,36,37
 460.248371023 1218.54733614 460.248371023 1218.54733614 679.5 1360 c 128,-1,38
 898.579034255 1501.34131242 898.579034255 1501.34131242 1175 1516 c 0,39,40
 1341.93622449 1524.85267857 1341.93622449 1524.85267857 1479 1469.5 c 0,41,42
 1612.67150726 1415.51727591 1612.67150726 1415.51727591 1610.5 1333 c 0,43,44
 1610 1314 1610 1314 1610 1295 c 2,45,-1
 1610 1116 l 1,46,47
 1539 1093 1539 1093 1469 1069 c 128,-1,48
 1399 1045 1399 1045 1327 1021 c 1,49,-1
 1327 1200 l 1,50,-1
 1325 1258 l 2,51,52
 1325 1260 1325 1260 1323.5 1262.5 c 128,-1,53
 1322 1265 1322 1265 1319 1271 c 0,54,55
 1303.16393443 1302.67213115 1303.16393443 1302.67213115 1269.08196721 1321.33606557 c 128,-1,56
 1235 1340 1235 1340 1207 1352.5 c 128,-1,57
 1179 1365 1179 1365 1140 1373 c 128,-1,58
 1101 1381 1101 1381 1061 1383 c 0,59,60
 921.64 1389.968 921.64 1389.968 863.5 1352.5 c 0,61,62
 805.082568807 1314.85321101 805.082568807 1314.85321101 750 1246 c 0,63,64
 600.031304348 1071.03652174 600.031304348 1071.03652174 558 810 c 0,65,66
 522.064748201 584.805755396 522.064748201 584.805755396 591 378 c 0,67,68
 639.87962963 231.361111111 639.87962963 231.361111111 723 173 c 0,69,70
 814.144578313 110.211512718 814.144578313 110.211512718 925 102 c 1,71,-1
 950.5 100.5 l 2,72,73
 959 100 959 100 965.5 100 c 2,74,-1
 1006 101 l 2,75,76
 1008 102 1008 102 1013.5 102 c 128,-1,77
 1019 102 1019 102 1020 101 c 1,78,79
 1096.96245734 184.959044369 1096.96245734 184.959044369 1118 348 c 0,80,81
 1123 387 1123 387 1123 417.5 c 128,-1,82
 1123 448 1123 448 1131 474 c 1,83,84
 1119 486 1119 486 1107.5 500 c 128,-1,85
 1096 514 1096 514 1083 527 c 0,86,87
 1053 557 1053 557 1023 562 c 2,88,-1
 998.5 565.5 l 2,89,90
 978.2 568.4 978.2 568.4 939 563.5 c 0,91,92
 935 563 935 563 937 564 c 1,93,-1
 927 564 l 1,94,-1
 1108 692 l 1,95,96
 1064.99605939 686.940712869 1064.99605939 686.940712869 1052.5 685 c 1,97,98
 1111.53333333 695.266666667 1111.53333333 695.266666667 1113 696 c 2,99,-1
 1124 696 l 1,0,1
991 81 m 2,100,-1
 990.5 80.5 l 2,101,102
 990.74341649 80.7434164903 990.74341649 80.7434164903 991 81 c 2,100,-1
1319.5 1275.5 m 1,103,-1
 1320 1275 l 1,104,-1
 1319.5 1275.5 l 1,103,-1
EndSplineSet
EndChar

StartChar: e
Encoding: 72 72 44
Width: 1638
Flags: W
LayerCount: 2
Fore
SplineSet
1304.5 1491.5 m 2,0,-1
 1364 1502 l 1,1,-1
 1370 1502 l 1,2,3
 1404.125 1513.375 1404.125 1513.375 1455.0625 1503.1875 c 128,-1,4
 1506 1493 1506 1493 1521 1486 c 0,5,6
 1549.125 1472.875 1549.125 1472.875 1579 1443 c 1,7,8
 1718.5 1505 1718.5 1505 1902 1505 c 1,9,-1
 1716 1373 l 1,10,-1
 1647 1368 l 1,11,12
 1641 1363 1641 1363 1632 1359 c 1,13,14
 1627 1344 1627 1344 1627 1339 c 2,15,-1
 1627 1303 l 2,16,17
 1627 1232.83333333 1627 1232.83333333 1589 1072.91666667 c 0,18,19
 1541.51162791 873.069767442 1541.51162791 873.069767442 1531.25581395 813.034883721 c 128,-1,20
 1521 753 1521 753 1500 729 c 1,21,22
 1494 634 1494 634 1472 543 c 0,23,24
 1470.625 537.3125 1470.625 537.3125 1429 350 c 1,25,26
 1427 329 1427 329 1427 288.833333333 c 128,-1,27
 1427 248.666666667 1427 248.666666667 1416 223 c 1,28,29
 1434 209 1434 209 1448.5 190.5 c 0,30,31
 1486.06666667 142.570114943 1486.06666667 142.570114943 1534 131 c 0,32,33
 1555 129 1555 129 1576 129.5 c 128,-1,34
 1597 130 1597 130 1618 130 c 1,35,-1
 1432 -2 l 1,36,37
 1404 -2 1404 -2 1375 -2.5 c 128,-1,38
 1346 -3 1346 -3 1318 0 c 0,39,40
 1233.68539326 9.03370786517 1233.68539326 9.03370786517 1190 60 c 1,41,42
 1050.5 -2 1050.5 -2 883 -2 c 1,43,-1
 1069 130 l 2,44,45
 1070 130 1070 130 1087 131 c 128,-1,46
 1104 132 1104 132 1114 133.5 c 0,47,48
 1129.88235294 135.882352941 1129.88235294 135.882352941 1138 144 c 1,49,50
 1147 168 1147 168 1147 210.5 c 2,51,-1
 1147 245 l 2,52,53
 1147 276.363636364 1147 276.363636364 1164 346.681818182 c 128,-1,54
 1181 417 1181 417 1191 462.5 c 0,55,56
 1214.77892031 570.694087404 1214.77892031 570.694087404 1218 648 c 1,57,58
 1206 653 1206 653 1197.5 663.5 c 0,59,60
 1162.3164557 706.962025316 1162.3164557 706.962025316 1136 722 c 1,61,-1
 1134 722 l 1,62,-1
 1076 724 l 1,63,-1
 1017 725 l 1,64,-1
 933 724 l 1,65,-1
 834 722 l 2,66,67
 807 722 807 722 780 723 c 128,-1,68
 753 724 753 724 732 722.5 c 128,-1,69
 711 721 711 721 695.5 720 c 128,-1,70
 680 719 680 719 664 717 c 1,71,72
 659.333333333 705.333333333 659.333333333 705.333333333 640.666666667 616.666666667 c 2,73,-1
 610 471 l 2,74,75
 603 437 603 437 595.5 403.5 c 128,-1,76
 588 370 588 370 584 342.5 c 128,-1,77
 580 315 580 315 579 294 c 128,-1,78
 578 273 578 273 574 253 c 0,79,80
 565.438095238 210.19047619 565.438095238 210.19047619 637.5 161.5 c 0,81,82
 673.215544041 137.367875648 673.215544041 137.367875648 707.107772021 133.683937824 c 128,-1,83
 741 130 741 130 773 130 c 1,84,-1
 587 -2 l 1,85,86
 483.5 -2 483.5 -2 450.25 7.5 c 0,87,88
 392.826666667 23.9066666667 392.826666667 23.9066666667 350 57 c 1,89,90
 218.117647059 -2 218.117647059 -2 37 -2 c 1,91,-1
 223 130 l 1,92,93
 269 130 269 130 277 135 c 128,-1,94
 285 140 285 140 289 143 c 1,95,96
 287 166 287 166 291.5 188.5 c 128,-1,97
 296 211 296 211 302.5 259 c 128,-1,98
 309 307 309 307 326 379.5 c 128,-1,99
 343 452 343 452 354.5 506 c 128,-1,100
 366 560 366 560 376.5 599.5 c 128,-1,101
 387 639 387 639 392 673.5 c 0,102,103
 409.235294118 792.423529412 409.235294118 792.423529412 419.117647059 810.211764706 c 2,104,-1
 434 837 l 1,105,106
 430 856 430 856 434.5 881.5 c 2,107,-1
 442 924 l 1,108,109
 453 978 453 978 464.5 1028.5 c 128,-1,110
 476 1079 476 1079 483.5 1114 c 0,111,112
 497.923076923 1181.30769231 497.923076923 1181.30769231 496.961538462 1222.65384615 c 128,-1,113
 496 1264 496 1264 504 1283 c 1,114,115
 495 1293 495 1293 484 1306.5 c 128,-1,116
 473 1320 473 1320 461 1332 c 0,117,118
 431 1362 431 1362 413 1366 c 128,-1,119
 395 1370 395 1370 374.5 1370 c 2,120,-1
 333 1370 l 1,121,-1
 519 1502 l 1,122,123
 559 1502 559 1502 601.5 1501.5 c 128,-1,124
 644 1501 644 1501 670.5 1489 c 0,125,126
 707.965517241 1472.03448276 707.965517241 1472.03448276 735 1445 c 1,127,128
 882.096774194 1505 882.096774194 1505 1057 1505 c 1,129,-1
 871 1373 l 1,130,131
 835 1373 835 1373 799 1370 c 1,132,-1
 785 1362 l 1,133,134
 778.457627119 1352.18644068 778.457627119 1352.18644068 779.228813559 1330.59322034 c 128,-1,135
 780 1309 780 1309 779 1297.5 c 128,-1,136
 778 1286 778 1286 778 1281.5 c 2,137,-1
 775 1264.5 l 1,138,-1
 775 1256 l 1,139,-1
 767 1211 l 2,140,141
 762 1187 762 1187 757.5 1162 c 0,142,143
 748.829268293 1113.82926829 748.829268293 1113.82926829 745 1110 c 1,144,-1
 744 1104.5 l 2,145,146
 744 1105 744 1105 743 1102 c 0,147,148
 743 1091.5 743 1091.5 737.5 1072.25 c 128,-1,149
 732 1053 732 1053 729 1039 c 2,150,-1
 723 1006 l 1,151,-1
 717 963 l 1,152,-1
 716 957 l 1,153,154
 716 902.076923077 716 902.076923077 777.5 859.5 c 0,155,156
 791.222222222 850 791.222222222 850 797 850 c 2,157,-1
 829.5 850 l 2,158,159
 843 850 843 850 870.5 852 c 128,-1,160
 898 854 898 854 937.5 854 c 2,161,-1
 1020 854 l 1,162,163
 1232.89119171 857.32642487 1232.89119171 857.32642487 1276 856 c 1,164,-1
 1286 901 l 2,165,166
 1297 952 1297 952 1308.5 1002 c 128,-1,167
 1320 1052 1320 1052 1328 1087.5 c 0,168,169
 1344 1158.5 1344 1158.5 1344 1171.25 c 2,170,-1
 1344 1235 l 2,171,172
 1344 1257 1344 1257 1352 1278 c 1,173,174
 1335 1292 1335 1292 1321 1311.5 c 0,175,176
 1294.68 1348.16 1294.68 1348.16 1261 1365 c 1,177,-1
 1225 1371 l 1,178,-1
 1204 1371 l 2,179,180
 1199 1371 1199 1371 1188 1370 c 1,181,-1
 1178 1370 l 1,182,-1
 1360 1499 l 1,183,184
 1332.02245865 1495.70852455 1332.02245865 1495.70852455 1304.5 1491.5 c 2,0,-1
1100 117 m 1,185,186
 1089 107 1089 107 1086 104.5 c 128,-1,187
 1083 102 1083 102 1086 103.5 c 128,-1,188
 1089 105 1089 105 1096 110.5 c 128,-1,189
 1103 116 1103 116 1111 122 c 1,190,-1
 1100 117 l 1,185,186
1122 133 m 1,191,-1
 1125 133 l 1,192,193
 1129 136 1129 136 1132.5 138.5 c 128,-1,194
 1136 141 1136 141 1138 143 c 2,195,-1
 1122 133 l 1,191,-1
720 992 m 1,196,197
 719 985 719 985 719.453439099 987.610317298 c 128,-1,198
 719.906878199 990.220634597 719.906878199 990.220634597 720 992 c 1,196,197
1150 718 m 256,199,200
 1151 718 1151 718 1150 718.5 c 0,201,202
 1149.41886117 718.584430585 1149.41886117 718.584430585 1148.5 718.5 c 1,203,204
 1149 718 1149 718 1150 718 c 256,199,200
1241 1374 m 0,205,206
 1242 1373 1242 1373 1244 1373 c 1,207,208
 1242 1374 1242 1374 1240.5 1374.5 c 128,-1,209
 1239 1375 1239 1375 1241 1374 c 0,205,206
783 852 m 1,210,211
 783.449489743 851.800510257 783.449489743 851.800510257 784 851.5 c 1,212,213
 784 852 784 852 783 852 c 1,210,211
1113 128 m 1,214,-1
 1113 127.5 l 1,215,216
 1114 128 1114 128 1113 128 c 1,214,-1
777 1277 m 2,217,218
 776 1276 776 1276 776 1275 c 2,219,-1
 777 1277 l 2,217,218
1609 1347 m 1,220,-1
 1615 1350 l 1,221,-1
 1609 1347 l 1,220,-1
EndSplineSet
EndChar

StartChar: f
Encoding: 73 73 45
Width: 790
Flags: W
LayerCount: 2
Fore
SplineSet
367 1369 m 1,0,-1
 356 1368 l 1,1,-1
 340 1368 l 1,2,-1
 526 1500 l 1,3,-1
 539 1501 l 1,4,5
 569 1501 569 1501 599 1501 c 0,6,7
 684 1501 684 1501 745 1440 c 1,8,9
 890.090909091 1503 890.090909091 1503 1067 1503 c 1,10,-1
 881 1371 l 1,11,12
 846 1371 846 1371 812 1368 c 1,13,-1
 799 1359 l 1,14,15
 794.397260274 1346.7260274 794.397260274 1346.7260274 795.698630137 1334.3630137 c 128,-1,16
 797 1322 797 1322 796 1312 c 1,17,-1
 796 1311 l 1,18,19
 797 1310 797 1310 795.5 1303 c 128,-1,20
 794 1296 794 1296 792.5 1288 c 128,-1,21
 791 1280 791 1280 790.5 1275.5 c 128,-1,22
 790 1271 790 1271 786.5 1251 c 128,-1,23
 783 1231 783 1231 778.5 1203 c 128,-1,24
 774 1175 774 1175 768 1147 c 2,25,-1
 764 1125 l 2,26,27
 750.545454545 1049.65454545 750.545454545 1049.65454545 741.272727273 1011.32727273 c 0,28,29
 723.818181818 939.181818182 723.818181818 939.181818182 712.409090909 887.590909091 c 128,-1,30
 701 836 701 836 690 787.5 c 128,-1,31
 679 739 679 739 665 675.5 c 128,-1,32
 651 612 651 612 634.5 534.5 c 128,-1,33
 618 457 618 457 607.5 409 c 0,34,35
 589.176470588 325.235294118 589.176470588 325.235294118 588.088235294 280.617647059 c 128,-1,36
 587 236 587 236 582 218 c 1,37,-1
 583 219 l 1,38,39
 596 205 596 205 608.5 191.5 c 128,-1,40
 621 178 621 178 634.5 165.5 c 0,41,42
 664.643835616 137.589041096 664.643835616 137.589041096 699 129 c 0,43,44
 720 127 720 127 741 127.5 c 128,-1,45
 762 128 762 128 783 128 c 1,46,-1
 597 -4 l 1,47,48
 573 -4 573 -4 546 -5 c 128,-1,49
 519 -6 519 -6 492.5 -4 c 0,50,51
 409.755102041 2.24489795918 409.755102041 2.24489795918 355 57 c 1,52,53
 211.35483871 -4 211.35483871 -4 48 -4 c 1,54,-1
 234 128 l 1,55,-1
 261.5 128 l 2,56,57
 283 128 283 128 295 134 c 0,58,59
 296 135 296 135 294.5 134 c 128,-1,60
 293 133 293 133 292 133 c 2,61,-1
 298 137 l 2,62,63
 301 140 301 140 304 142 c 0,64,65
 311 165 311 165 310 192.5 c 128,-1,66
 309 220 309 220 314 254 c 0,67,68
 324.604606526 326.111324376 324.604606526 326.111324376 367.802303263 517.555662188 c 128,-1,69
 411 709 411 709 421.5 758.5 c 2,70,-1
 435.5 824.5 l 2,71,72
 439 841 439 841 444.5 864.5 c 128,-1,73
 450 888 450 888 456 916.5 c 128,-1,74
 462 945 462 945 467.5 970.5 c 128,-1,75
 473 996 473 996 477 1014.5 c 128,-1,76
 481 1033 481 1033 484 1054 c 128,-1,77
 487 1075 487 1075 495 1110.5 c 128,-1,78
 503 1146 503 1146 507.5 1176 c 128,-1,79
 512 1206 512 1206 512 1229.5 c 128,-1,80
 512 1253 512 1253 519 1276 c 1,81,82
 507 1285 507 1285 497 1296.5 c 128,-1,83
 487 1308 487 1308 476.5 1320 c 0,84,85
 448.111111111 1352.44444444 448.111111111 1352.44444444 432.055555556 1361.22222222 c 128,-1,86
 416 1370 416 1370 397.5 1369.5 c 128,-1,87
 379 1369 379 1369 367 1369 c 1,0,-1
EndSplineSet
EndChar

StartChar: g
Encoding: 74 74 46
Width: 795
Flags: W
LayerCount: 2
Fore
SplineSet
390 1358 m 2,0,-1
 375 1357 l 1,1,-1
 363 1357 l 1,2,-1
 549 1489 l 1,3,-1
 563 1490 l 1,4,5
 578 1490 578 1490 593 1490.5 c 128,-1,6
 608 1491 608 1491 643 1489.5 c 0,7,8
 710.388059701 1486.6119403 710.388059701 1486.6119403 769 1428 c 1,9,10
 936.225806452 1492 936.225806452 1492 1091 1492 c 1,11,-1
 905 1360 l 1,12,13
 870 1360 870 1360 837 1357 c 1,14,-1
 821 1345 l 1,15,16
 815.789473684 1325.89473684 815.789473684 1325.89473684 816.394736842 1308.94736842 c 128,-1,17
 817 1292 817 1292 816 1281.5 c 128,-1,18
 815 1271 815 1271 815 1267.5 c 128,-1,19
 815 1264 815 1264 815.5 1263 c 128,-1,20
 815.954545455 1262.09090909 815.954545455 1262.09090909 809 1225 c 0,21,22
 789.555555556 1122.22222222 789.555555556 1122.22222222 774.777777778 1061.11111111 c 128,-1,23
 760 1000 760 1000 743 920.5 c 128,-1,24
 726 841 726 841 711.5 775.5 c 128,-1,25
 697 710 697 710 685.5 661.5 c 128,-1,26
 674 613 674 613 663.5 559.5 c 128,-1,27
 653 506 653 506 642 448.5 c 128,-1,28
 631 391 631 391 617.5 334.5 c 0,29,30
 587.525423729 209.050847458 587.525423729 209.050847458 536.762711864 107.025423729 c 0,31,32
 451.981686182 -63.3716995075 451.981686182 -63.3716995075 292 -147.5 c 0,33,34
 101.824120603 -247.506281407 101.824120603 -247.506281407 -80 -254 c 1,35,-1
 100 -125 l 1,36,-1
 101 -125 l 1,37,38
 107.666666667 -121 107.666666667 -121 115.333333333 -121 c 128,-1,39
 123 -121 123 -121 134 -116.5 c 128,-1,40
 145 -112 145 -112 160 -99.5 c 128,-1,41
 175 -87 175 -87 188.5 -72 c 0,42,43
 293.911764706 45.1241830065 293.911764706 45.1241830065 353 334 c 1,44,-1
 469 870 l 2,45,46
 480 919 480 919 492.5 967.5 c 128,-1,47
 505 1016 505 1016 512 1052 c 128,-1,48
 519 1088 519 1088 524.5 1115.5 c 128,-1,49
 530 1143 530 1143 532.5 1168.5 c 128,-1,50
 535 1194 535 1194 535 1217.5 c 128,-1,51
 535 1241 535 1241 543 1264 c 1,52,53
 520 1287 520 1287 499 1310.5 c 128,-1,54
 478 1334 478 1334 461.5 1344.5 c 128,-1,55
 445 1355 445 1355 437 1356.5 c 128,-1,56
 429 1358 429 1358 420.5 1358.5 c 128,-1,57
 412 1359 412 1359 404 1358.5 c 128,-1,58
 396 1358 396 1358 390 1358 c 2,0,-1
EndSplineSet
EndChar

StartChar: h
Encoding: 75 75 47
Width: 1409
Flags: W
LayerCount: 2
Fore
SplineSet
1476 1423 m 1,0,-1
 1503 1427 l 1,1,-1
 1507 1428 l 1,2,3
 1512 1428 1512 1428 1531.5 1434 c 128,-1,4
 1551 1440 1551 1440 1586.5 1446.5 c 128,-1,5
 1622 1453 1622 1453 1658.5 1456.5 c 0,6,7
 1715.85714286 1462 1715.85714286 1462 1801 1462 c 1,8,-1
 1615 1330 l 1,9,10
 1548 1330 1548 1330 1482 1320 c 1,11,12
 1470.45513866 1287.01468189 1470.45513866 1287.01468189 1434.22756933 1254.00734095 c 128,-1,13
 1398 1221 1398 1221 1362.5 1188.5 c 128,-1,14
 1327 1156 1327 1156 1282.5 1110.5 c 128,-1,15
 1238 1065 1238 1065 1200 1028.5 c 128,-1,16
 1162 992 1162 992 1128 967.5 c 128,-1,17
 1094 943 1094 943 1073 913 c 0,18,19
 1045.84 874.2 1045.84 874.2 1035.42 821.6 c 128,-1,20
 1025 769 1025 769 1021.5 748.5 c 128,-1,21
 1018 728 1018 728 1011 708 c 1,22,-1
 1014 709 l 1,23,24
 1093.76292335 499.966131907 1093.76292335 499.966131907 1139.88146168 412.983065954 c 0,25,26
 1275.79943575 156.63144396 1275.79943575 156.63144396 1442 99.5 c 0,27,28
 1490 83 1490 83 1535 72 c 1,29,-1
 1290 -55 l 1,30,-1
 1182.5 -21.5 l 1,31,32
 1071.16227772 11.1140802643 1071.16227772 11.1140802643 968 142.5 c 0,33,34
 873.469068323 262.893167702 873.469068323 262.893167702 800 441 c 0,35,36
 767 521 767 521 736 600 c 1,37,-1
 737 601 l 1,38,-1
 717 607 l 2,39,40
 701 612 701 612 686.5 615.5 c 128,-1,41
 672 619 672 619 655 624 c 1,42,43
 563.209366391 208.242424242 563.209366391 208.242424242 585 174 c 0,44,45
 592.744680851 161.829787234 592.744680851 161.829787234 604.372340426 151.414893617 c 128,-1,46
 616 141 616 141 624 133 c 128,-1,47
 632 125 632 125 654 111 c 0,48,49
 691.714285714 87 691.714285714 87 782 87 c 1,50,-1
 596 -45 l 1,51,52
 478 -45 478 -45 446 -33 c 0,53,54
 386.895522388 -10.8358208955 386.895522388 -10.8358208955 356 12 c 1,55,56
 225.451612903 -45 225.451612903 -45 46 -45 c 1,57,-1
 232 87 l 1,58,-1
 282 87 l 1,59,-1
 297 97 l 1,60,61
 297 107 297 107 299 116 c 128,-1,62
 301 125 301 125 304 155.5 c 128,-1,63
 307 186 307 186 316 234.5 c 128,-1,64
 325 283 325 283 339.5 363.5 c 0,65,66
 379.663870581 586.478729778 379.663870581 586.478729778 431 773 c 1,67,-1
 443 776 l 1,68,69
 433.285714286 809.028571429 433.285714286 809.028571429 445.642857143 853.514285714 c 128,-1,70
 458 898 458 898 464.5 929.5 c 128,-1,71
 471 961 471 961 480.5 1002.5 c 128,-1,72
 490 1044 490 1044 495.5 1072.5 c 0,73,74
 507 1132.09090909 507 1132.09090909 508.521276596 1175.03481625 c 128,-1,75
 510.042553191 1217.9787234 510.042553191 1217.9787234 516 1235 c 1,76,77
 507 1245 507 1245 495.5 1259 c 128,-1,78
 484 1273 484 1273 471.5 1286 c 0,79,80
 439.952380952 1318.80952381 439.952380952 1318.80952381 421.976190476 1322.9047619 c 128,-1,81
 404 1327 404 1327 383.5 1327 c 2,82,-1
 342 1327 l 1,83,-1
 528 1459 l 1,84,85
 568 1459 568 1459 610 1458.5 c 128,-1,86
 652 1458 652 1458 679 1446 c 0,87,88
 715 1430 715 1430 745 1400 c 1,89,90
 892.25 1462 892.25 1462 1066 1462 c 1,91,-1
 880 1330 l 1,92,-1
 846.5 1330 l 2,93,94
 830 1330 830 1330 813 1328 c 0,95,96
 809 1325 809 1325 799 1321 c 1,97,98
 793.666666667 1310.33333333 793.666666667 1310.33333333 791 1297 c 1,99,-1
 791 1296 l 2,100,101
 791 1295 791 1295 790.5 1295 c 128,-1,102
 790 1295 790 1295 790 1294 c 2,103,-1
 790 1272 l 1,104,105
 785.636363636 1184.72727273 785.636363636 1184.72727273 772 1137 c 1,106,-1
 763 1097 l 1,107,-1
 760 1081 l 2,108,109
 760 1080 760 1080 759 1079 c 1,110,-1
 759 1076 l 1,111,112
 757 1062 757 1062 752.5 1045.5 c 128,-1,113
 748 1029 748 1029 744.5 1008 c 128,-1,114
 741 987 741 987 738.5 976 c 128,-1,115
 736 965 736 965 734 955 c 128,-1,116
 732 945 732 945 729.5 935 c 128,-1,117
 727 925 727 925 726 919 c 128,-1,118
 725 913 725 913 722.5 911 c 128,-1,119
 720 909 720 909 720 897 c 128,-1,120
 720 885 720 885 724.5 872.5 c 0,121,122
 738.157894737 834.561403509 738.157894737 834.561403509 778 808 c 1,123,124
 811.295238095 870.428571429 811.295238095 870.428571429 852.647619048 906.214285714 c 128,-1,125
 894 942 894 942 920 964 c 2,126,-1
 938 979 l 1,127,-1
 1032 1072 l 2,128,129
 1048 1088 1048 1088 1058.5 1099 c 128,-1,130
 1069 1110 1069 1110 1079 1119 c 128,-1,131
 1089 1128 1089 1128 1099 1137.5 c 128,-1,132
 1109 1147 1109 1147 1125 1162 c 128,-1,133
 1141 1177 1141 1177 1162 1194 c 128,-1,134
 1183 1211 1183 1211 1194.5 1227 c 128,-1,135
 1206 1243 1206 1243 1209 1258 c 0,136,137
 1211.66666667 1271.33333333 1211.66666667 1271.33333333 1223 1294 c 1,138,139
 1207 1310 1207 1310 1173 1327 c 1,140,-1
 1156 1327 l 1,141,-1
 1342 1459 l 1,142,143
 1423.8 1459 1423.8 1459 1476 1423 c 1,0,-1
739 601 m 1,144,-1
 817 632 l 1,145,-1
 733 603 l 1,146,-1
 739 601 l 1,144,-1
793 1312 m 256,147,148
 793 1314 793 1314 792.683012702 1312.70096189 c 128,-1,149
 792.366025404 1311.40192379 792.366025404 1311.40192379 792.5 1309.5 c 1,150,151
 793 1310 793 1310 793 1312 c 256,147,148
721 903 m 1,152,-1
 721 909 l 1,153,-1
 721 903 l 1,152,-1
749 597 m 2,154,-1
 747 598 l 2,155,156
 747 597 747 597 749 597 c 2,154,-1
EndSplineSet
EndChar

StartChar: i
Encoding: 76 76 48
Width: 1200
Flags: W
LayerCount: 2
Fore
SplineSet
671 -1 m 0,0,1
 448.136363636 -1 448.136363636 -1 365 58 c 1,2,3
 233.46875 -3 233.46875 -3 52 -3 c 1,4,-1
 238 129 l 1,5,6
 250 129 250 129 262 128.5 c 128,-1,7
 274 128 274 128 286 129 c 1,8,-1
 309 145 l 1,9,10
 307 164 307 164 311.5 182 c 128,-1,11
 316 200 316 200 321 240.5 c 0,12,13
 331.546875 325.9296875 331.546875 325.9296875 407.7734375 678.46484375 c 128,-1,14
 484 1031 484 1031 500.5 1112.5 c 128,-1,15
 517 1194 517 1194 520 1280 c 1,16,17
 501.452229299 1291.41401274 501.452229299 1291.41401274 482.72611465 1313.70700637 c 0,18,19
 449.188405797 1353.63285024 449.188405797 1353.63285024 426 1366 c 1,20,-1
 425 1366 l 1,21,22
 381 1374 381 1374 354 1371 c 128,-1,23
 327 1368 327 1368 307 1373 c 1,24,-1
 551 1499 l 1,25,26
 507 1499 507 1499 520.5 1503 c 128,-1,27
 534 1507 534 1507 546.5 1505 c 128,-1,28
 559 1503 559 1503 572 1503 c 2,29,-1
 599.5 1503 l 2,30,31
 683.947368421 1503 683.947368421 1503 717.5 1465.5 c 0,32,33
 726 1456 726 1456 738 1443 c 1,34,35
 873.942857143 1504 873.942857143 1504 1072 1504 c 1,36,-1
 886 1372 l 1,37,-1
 853 1372 l 2,38,39
 837 1372 837 1372 820 1371 c 1,40,41
 804.941176471 1358.76470588 804.941176471 1358.76470588 802 1357 c 1,42,43
 791.375 1184.875 791.375 1184.875 691.5 779.5 c 0,44,45
 675.732186732 715.501228501 675.732186732 715.501228501 664.366093366 654.250614251 c 128,-1,46
 653 593 653 593 643.5 548.5 c 128,-1,47
 634 504 634 504 625.5 464.5 c 128,-1,48
 617 425 617 425 612 395.5 c 0,49,50
 606.677419355 364.096774194 606.677419355 364.096774194 601 313 c 1,51,-1
 593 266 l 1,52,53
 581.178688525 139.906010929 581.178688525 139.906010929 806.5 132 c 0,54,55
 835 131 835 131 857.5 131.5 c 128,-1,56
 880 132 880 132 904.5 132.5 c 128,-1,57
 929 133 929 133 952 135 c 2,58,-1
 990 139 l 1,59,-1
 1005 173 l 1,60,61
 1057 281.333333333 1057 281.333333333 1089 372 c 1,62,-1
 1369 451 l 1,63,64
 1321.76437848 316.378478664 1321.76437848 316.378478664 1277.38218924 234.189239332 c 128,-1,65
 1233 152 1233 152 1214.5 132.5 c 128,-1,66
 1196 113 1196 113 1179 101.5 c 128,-1,67
 1162 90 1162 90 1143 81 c 128,-1,68
 1124 72 1124 72 1105 65 c 128,-1,69
 1086 58 1086 58 1058 47 c 128,-1,70
 1030 36 1030 36 978 26.5 c 128,-1,71
 926 17 926 17 871 11 c 0,72,73
 761 -1 761 -1 671 -1 c 0,0,1
569 1332 m 2,74,75
 577 1340 577 1340 581 1342 c 128,-1,76
 585 1344 585 1344 586 1346 c 1,77,-1
 580 1342 l 1,78,-1
 569 1332 l 2,74,75
562 1327 m 1,79,80
 559 1324 559 1324 559.5 1324.5 c 128,-1,81
 560 1325 560 1325 562 1327 c 1,79,80
564 1328 m 1,82,-1
 565 1329 l 2,83,84
 564 1328 564 1328 564 1328 c 1,82,-1
439 1362 m 2,85,-1
 437 1363 l 2,86,87
 437 1362 437 1362 439 1362 c 2,85,-1
EndSplineSet
EndChar

StartChar: j
Encoding: 77 77 49
Width: 1886
Flags: W
LayerCount: 2
Fore
SplineSet
1370 132 m 2,0,1
 1395 132 1395 132 1400 137 c 1,2,3
 1398 157 1398 157 1402 177.5 c 128,-1,4
 1406 198 1406 198 1413 245 c 128,-1,5
 1420 292 1420 292 1435.5 363 c 128,-1,6
 1451 434 1451 434 1474.5 547.5 c 128,-1,7
 1498 661 1498 661 1531.5 812.5 c 128,-1,8
 1565 964 1565 964 1589 1119 c 1,9,-1
 1559 1064 l 1,10,11
 1435.24528302 834.169811321 1435.24528302 834.169811321 1357.12264151 697.08490566 c 128,-1,12
 1279 560 1279 560 1256 514.5 c 128,-1,13
 1233 469 1233 469 1210 444 c 128,-1,14
 1187 419 1187 419 1166.5 406 c 128,-1,15
 1146 393 1146 393 1122.5 381 c 0,16,17
 1076.90066225 357.715231788 1076.90066225 357.715231788 1032 342 c 1,18,19
 1026.4893617 314.446808511 1026.4893617 314.446808511 1023.24468085 267.723404255 c 128,-1,20
 1020 221 1020 221 1015 185 c 1,21,-1
 732 90 l 1,22,23
 740 145 740 145 744 199 c 128,-1,24
 748 253 748 253 766 306 c 1,25,-1
 808 325 l 1,26,-1
 763 310 l 1,27,28
 755.434782609 378.086956522 755.434782609 378.086956522 728.717391304 519.043478261 c 128,-1,29
 702 660 702 660 686 763.5 c 128,-1,30
 670 867 670 867 653 971 c 2,31,-1
 638 1068 l 1,32,33
 630 1036 630 1036 608.5 929 c 128,-1,34
 587 822 587 822 551 655.5 c 128,-1,35
 515 489 515 489 500 394 c 128,-1,36
 485 299 485 299 484 280.5 c 128,-1,37
 483 262 483 262 480 243 c 0,38,39
 480 185.5 480 185.5 469 158 c 1,40,41
 520.940298507 133.76119403 520.940298507 133.76119403 564.970149254 132.880597015 c 128,-1,42
 609 132 609 132 635 132 c 1,43,-1
 449 0 l 1,44,45
 308.411764706 0 308.411764706 0 245 22 c 1,46,47
 158.692307692 -3.5527136788e-15 158.692307692 -3.5527136788e-15 36 0 c 1,48,-1
 196 113 l 1,49,-1
 198 162 l 1,50,51
 203 218 203 218 213.5 272.5 c 128,-1,52
 224 327 224 327 240.5 415 c 128,-1,53
 257 503 257 503 282.5 621 c 128,-1,54
 308 739 308 739 325 824.5 c 128,-1,55
 342 910 342 910 350.5 959.5 c 128,-1,56
 359 1009 359 1009 369 1050 c 128,-1,57
 379 1091 379 1091 385.5 1124.5 c 128,-1,58
 392 1158 392 1158 398 1182.5 c 128,-1,59
 404 1207 404 1207 406 1220.5 c 128,-1,60
 408 1234 408 1234 410.5 1246.5 c 0,61,62
 418 1284 418 1284 458 1324 c 1,63,64
 418.5 1363.5 418.5 1363.5 410.75 1366.25 c 128,-1,65
 403 1369 403 1369 398 1369.5 c 128,-1,66
 393 1370 393 1370 382.5 1371.5 c 128,-1,67
 372 1373 372 1373 356 1372.5 c 128,-1,68
 340 1372 340 1372 324 1372 c 1,69,-1
 510 1504 l 1,70,71
 529 1504 529 1504 550.5 1504.5 c 128,-1,72
 572 1505 572 1505 594 1504 c 0,73,74
 671.313092979 1500.4857685 671.313092979 1500.4857685 703.5 1465.5 c 0,75,76
 722.464912281 1444.88596491 722.464912281 1444.88596491 738 1435 c 1,77,-1
 747 1435 l 1,78,79
 759 1436 759 1436 773.5 1437.5 c 128,-1,80
 788 1439 788 1439 803 1438.5 c 0,81,82
 880.329317269 1435.92235609 880.329317269 1435.92235609 889.5 1359.5 c 0,83,84
 891 1347 891 1347 893 1333 c 2,85,-1
 928 1115 l 2,86,87
 947 999 947 999 964.5 883 c 128,-1,88
 982 767 982 767 1004 651 c 2,89,-1
 1026 531 l 1,90,91
 1061.63636364 587 1061.63636364 587 1129.81818182 712 c 128,-1,92
 1198 837 1198 837 1216.5 870.5 c 128,-1,93
 1235 904 1235 904 1250 931 c 128,-1,94
 1265 958 1265 958 1281 988 c 128,-1,95
 1297 1018 1297 1018 1315 1051 c 2,96,-1
 1354 1124 l 2,97,98
 1365 1146 1365 1146 1370.5 1160 c 0,99,100
 1410.1455898 1260.91604676 1410.1455898 1260.91604676 1477 1304 c 0,101,102
 1545.25688073 1347.98776758 1545.25688073 1347.98776758 1630.12844037 1383.99388379 c 128,-1,103
 1715 1420 1715 1420 1745.5 1423 c 0,104,105
 1786.16666667 1427 1786.16666667 1427 1801 1427 c 1,106,107
 1936.125 1502.06944444 1936.125 1502.06944444 2158 1507 c 1,108,-1
 1972 1375 l 1,109,-1
 1938 1374 l 1,110,-1
 1906 1372 l 1,111,-1
 1902 1372 l 1,112,-1
 1891 1364 l 1,113,114
 1868.44444444 1146.64646465 1868.44444444 1146.64646465 1838.72222222 1006.32323232 c 128,-1,115
 1809 866 1809 866 1791 786.5 c 128,-1,116
 1773 707 1773 707 1755 627.5 c 0,117,118
 1712.20295203 438.479704797 1712.20295203 438.479704797 1691 308 c 0,119,120
 1691 287 1691 287 1684.5 267.5 c 0,121,122
 1671.48 228.44 1671.48 228.44 1701 194 c 0,123,124
 1702 193 1702 193 1704 191.5 c 128,-1,125
 1706 190 1706 190 1717.5 180.5 c 128,-1,126
 1729 171 1729 171 1747 159 c 128,-1,127
 1765 147 1765 147 1782 141 c 0,128,129
 1807.5 132 1807.5 132 1874 132 c 1,130,-1
 1688 0 l 1,131,-1
 1618.5 0 l 2,132,133
 1530.05882353 0 1530.05882353 0 1457 54 c 1,134,135
 1328.51724138 -4.61852778244e-14 1328.51724138 -4.61852778244e-14 1161 0 c 1,136,-1
 1347 132 l 1,137,-1
 1370 132 l 2,0,1
417 1364.5 m 2,138,-1
 410 1367 l 2,139,140
 413 1366 413 1366 417 1364.5 c 2,138,-1
407 1368 m 1,141,-1
 400 1371 l 1,142,-1
 407 1368 l 1,141,-1
1352 1120 m 1,143,144
 1351 1118 1351 1118 1352 1120 c 129,-1,145
 1353 1122 1353 1122 1354 1123 c 2,146,-1
 1352 1120 l 1,143,144
1352 105 m 2,147,148
 1353 105 1353 105 1353 105.5 c 2,149,-1
 1352 105 l 2,147,148
EndSplineSet
EndChar

StartChar: k
Encoding: 78 78 50
Width: 1517
Flags: W
LayerCount: 2
Fore
SplineSet
404 1367 m 1,0,1
 393.5 1374 393.5 1374 352.5 1374 c 2,2,-1
 316 1374 l 1,3,-1
 502 1506 l 1,4,5
 523 1506 523 1506 546.5 1506.5 c 128,-1,6
 570 1507 570 1507 593 1505.5 c 0,7,8
 675.864160097 1500.09581565 675.864160097 1500.09581565 718.5 1451 c 0,9,10
 750.085714286 1414.62857143 750.085714286 1414.62857143 757.542857143 1411.31428571 c 128,-1,11
 765 1408 765 1408 769 1406 c 1,12,-1
 778.5 1406 l 2,13,14
 849.166666667 1406 849.166666667 1406 886 1338 c 0,15,16
 907.210526316 1298.84210526 907.210526316 1298.84210526 920.105263158 1252.42105263 c 128,-1,17
 933 1206 933 1206 945.5 1171.5 c 128,-1,18
 958 1137 958 1137 977.5 1094.5 c 128,-1,19
 997 1052 997 1052 1022 991.5 c 0,20,21
 1083.57718121 842.483221477 1083.57718121 842.483221477 1120.7885906 747.241610738 c 128,-1,22
 1158 652 1158 652 1177 607 c 128,-1,23
 1196 562 1196 562 1215 517 c 1,24,25
 1276.23076923 761.923076923 1276.23076923 761.923076923 1302.11538462 894.961538462 c 128,-1,26
 1328 1028 1328 1028 1340.5 1091 c 128,-1,27
 1353 1154 1353 1154 1358.5 1197 c 128,-1,28
 1364 1240 1364 1240 1366 1265 c 128,-1,29
 1368 1290 1368 1290 1373.5 1309 c 128,-1,30
 1379 1328 1379 1328 1378 1340 c 1,31,-1
 1378 1343 l 1,32,33
 1355.45454545 1374 1355.45454545 1374 1282 1374 c 2,34,-1
 1225 1374 l 1,35,-1
 1411 1506 l 1,36,-1
 1496 1506 l 2,37,38
 1577.25 1506 1577.25 1506 1626 1480 c 1,39,40
 1728 1506 1728 1506 1832 1506 c 1,41,-1
 1652 1378 l 1,42,43
 1627.68732394 1179.44647887 1627.68732394 1179.44647887 1576.84366197 953.223239437 c 128,-1,44
 1526 727 1526 727 1510.5 653 c 128,-1,45
 1495 579 1495 579 1485 538.5 c 128,-1,46
 1475 498 1475 498 1474 489.5 c 0,47,48
 1473.16 482.36 1473.16 482.36 1468.08 454.68 c 0,49,50
 1454.14763996 378.765093304 1454.14763996 378.765093304 1399 342 c 2,51,-1
 1374 325 l 1,52,-1
 1361 317 l 1,53,-1
 1343 302 l 1,54,-1
 1332 294 l 1,55,-1
 1341 183 l 1,56,57
 1270 160 1270 160 1200 136 c 128,-1,58
 1130 112 1130 112 1058 88 c 1,59,-1
 1048 213 l 1,60,61
 1026 221 1026 221 1015 233.5 c 128,-1,62
 1004 246 1004 246 997.5 259 c 128,-1,63
 991 272 991 272 988.5 281 c 128,-1,64
 986 290 986 290 984.5 291.5 c 128,-1,65
 983 293 983 293 981 299 c 1,66,-1
 981 302 l 1,67,68
 979 306 979 306 979 313 c 128,-1,69
 979 320 979 320 970.5 334 c 128,-1,70
 962 348 962 348 945 393 c 128,-1,71
 928 438 928 438 895 512.5 c 128,-1,72
 862 587 862 587 833.5 662 c 128,-1,73
 805 737 805 737 778 803.5 c 128,-1,74
 751 870 751 870 725 927 c 128,-1,75
 699 984 699 984 688 1014.5 c 128,-1,76
 677 1045 677 1045 673.5 1054 c 128,-1,77
 670 1063 670 1063 665.5 1073 c 128,-1,78
 661 1083 661 1083 657.5 1091.5 c 128,-1,79
 654 1100 654 1100 653 1102 c 0,80,81
 651 1104 651 1104 650.5 1107.5 c 128,-1,82
 650 1111 650 1111 648 1114 c 1,83,84
 622 1003 622 1003 599 893 c 128,-1,85
 576 783 576 783 558.5 701 c 0,86,87
 530.744186047 570.944186047 530.744186047 570.944186047 515.872093023 488.972093023 c 128,-1,88
 501 407 501 407 490.5 353 c 128,-1,89
 480 299 480 299 474.5 261 c 128,-1,90
 469 223 469 223 469 199.5 c 128,-1,91
 469 176 469 176 461 155 c 1,92,93
 512.916403785 131.727129338 512.916403785 131.727129338 556.958201893 130.863564669 c 128,-1,94
 601 130 601 130 627 130 c 1,95,-1
 441 -2 l 1,96,97
 299.444444444 -2 299.444444444 -2 233 21 c 1,98,99
 154.142857143 -2 154.142857143 -2 24 -2 c 1,100,-1
 187 114 l 1,101,102
 189 137 189 137 190.5 159.5 c 128,-1,103
 192 182 192 182 200.5 233.5 c 0,104,105
 237.369163424 456.883754864 237.369163424 456.883754864 295.684581712 704.941877432 c 128,-1,106
 354 953 354 953 370 1036 c 128,-1,107
 386 1119 386 1119 390 1141 c 128,-1,108
 394 1163 394 1163 400 1183.5 c 0,109,110
 413.566371681 1229.85176991 413.566371681 1229.85176991 431.783185841 1249.42588496 c 1,111,-1
 481 1298 l 1,112,113
 466 1310 466 1310 454.5 1325.5 c 0,114,115
 431.180555556 1356.93055556 431.180555556 1356.93055556 405 1367 c 1,116,-1
 404 1367 l 1,0,1
756 1405 m 2,117,118
 755.535898385 1404.97606774 755.535898385 1404.97606774 755 1405 c 2,119,-1
 756 1405 l 2,117,118
1392 338 m 2,120,-1
 1386 334 l 2,121,122
 1390 336 1390 336 1392 338 c 2,120,-1
EndSplineSet
EndChar

StartChar: l
Encoding: 79 79 51
Width: 1484
Flags: W
LayerCount: 2
Fore
SplineSet
988 1511 m 1,0,1
 1076.63636364 1522.36363636 1076.63636364 1522.36363636 1144 1512 c 1,2,3
 1271.02658487 1502.41308793 1271.02658487 1502.41308793 1330.01329243 1460.70654397 c 128,-1,4
 1389 1419 1389 1419 1421 1374.5 c 128,-1,5
 1453 1330 1453 1330 1475 1277.5 c 128,-1,6
 1497 1225 1497 1225 1509.5 1166.5 c 128,-1,7
 1522 1108 1522 1108 1527 1049.5 c 0,8,9
 1560.02518892 663.105289673 1560.02518892 663.105289673 1355.5 349.5 c 0,10,11
 1217.21693414 137.465965689 1217.21693414 137.465965689 996.5 37.5 c 0,12,13
 831.184604545 -37.373788973 831.184604545 -37.373788973 649 -34 c 0,14,15
 367.448217317 -28.7860780985 367.448217317 -28.7860780985 270.5 184.5 c 0,16,17
 139.673627685 472.318019093 139.673627685 472.318019093 250.5 837.5 c 0,18,19
 313.793538169 1046.05739626 313.793538169 1046.05739626 439 1205.5 c 0,20,21
 564.927763015 1365.86113571 564.927763015 1365.86113571 756 1442.5 c 0,22,23
 847 1479 847 1479 944 1502 c 1,24,-1
 988 1511 l 1,0,1
930 1381 m 1,25,26
 902 1381 902 1381 870 1385 c 1,27,-1
 849 1383 l 1,28,29
 839 1380 839 1380 833 1376 c 0,30,31
 712.232 1302.56 712.232 1302.56 617 1124 c 0,32,33
 482 865.637931034 482 865.637931034 482 633 c 0,34,35
 482 470.457142857 482 470.457142857 532.5 330.5 c 0,36,37
 605.19133574 129.041155235 605.19133574 129.041155235 823 100 c 0,38,39
 868 94 868 94 911 102 c 1,40,41
 1065.04126214 204.694174757 1065.04126214 204.694174757 1158.5 418 c 0,42,43
 1268.39279837 668.814151583 1268.39279837 668.814151583 1246.5 914.5 c 0,44,45
 1228.81203962 1112.998222 1228.81203962 1112.998222 1174.5 1217 c 0,46,47
 1122.37671609 1316.81054366 1122.37671609 1316.81054366 1027 1360 c 0,48,49
 1001 1370 1001 1370 977 1374 c 2,50,-1
 935 1380 l 2,51,52
 931 1380 931 1380 923 1380.5 c 1,53,-1
 930 1381 l 1,25,26
EndSplineSet
EndChar

StartChar: m
Encoding: 80 80 52
Width: 1352
Flags: W
LayerCount: 2
Fore
SplineSet
310 142 m 1,0,1
 321 169.5 321 169.5 322 216.75 c 0,2,3
 323.59399684 292.066350711 323.59399684 292.066350711 341.79699842 365.033175355 c 128,-1,4
 360 438 360 438 370.5 479.5 c 128,-1,5
 381 521 381 521 387.5 550 c 128,-1,6
 394 579 394 579 397 598 c 128,-1,7
 400 617 400 617 404.5 636 c 0,8,9
 414.973451327 680.221238938 414.973451327 680.221238938 436 703 c 1,10,11
 441.005988024 794.359281437 441.005988024 794.359281437 472.002994012 928.679640719 c 128,-1,12
 503 1063 503 1063 517.5 1134.5 c 128,-1,13
 532 1206 532 1206 535 1279 c 1,14,15
 511.375 1294.75 511.375 1294.75 494.1875 1315.375 c 0,16,17
 463.590909091 1352.09090909 463.590909091 1352.09090909 441 1365 c 1,18,19
 413.4 1371 413.4 1371 350 1371 c 1,20,-1
 536 1503 l 1,21,22
 560 1503 560 1503 586.5 1504 c 128,-1,23
 613 1505 613 1505 639.5 1502 c 0,24,25
 701.333333333 1495 701.333333333 1495 733 1465 c 1,26,-1
 755 1442 l 1,27,-1
 774 1451 l 1,28,29
 884.127272727 1499.94545455 884.127272727 1499.94545455 1077 1495 c 0,30,31
 1290.31137115 1491.25769524 1290.31137115 1491.25769524 1376.5 1389 c 0,32,33
 1459.85024369 1290.10988037 1459.85024369 1290.10988037 1474 1138 c 0,34,35
 1477.54700855 1091.88888889 1477.54700855 1091.88888889 1459.27350427 1021.44444444 c 128,-1,36
 1441 951 1441 951 1404 891.5 c 128,-1,37
 1367 832 1367 832 1315.5 783 c 128,-1,38
 1264 734 1264 734 1202 696 c 128,-1,39
 1140 658 1140 658 1072 631 c 0,40,41
 867.063683305 549.628227194 867.063683305 549.628227194 651 561 c 0,42,43
 650 560 650 560 645.5 538 c 128,-1,44
 641 516 641 516 629.5 476 c 128,-1,45
 618 436 618 436 612 403 c 128,-1,46
 606 370 606 370 605.5 347 c 128,-1,47
 605 324 605 324 604.5 303 c 0,48,49
 603.301886792 252.679245283 603.301886792 252.679245283 591 225 c 1,50,-1
 594 226 l 1,51,52
 609 211 609 211 622 197 c 128,-1,53
 635 183 635 183 649 170.5 c 0,54,55
 694.36 130 694.36 130 759.5 130 c 2,56,-1
 820 130 l 1,57,58
 824 131 824 131 828 131 c 2,59,-1
 835 131 l 1,60,-1
 653 2 l 1,61,-1
 672 5 l 1,62,-1
 649 -1 l 1,63,64
 645 -1 645 -1 639 -1.5 c 128,-1,65
 633 -2 633 -2 634 -1 c 2,66,-1
 631 -2 l 1,67,68
 605 -5 605 -5 577 -3.5 c 128,-1,69
 549 -2 549 -2 521 -1 c 128,-1,70
 493 0 493 0 471 5 c 128,-1,71
 449 10 449 10 430.5 18.5 c 0,72,73
 399.05 32.95 399.05 32.95 366 66 c 1,74,75
 309 37.5 309 37.5 218 18.25 c 128,-1,76
 127 -1 127 -1 43 -1 c 1,77,-1
 229 131 l 1,78,-1
 295 134 l 1,79,-1
 310 142 l 1,0,1
719 783 m 0,80,81
 718 782 718 782 716 782 c 1,82,83
 729.75 773.25 729.75 773.25 749.375 753.625 c 128,-1,84
 769 734 769 734 778.5 725.5 c 0,85,86
 800.666666667 705.666666667 800.666666667 705.666666667 824 699 c 1,87,88
 947.375722543 687.433526012 947.375722543 687.433526012 1017 706 c 1,89,90
 1073.77572559 749.071240106 1073.77572559 749.071240106 1122.8878628 818.035620053 c 0,91,92
 1227.21485376 964.533953329 1227.21485376 964.533953329 1169 1145 c 0,93,94
 1141.13302449 1235.03176704 1141.13302449 1235.03176704 1103.56651224 1274.01588352 c 0,95,96
 1022.97760291 1357.64588378 1022.97760291 1357.64588378 888 1362 c 0,97,98
 857 1363 857 1363 825 1363 c 1,99,-1
 817 1356 l 1,100,101
 810.746321366 1264.69629194 810.746321366 1264.69629194 779.873160683 1131.84814597 c 128,-1,102
 749 999 749 999 735 927.5 c 128,-1,103
 721 856 721 856 719 783 c 0,80,81
678.5 5.5 m 1,104,105
 678.763932023 5.74303398875 678.763932023 5.74303398875 679.881966011 5.87151699437 c 128,-1,106
 681 6 681 6 678.5 5.5 c 1,104,105
592 1341 m 2,107,-1
 593.5 1341.5 l 2,108,109
 593 1341 593 1341 592 1341 c 2,107,-1
700 755 m 2,110,-1
 698 753 l 2,111,112
 699 755 699 755 700 755.5 c 128,-1,113
 701 756 701 756 700 755 c 2,110,-1
EndSplineSet
EndChar

StartChar: n
Encoding: 81 81 53
Width: 1558
Flags: W
LayerCount: 2
Fore
SplineSet
972.5 -322.5 m 0,0,1
 922 -290 922 -290 891.5 -260 c 128,-1,2
 861 -230 861 -230 846 -214.5 c 128,-1,3
 831 -199 831 -199 817.5 -182 c 0,4,5
 786 -142.333333333 786 -142.333333333 786 -107 c 1,6,7
 754 -97 754 -97 723.5 -82.5 c 128,-1,8
 693 -68 693 -68 671 -57 c 128,-1,9
 649 -46 649 -46 633.5 -39 c 0,10,11
 605.235294118 -26.2352941176 605.235294118 -26.2352941176 602 -23 c 1,12,-1
 563 -11 l 1,13,14
 346.468634686 46.741697417 346.468634686 46.741697417 293 337 c 0,15,16
 286 375 286 375 281.5 410 c 128,-1,17
 277 445 277 445 270 477.5 c 128,-1,18
 263 510 263 510 264.5 560.5 c 0,19,20
 268.627254509 699.450901804 268.627254509 699.450901804 349.5 919.5 c 0,21,22
 423.578337875 1121.0619891 423.578337875 1121.0619891 534 1242 c 0,23,24
 682.495575221 1405.96386431 682.495575221 1405.96386431 908 1478 c 0,25,26
 1108.11133201 1541.92445328 1108.11133201 1541.92445328 1289 1502.5 c 0,27,28
 1488.65269904 1458.98595021 1488.65269904 1458.98595021 1560 1211.5 c 0,29,30
 1623.52475248 991.148514851 1623.52475248 991.148514851 1600 850 c 0,31,32
 1595 820 1595 820 1589 791 c 2,33,-1
 1583 763 l 1,34,-1
 1580 747 l 1,35,-1
 1568 696 l 2,36,37
 1543 593 1543 593 1495.5 477 c 128,-1,38
 1448 361 1448 361 1352 249 c 128,-1,39
 1256 137 1256 137 1122 68 c 1,40,41
 1096.7 19.7 1096.7 19.7 1073 -4 c 1,42,-1
 1069 -11 l 1,43,44
 1074 -49 1074 -49 1100 -79 c 128,-1,45
 1126 -109 1126 -109 1154.5 -136.5 c 128,-1,46
 1183 -164 1183 -164 1219.5 -190.5 c 128,-1,47
 1256 -217 1256 -217 1295.5 -235.5 c 0,48,49
 1380.8276699 -275.463592233 1380.8276699 -275.463592233 1466 -266 c 1,50,-1
 1318 -395 l 1,51,52
 1121.59384079 -418.451481697 1121.59384079 -418.451481697 972.5 -322.5 c 0,0,1
810 117 m 128,-1,54
 835 109 835 109 856.5 100.5 c 0,55,56
 900.716981132 83.0188679245 900.716981132 83.0188679245 920 72 c 1,57,58
 948 90 948 90 978 102 c 1,59,-1
 1003 116 l 1,60,61
 1226.87066975 283.903002309 1226.87066975 283.903002309 1307.5 693.5 c 0,62,63
 1333.35950512 824.866285986 1333.35950512 824.866285986 1323.67975256 891.933142993 c 128,-1,64
 1314 959 1314 959 1303 1014 c 128,-1,65
 1292 1069 1292 1069 1273 1130.5 c 128,-1,66
 1254 1192 1254 1192 1222 1243.5 c 0,67,68
 1127.93284323 1394.88933042 1127.93284323 1394.88933042 926 1382 c 1,69,70
 916 1377 916 1377 903.5 1376 c 128,-1,71
 891 1375 891 1375 882 1368 c 0,72,73
 647.854503464 1199.41524249 647.854503464 1199.41524249 555 730.5 c 0,74,75
 537.388097024 641.559889972 537.388097024 641.559889972 552.694048512 557.779944986 c 128,-1,76
 568 474 568 474 579 419.5 c 0,77,78
 623.997760358 196.556550952 623.997760358 196.556550952 762.5 135 c 0,79,53
 785 125 785 125 810 117 c 128,-1,54
619.5 -29.5 m 2,80,-1
 612 -26 l 2,81,82
 616 -28 616 -28 619.5 -29.5 c 2,80,-1
830 -33 m 1,83,-1
 831 -33 l 1,84,-1
 831 -32 l 1,85,-1
 830 -33 l 1,83,-1
899 1380 m 1,86,-1
 901 1380 l 1,87,-1
 899 1380 l 1,86,-1
EndSplineSet
EndChar

StartChar: o
Encoding: 82 82 54
Width: 1367
Flags: W
LayerCount: 2
Fore
SplineSet
422 793 m 1,0,1
 415.570621469 831.576271186 415.570621469 831.576271186 425.285310734 863.788135593 c 128,-1,2
 435 896 435 896 445.5 940.5 c 0,3,4
 490.671875 1131.94270833 490.671875 1131.94270833 496.3359375 1190.47135417 c 128,-1,5
 502 1249 502 1249 504 1281 c 1,6,7
 485.724137931 1290.13793103 485.724137931 1290.13793103 468.362068966 1312.06896552 c 0,8,9
 435.013215859 1354.1938326 435.013215859 1354.1938326 417.50660793 1362.0969163 c 128,-1,10
 400 1370 400 1370 383.5 1371.5 c 128,-1,11
 367 1373 367 1373 349.5 1373 c 128,-1,12
 332 1373 332 1373 314.5 1372.5 c 128,-1,13
 297 1372 297 1372 282 1375 c 1,14,-1
 524 1501 l 1,15,-1
 515 1504 l 1,16,-1
 535 1502 l 1,17,-1
 560 1502 l 2,18,19
 666.043478261 1502 666.043478261 1502 701 1468.5 c 0,20,21
 713 1457 713 1457 724 1443 c 1,22,23
 846.100880162 1501.39607312 846.100880162 1501.39607312 1055 1496.5 c 0,24,25
 1397.99653095 1488.46101881 1397.99653095 1488.46101881 1445.5 1261.5 c 0,26,27
 1472.47181628 1132.63465553 1472.47181628 1132.63465553 1406 1008 c 0,28,29
 1352.7601683 908.175315568 1352.7601683 908.175315568 1260.5 851 c 0,30,31
 1192.17364017 808.656903766 1192.17364017 808.656903766 1131 786 c 1,32,33
 1115.625 760.375 1115.625 760.375 1159 717 c 0,34,35
 1224.32307692 651.676923077 1224.32307692 651.676923077 1241.5 533 c 0,36,37
 1247 495 1247 495 1251 456 c 0,38,39
 1262.81909548 340.763819095 1262.81909548 340.763819095 1271.90954774 303.881909548 c 0,40,41
 1305.9920572 165.60187739 1305.9920572 165.60187739 1399.5 143.5 c 0,42,43
 1441.37908497 133.60130719 1441.37908497 133.60130719 1462.18954248 132.300653595 c 128,-1,44
 1483 131 1483 131 1491 128 c 1,45,-1
 1474 129 l 1,46,-1
 1289 -2 l 1,47,-1
 1278.5 -2 l 2,48,49
 1025.81818182 -2 1025.81818182 -2 986 217 c 0,50,51
 978 261 978 261 973 307.5 c 0,52,53
 958.18549747 445.274873524 958.18549747 445.274873524 946.592748735 491.637436762 c 128,-1,54
 935 538 935 538 911.5 570.5 c 128,-1,55
 888 603 888 603 870.5 622 c 128,-1,56
 853 641 853 641 845 669 c 1,57,58
 803 670 803 670 762.5 671 c 128,-1,59
 722 672 722 672 680 672 c 1,60,-1
 650 671 l 1,61,62
 579.468421053 373.2 579.468421053 373.2 580.234210526 344.1 c 128,-1,63
 581 315 581 315 580.5 296 c 0,64,65
 579.348 252.224 579.348 252.224 567 224 c 1,66,67
 584 207 584 207 599.5 190 c 128,-1,68
 615 173 615 173 632 156 c 1,69,70
 671.973969631 127.78308026 671.973969631 127.78308026 712.986984816 128.89154013 c 128,-1,71
 754 130 754 130 775 130 c 1,72,-1
 589 -2 l 1,73,74
 561 -2 561 -2 531.5 -2.5 c 128,-1,75
 502 -3 502 -3 472.5 0 c 0,76,77
 381.814814815 9.22222222222 381.814814815 9.22222222222 337 63 c 1,78,79
 178.5625 -2 178.5625 -2 20 -2 c 1,80,-1
 206 130 l 1,81,82
 229 130 229 130 265 134 c 1,83,-1
 270 136 l 1,84,-1
 287 148 l 1,85,86
 298 180 298 180 296.5 213.5 c 128,-1,87
 295 247 295 247 299.5 277.5 c 128,-1,88
 304 308 304 308 310.5 335 c 128,-1,89
 317 362 317 362 326.5 403 c 128,-1,90
 336 444 336 444 349 499 c 128,-1,91
 362 554 362 554 373.5 606 c 128,-1,92
 385 658 385 658 392.5 703.5 c 128,-1,93
 400 749 400 749 422 793 c 1,0,1
786 1358 m 1,94,95
 778.601242236 1248.86832298 778.601242236 1248.86832298 761.300621118 1176.93416149 c 2,96,-1
 719 996 l 2,97,98
 715 982 715 982 711 968 c 128,-1,99
 707 954 707 954 702 927.5 c 0,100,101
 693.930810171 884.733293909 693.930810171 884.733293909 757 824 c 0,102,103
 776.375 807.208333333 776.375 807.208333333 795 801 c 1,104,-1
 808 801 l 1,105,106
 871.25 806.270833333 871.25 806.270833333 953 804 c 1,107,108
 967 812 967 812 979 818 c 2,109,-1
 1043 848 l 1,110,-1
 1067 858 l 1,111,112
 1163.34958341 937.949654317 1163.34958341 937.949654317 1170 1076.5 c 0,113,114
 1176.7024952 1216.1353167 1176.7024952 1216.1353167 1082 1299 c 0,115,116
 1002.83016105 1367.84333821 1002.83016105 1367.84333821 826.5 1362.5 c 0,117,118
 810 1362 810 1362 793 1362 c 1,119,-1
 786 1358 l 1,94,95
1273 0 m 1,120,121
 1275.11882344 -0.415294098442 1275.11882344 -0.415294098442 1278 -1 c 1,122,123
 1276 0 1276 0 1273 0 c 1,120,121
569 1346 m 1,124,-1
 578 1352 l 1,125,-1
 571 1348 l 1,126,-1
 569 1346 l 1,124,-1
EndSplineSet
EndChar

StartChar: p
Encoding: 83 83 55
Width: 1128
Flags: W
LayerCount: 2
Fore
SplineSet
86 223 m 128,-1,1
 86 230 86 230 84 240 c 1,2,-1
 84 248 l 1,3,-1
 81 287 l 1,4,5
 78 366 78 366 78 445 c 1,6,-1
 361 540 l 1,7,8
 361 530 361 530 360.5 510 c 128,-1,9
 360 490 360 490 360.5 464 c 128,-1,10
 361 438 361 438 361.5 409.5 c 128,-1,11
 362 381 362 381 364 354.5 c 0,12,13
 368.933333333 289.133333333 368.933333333 289.133333333 381.966666667 261.066666667 c 0,14,15
 407.37113164 206.359353349 407.37113164 206.359353349 499 154 c 0,16,17
 608.565217391 94 608.565217391 94 715 94 c 0,18,19
 737 94 737 94 761 98 c 1,20,21
 827.867279895 150.683311432 827.867279895 150.683311432 859.5 321.5 c 0,22,23
 892.720756203 500.892083497 892.720756203 500.892083497 733 627.5 c 0,24,25
 673.967720242 674.293880296 673.967720242 674.293880296 592.483860121 722.646940148 c 128,-1,26
 511 771 511 771 477.5 797 c 128,-1,27
 444 823 444 823 419.5 847.5 c 128,-1,28
 395 872 395 872 376 900.5 c 0,29,30
 332.23943662 966.14084507 332.23943662 966.14084507 334.11971831 1018.57042254 c 0,31,32
 343.189073896 1271.4593826 343.189073896 1271.4593826 504.5 1379 c 0,33,34
 636.55033557 1467.03355705 636.55033557 1467.03355705 775.275167785 1494.51677852 c 0,35,36
 1059.35340452 1550.7964292 1059.35340452 1550.7964292 1214.5 1429.5 c 0,37,38
 1274.07685054 1382.92173503 1274.07685054 1382.92173503 1272 1344.5 c 0,39,40
 1271 1326 1271 1326 1272.5 1295.5 c 128,-1,41
 1274 1265 1274 1265 1272 1222 c 128,-1,42
 1270 1179 1270 1179 1270 1135 c 1,43,44
 1199 1112 1199 1112 1129 1088 c 128,-1,45
 1059 1064 1059 1064 987 1040 c 1,46,-1
 989 1214 l 1,47,-1
 989 1240 l 2,48,49
 989 1252 989 1252 987 1265 c 0,50,51
 958.374708353 1324.03966402 958.374708353 1324.03966402 864.5 1358.5 c 0,52,53
 783.848874598 1388.10610932 783.848874598 1388.10610932 711 1379 c 1,54,55
 668.860681115 1340.10216718 668.860681115 1340.10216718 647.930340557 1272.55108359 c 128,-1,56
 627 1205 627 1205 621.5 1159.5 c 128,-1,57
 616 1114 616 1114 625 1074 c 0,58,59
 648.481518482 969.637695638 648.481518482 969.637695638 814.5 868.5 c 0,60,61
 932.831497797 796.412995595 932.831497797 796.412995595 981.415748899 760.706497797 c 128,-1,62
 1030 725 1030 725 1063.5 688.5 c 0,63,64
 1166.12315448 576.686712279 1166.12315448 576.686712279 1147 439 c 0,65,66
 1120.24593128 246.370705244 1120.24593128 246.370705244 1037 158.5 c 0,67,68
 921.886867089 36.991693038 921.886867089 36.991693038 680 -18.5 c 0,69,70
 595 -38 595 -38 509.5 -38 c 0,71,72
 279.142857143 -38 279.142857143 -38 149.5 99.5 c 0,73,74
 103.658536585 148.119733925 103.658536585 148.119733925 97.3292682927 170.559866962 c 128,-1,75
 91 193 91 193 88.5 204.5 c 128,-1,0
 86 216 86 216 86 223 c 128,-1,1
790 106 m 256,76,77
 789 106 789 106 789 105 c 1,78,79
 791 106 791 106 790 106 c 256,76,77
EndSplineSet
EndChar

StartChar: q
Encoding: 84 84 56
Width: 1261
Flags: W
LayerCount: 2
Fore
SplineSet
435 134 m 1,0,1
 456 134 456 134 459 133 c 1,2,-1
 509 133 l 1,3,-1
 530 148 l 1,4,5
 528 165 528 165 531.5 182.5 c 128,-1,6
 535 200 535 200 540 241 c 128,-1,7
 545 282 545 282 560 341.5 c 128,-1,8
 575 401 575 401 592 495.5 c 128,-1,9
 609 590 609 590 638.5 713.5 c 128,-1,10
 668 837 668 837 690.5 940.5 c 128,-1,11
 713 1044 713 1044 732 1124 c 128,-1,12
 751 1204 751 1204 758 1288 c 1,13,14
 740 1308 740 1308 722 1328.5 c 128,-1,15
 704 1349 704 1349 686 1360 c 128,-1,16
 668 1371 668 1371 652 1368.5 c 128,-1,17
 636 1366 636 1366 621 1366 c 2,18,-1
 508 1362 l 1,19,20
 483 1313 483 1313 468.5 1260 c 128,-1,21
 454 1207 454 1207 436 1156 c 1,22,-1
 156 1077 l 1,23,24
 174 1129 174 1129 190.5 1180 c 128,-1,25
 207 1231 207 1231 221 1267 c 128,-1,26
 235 1303 235 1303 246 1321.5 c 128,-1,27
 257 1340 257 1340 267 1360 c 1,28,-1
 429 1458 l 1,29,30
 569.470914127 1491.20221607 569.470914127 1491.20221607 662.235457064 1494.10110803 c 128,-1,31
 755 1497 755 1497 797.5 1498 c 0,32,33
 907.808988764 1500.59550562 907.808988764 1500.59550562 935.404494382 1486.79775281 c 128,-1,34
 963 1473 963 1473 983 1459 c 1,35,36
 1108.22847302 1513.34443169 1108.22847302 1513.34443169 1202 1498 c 1,37,-1
 1362 1498 l 2,38,39
 1574.76315789 1498 1574.76315789 1498 1567.5 1406 c 0,40,41
 1566 1387 1566 1387 1566 1370 c 1,42,-1
 1553 1172 l 1,43,44
 1482 1149 1482 1149 1412 1125 c 128,-1,45
 1342 1101 1342 1101 1270 1077 c 1,46,47
 1270 1109 1270 1109 1273.5 1141 c 128,-1,48
 1277 1173 1277 1173 1280.5 1205.5 c 0,49,50
 1288.89617486 1283.46448087 1288.89617486 1283.46448087 1281 1334 c 1,51,52
 1259.616 1362.512 1259.616 1362.512 1196 1364.5 c 0,53,54
 1180 1365 1180 1365 1167 1366 c 1,55,-1
 1039 1364 l 1,56,57
 1029.89836066 1266.15737705 1029.89836066 1266.15737705 1011 1194 c 1,58,-1
 993 1117 l 1,59,-1
 990.5 1104.5 l 2,60,61
 988 1095.33333333 988 1095.33333333 986.857142857 1088.30952381 c 128,-1,62
 985.714285714 1081.28571429 985.714285714 1081.28571429 983.857142857 1075.64285714 c 0,63,64
 980.074074074 1064.14814815 980.074074074 1064.14814815 980 1064 c 1,65,66
 981 1082 981 1082 981 1082.5 c 2,67,-1
 977.5 1057.5 l 2,68,69
 976 1047 976 1047 975 1042 c 2,70,-1
 867 547 l 2,71,72
 856 495 856 495 843 444 c 128,-1,73
 830 393 830 393 823 340 c 1,74,-1
 814 286 l 1,75,-1
 814 285 l 2,76,77
 813.96875 284 813.96875 284 813.984375 282.5 c 128,-1,78
 814 281 814 281 811 266 c 1,79,-1
 811 241 l 1,80,81
 812 222 812 222 824.5 209.5 c 128,-1,82
 837 197 837 197 854.5 182 c 128,-1,83
 872 167 872 167 894 156.5 c 128,-1,84
 916 146 916 146 939 141 c 0,85,86
 971.2 134 971.2 134 1041 134 c 1,87,-1
 855 2 l 1,88,-1
 777 2 l 2,89,90
 667 2 667 2 587 62 c 1,91,92
 456.285714286 1 456.285714286 1 339.5 1 c 2,93,-1
 262 1 l 2,94,95
 242 1 242 1 234.5 2.5 c 0,96,97
 232 3 232 3 234 3 c 2,98,-1
 250 3 l 1,99,-1
 435 134 l 1,0,1
815 291 m 1,100,-1
 817 301 l 1,101,-1
 815 291 l 1,100,-1
813 280 m 1,102,103
 813.098469228 281.651530772 813.098469228 281.651530772 813.5 283 c 1,104,105
 813 282 813 282 813 280 c 1,102,103
EndSplineSet
EndChar

StartChar: r
Encoding: 85 85 57
Width: 1461
Flags: W
LayerCount: 2
Fore
SplineSet
228 1363 m 1,0,-1
 214 1362 l 1,1,-1
 211 1362 l 1,2,3
 208 1361 208 1361 205.5 1361.5 c 128,-1,4
 203 1362 203 1362 200 1362 c 1,5,-1
 386 1494 l 1,6,7
 391 1494 391 1494 399 1495 c 2,8,-1
 437 1496 l 1,9,10
 537.311852704 1500.09436133 537.311852704 1500.09436133 602 1439 c 0,11,12
 603 1438 603 1438 603.5 1437 c 128,-1,13
 604 1436 604 1436 606 1435 c 0,14,15
 703.028089888 1478.12359551 703.028089888 1478.12359551 749.514044944 1485.06179775 c 128,-1,16
 796 1492 796 1492 819 1493.5 c 128,-1,17
 842 1495 842 1495 850 1496 c 0,18,19
 866 1498 866 1498 878.5 1498 c 2,20,-1
 897 1498 l 1,21,22
 921.166666667 1502.83333333 921.166666667 1502.83333333 925 1499 c 1,23,-1
 939 1499 l 1,24,-1
 753 1367 l 1,25,-1
 736 1366 l 1,26,-1
 716 1366 l 1,27,-1
 684 1365 l 1,28,-1
 680 1364 l 1,29,-1
 663 1363 l 1,30,31
 663 1355 663 1355 662 1351 c 1,32,-1
 644 1336 l 1,33,-1
 386 1264 l 1,34,-1
 380 1269 l 1,35,-1
 381 1278 l 1,36,-1
 641 1366 l 1,37,38
 396.775280899 1301.73033708 396.775280899 1301.73033708 409.5 1317 c 0,39,40
 412.333333333 1320.4 412.333333333 1320.4 426.166666667 1328.7 c 128,-1,41
 440 1337 440 1337 449.5 1344 c 0,42,43
 528.503225806 1402.21290323 528.503225806 1402.21290323 606 1435 c 1,44,45
 616 1425 616 1425 625 1415 c 128,-1,46
 634 1405 634 1405 644 1394 c 2,47,-1
 658 1379 l 2,48,49
 660 1377 660 1377 663.5 1375 c 128,-1,50
 667 1373 667 1373 665.5 1372.5 c 128,-1,51
 664 1372 664 1372 664 1370.5 c 128,-1,52
 664 1369 664 1369 663.5 1368 c 128,-1,53
 663 1367 663 1367 663 1365 c 1,54,55
 665 1366 665 1366 665.5 1365.5 c 128,-1,56
 666 1365 666 1365 681 1371 c 2,57,-1
 712.5 1383.5 l 2,58,59
 705.428571429 1381.14285714 705.428571429 1381.14285714 686 1369 c 1,60,-1
 662 1351 l 1,61,62
 649.01744186 1182.22674419 649.01744186 1182.22674419 576 894 c 0,63,64
 493.596813725 568.724264706 493.596813725 568.724264706 497 436 c 0,65,66
 504.006139401 211.803539184 504.006139401 211.803539184 645 136.5 c 0,67,68
 731.32172471 90.3963515755 731.32172471 90.3963515755 860 107 c 1,69,70
 977.875469925 184.747650376 977.875469925 184.747650376 1034.5 387.5 c 0,71,72
 1072.6960961 524.266666667 1072.6960961 524.266666667 1104.84804805 676.133333333 c 128,-1,73
 1137 828 1137 828 1159.5 926.5 c 0,74,75
 1215.04247613 1169.65261771 1215.04247613 1169.65261771 1220 1275 c 1,76,77
 1207 1282 1207 1282 1197 1293 c 128,-1,78
 1187 1304 1187 1304 1177 1315 c 0,79,80
 1150.6 1344.04 1150.6 1344.04 1129 1357 c 1,81,82
 1111 1363 1111 1363 1088.5 1363 c 128,-1,83
 1066 1363 1066 1363 1055 1362 c 1,84,-1
 1045 1362 l 1,85,-1
 1231 1494 l 1,86,-1
 1257 1495 l 1,87,88
 1384.83306581 1491.80417335 1384.83306581 1491.80417335 1425 1454 c 1,89,-1
 1442 1436 l 1,90,91
 1580.58823529 1498 1580.58823529 1498 1715 1498 c 0,92,93
 1723 1498 1723 1498 1738.07142857 1500.21428571 c 128,-1,94
 1753.14285714 1502.42857143 1753.14285714 1502.42857143 1760 1499 c 1,95,-1
 1773 1499 l 1,96,-1
 1587 1367 l 1,97,-1
 1571 1366 l 1,98,-1
 1546 1366 l 2,99,100
 1532 1366 1532 1366 1521 1365 c 1,101,102
 1513 1361 1513 1361 1502 1350 c 1,103,104
 1495.54961832 1251.95419847 1495.54961832 1251.95419847 1462.77480916 1103.97709924 c 128,-1,105
 1430 956 1430 956 1410 862.5 c 128,-1,106
 1390 769 1390 769 1370 687.5 c 128,-1,107
 1350 606 1350 606 1332.5 536 c 128,-1,108
 1315 466 1315 466 1289.5 399 c 0,109,110
 1216.47524752 207.131042516 1216.47524752 207.131042516 1071 113 c 0,111,112
 973.25 49.75 973.25 49.75 905.625 26.875 c 128,-1,113
 838 4 838 4 789.5 -7.5 c 128,-1,114
 741 -19 741 -19 689 -24.5 c 128,-1,115
 637 -30 637 -30 583.5 -29.5 c 128,-1,116
 530 -29 530 -29 480.5 -19 c 0,117,118
 335.428251121 10.3074240159 335.428251121 10.3074240159 277.5 109 c 0,119,120
 189.624713959 258.713450292 189.624713959 258.713450292 227 497.5 c 0,121,122
 246.148734177 619.839135021 246.148734177 619.839135021 276.574367089 737.919567511 c 128,-1,123
 307 856 307 856 326 938 c 0,124,125
 369.885869565 1127.40217391 369.885869565 1127.40217391 380 1269 c 1,126,127
 364 1286 364 1286 349.5 1303.5 c 128,-1,128
 335 1321 335 1321 322.5 1331.5 c 128,-1,129
 310 1342 310 1342 306 1345.5 c 128,-1,130
 302 1349 302 1349 282 1359 c 1,131,132
 257 1364 257 1364 248 1364 c 2,133,-1
 228 1363 l 1,0,-1
663 1365 m 1,134,-1
 663 1363 l 1,135,-1
 645 1362 l 1,136,-1
 663 1365 l 1,134,-1
664 1371 m 1,137,-1
 641 1366 l 2,138,139
 654 1369 654 1369 664 1373 c 1,140,-1
 664 1371 l 1,137,-1
645 1362 m 2,141,142
 644.49358869 1361.99743548 644.49358869 1361.99743548 644 1362 c 2,143,-1
 645 1362 l 2,141,142
674.5 1367 m 1,144,145
 675.677078252 1367.4513855 675.677078252 1367.4513855 678.338539126 1367.72569275 c 128,-1,146
 681 1368 681 1368 674.5 1367 c 1,144,145
EndSplineSet
EndChar

StartChar: s
Encoding: 86 86 58
Width: 1290
Flags: W
LayerCount: 2
Fore
SplineSet
446 1492 m 1,0,1
 530 1492 530 1492 599 1446 c 1,2,3
 719.25 1498 719.25 1498 912 1498 c 1,4,-1
 726 1366 l 1,5,-1
 689 1366 l 1,6,-1
 683 1360 l 1,7,8
 686 1340 686 1340 685.5 1319.5 c 128,-1,9
 685 1299 685 1299 686 1277 c 128,-1,10
 687 1255 687 1255 689.5 1231.5 c 128,-1,11
 692 1208 692 1208 696.5 1158.5 c 128,-1,12
 701 1109 701 1109 710 1015.5 c 128,-1,13
 719 922 719 922 728 825 c 128,-1,14
 737 728 737 728 745.5 634.5 c 128,-1,15
 754 541 754 541 760 477.5 c 128,-1,16
 766 414 766 414 770.5 362.5 c 128,-1,17
 775 311 775 311 781 260 c 1,18,-1
 790 280 l 1,19,20
 809 319 809 319 831 359 c 128,-1,21
 853 399 853 399 876 442.5 c 128,-1,22
 899 486 899 486 924.5 553.5 c 128,-1,23
 950 621 950 621 975 692.5 c 0,24,25
 1040.2277737 879.05143277 1040.2277737 879.05143277 1072.11388685 938.525716385 c 128,-1,26
 1104 998 1104 998 1129 1047 c 128,-1,27
 1154 1096 1154 1096 1176 1133 c 0,28,29
 1237.2991453 1236.09401709 1237.2991453 1236.09401709 1246 1297 c 0,30,31
 1249 1318 1249 1318 1257 1336 c 1,32,33
 1240.42857143 1348.42857143 1240.42857143 1348.42857143 1225 1357 c 1,34,35
 1195 1363 1195 1363 1165 1365 c 1,36,-1
 1134 1365 l 2,37,38
 1119 1365 1119 1365 1103 1367 c 1,39,-1
 1322 1498 l 1,40,41
 1345 1496 1345 1496 1367.5 1495.5 c 128,-1,42
 1390 1495 1390 1495 1412.5 1493 c 0,43,44
 1461.75675676 1488.62162162 1461.75675676 1488.62162162 1497 1471 c 1,45,46
 1582.82954545 1495.52272727 1582.82954545 1495.52272727 1697 1500 c 1,47,-1
 1524 1377 l 1,48,49
 1516.50793651 1317.06349206 1516.50793651 1317.06349206 1483.75396825 1257.53174603 c 128,-1,50
 1451 1198 1451 1198 1412 1107 c 128,-1,51
 1373 1016 1373 1016 1334.5 921.5 c 0,52,53
 1226.36401674 656.075313808 1226.36401674 656.075313808 1184.68200837 575.537656904 c 128,-1,54
 1143 495 1143 495 1104.5 422 c 128,-1,55
 1066 349 1066 349 1041 294.5 c 128,-1,56
 1016 240 1016 240 997.5 214.5 c 128,-1,57
 979 189 979 189 957 168.5 c 0,58,59
 907.870466321 122.720207254 907.870466321 122.720207254 805 77 c 1,60,-1
 785 66 l 1,61,-1
 785 63 l 1,62,-1
 751.5 50.5 l 2,63,64
 742 47 742 47 733.5 44 c 128,-1,65
 725 41 725 41 706.5 34 c 128,-1,66
 688 27 688 27 665.5 20 c 0,67,68
 610.857142857 3 610.857142857 3 572 3 c 1,69,-1
 505 -16 l 1,70,71
 507 -5 507 -5 509 5 c 128,-1,72
 511 15 511 15 513 26 c 1,73,-1
 517 27 l 1,74,75
 515 32 515 32 514 37 c 128,-1,76
 513 42 513 42 510.5 49.5 c 128,-1,77
 508 57 508 57 507 68 c 128,-1,78
 506 79 506 79 505.5 87 c 128,-1,79
 505 95 505 95 504 102.5 c 128,-1,80
 503 110 503 110 504 107.5 c 128,-1,81
 505 105 505 105 506 105 c 1,82,83
 499.409090909 131.363636364 499.409090909 131.363636364 490.204545455 235.681818182 c 128,-1,84
 481 340 481 340 475 402 c 128,-1,85
 469 464 469 464 460.5 555 c 128,-1,86
 452 646 452 646 443.5 740.5 c 0,87,88
 415.438356164 1052.47945205 415.438356164 1052.47945205 409.719178082 1106.23972603 c 128,-1,89
 404 1160 404 1160 403 1183 c 1,90,-1
 403 1224.5 l 2,91,92
 403 1245 403 1245 400 1265 c 1,93,94
 372.645454545 1310.59090909 372.645454545 1310.59090909 285 1353 c 0,95,96
 280 1354 280 1354 262 1356 c 0,97,98
 226 1360 226 1360 219 1360.5 c 128,-1,99
 212 1361 212 1361 202.5 1363 c 128,-1,100
 193 1365 193 1365 182 1367 c 1,101,-1
 426 1493 l 1,102,-1
 427 1494 l 1,103,104
 431 1494 431 1494 438.550510257 1492.09974487 c 128,-1,105
 446.101020514 1490.19948974 446.101020514 1490.19948974 448 1490 c 1,106,107
 440.267643949 1490 440.267643949 1490 428 1493 c 1,108,-1
 446 1492 l 1,0,1
417 1495 m 1,109,110
 417.700877125 1494.84824575 417.700877125 1494.84824575 418.5 1494.5 c 1,111,112
 418 1495 418 1495 417 1495 c 1,109,110
420 1494 m 1,113,114
 424 1494 424 1494 426 1493 c 1,115,116
 424 1494 424 1494 420 1494 c 1,113,114
EndSplineSet
EndChar

StartChar: t
Encoding: 87 87 59
Width: 1884
Flags: W
LayerCount: 2
Fore
SplineSet
962 1074 m 0,0,1
 1009.17391304 1141.39130435 1009.17391304 1141.39130435 1134 1183 c 1,2,3
 1143 1217.5 1143 1217.5 1143 1276 c 1,4,-1
 1426 1371 l 1,5,6
 1426 1286.33333333 1426 1286.33333333 1406 1248 c 1,7,-1
 1411 1250 l 1,8,9
 1422 1221 1422 1221 1421.5 1192 c 128,-1,10
 1421 1163 1421 1163 1422.5 1119.5 c 128,-1,11
 1424 1076 1424 1076 1427.5 1021 c 128,-1,12
 1431 966 1431 966 1434 906.5 c 128,-1,13
 1437 847 1437 847 1442.5 771 c 128,-1,14
 1448 695 1448 695 1454 614 c 0,15,16
 1471.33333333 380 1471.33333333 380 1476 289 c 1,17,18
 1494 333 1494 333 1511.5 376.5 c 128,-1,19
 1529 420 1529 420 1546.5 458.5 c 128,-1,20
 1564 497 1564 497 1577.5 541 c 128,-1,21
 1591 585 1591 585 1604.5 634 c 128,-1,22
 1618 683 1618 683 1631.5 735 c 128,-1,23
 1645 787 1645 787 1658.5 836 c 0,24,25
 1689.76683938 949.487046632 1689.76683938 949.487046632 1711.88341969 997.243523316 c 128,-1,26
 1734 1045 1734 1045 1753 1085.5 c 128,-1,27
 1772 1126 1772 1126 1788 1166.5 c 0,28,29
 1823.92831541 1257.44354839 1823.92831541 1257.44354839 1831 1337 c 1,30,-1
 1806 1355 l 1,31,32
 1782 1361 1782 1361 1754.5 1361 c 0,33,34
 1706.66666667 1361 1706.66666667 1361 1680 1366 c 1,35,-1
 1925 1493 l 1,36,-1
 1913 1495 l 1,37,-1
 1948 1494 l 1,38,-1
 1980.5 1494 l 2,39,40
 2049 1494 2049 1494 2079 1469 c 0,41,42
 2081 1469 2081 1469 2081 1467 c 1,43,44
 2178.6 1499 2178.6 1499 2332 1499 c 1,45,-1
 2146 1367 l 1,46,-1
 2105 1367 l 1,47,48
 2089 1292 2089 1292 2058 1223 c 128,-1,49
 2027 1154 2027 1154 1998.5 1092 c 128,-1,50
 1970 1030 1970 1030 1947 974.5 c 128,-1,51
 1924 919 1924 919 1903 873.5 c 128,-1,52
 1882 828 1882 828 1867 769 c 128,-1,53
 1852 710 1852 710 1837.5 646.5 c 0,54,55
 1798.18269231 474.317307692 1798.18269231 474.317307692 1783.09134615 437.158653846 c 128,-1,56
 1768 400 1768 400 1755 365 c 128,-1,57
 1742 330 1742 330 1726.5 294 c 0,58,59
 1688.78501629 206.403908795 1688.78501629 206.403908795 1659.39250814 170.701954397 c 128,-1,60
 1630 135 1630 135 1591 115 c 2,61,-1
 1563 100 l 1,62,63
 1526.11764706 78.6470588235 1526.11764706 78.6470588235 1487 63 c 1,64,65
 1481.23076923 54.9230769231 1481.23076923 54.9230769231 1476 34 c 1,66,-1
 1196 -45 l 1,67,68
 1206.09090909 -10.6909090909 1206.09090909 -10.6909090909 1225 12 c 1,69,-1
 1199 4 l 1,70,71
 1199 159 1199 159 1181 393 c 0,72,73
 1154.52631579 737.157894737 1154.52631579 737.157894737 1150.26315789 819.578947368 c 128,-1,74
 1146 902 1146 902 1144 931 c 1,75,76
 1117.64150943 862.70754717 1117.64150943 862.70754717 1077.82075472 713.853773585 c 0,77,78
 1003.98054475 437.832036316 1003.98054475 437.832036316 982.990272374 390.916018158 c 128,-1,79
 962 344 962 344 953 318.5 c 128,-1,80
 944 293 944 293 935 267.5 c 0,81,82
 895.178849145 154.67340591 895.178849145 154.67340591 809 107 c 0,83,84
 762 81 762 81 711 61 c 1,85,-1
 710 57 l 1,86,87
 639 34 639 34 569 10 c 128,-1,88
 499 -14 499 -14 427 -38 c 1,89,90
 430 -13 430 -13 446 10 c 1,91,-1
 427 4 l 1,92,-1
 374 1267 l 1,93,94
 359.227272727 1273.81818182 359.227272727 1273.81818182 331.613636364 1300.40909091 c 128,-1,95
 304 1327 304 1327 292 1335.5 c 128,-1,96
 280 1344 280 1344 273 1349 c 0,97,98
 255.645833333 1361.39583333 255.645833333 1361.39583333 230.322916667 1363.69791667 c 0,99,100
 198.4 1366.6 198.4 1366.6 184 1367.5 c 1,101,-1
 203 1368 l 1,102,-1
 388 1499 l 1,103,104
 481.434782609 1499 481.434782609 1499 516.217391304 1479 c 128,-1,105
 551 1459 551 1459 573 1441 c 1,106,107
 696.529411765 1497 696.529411765 1497 888 1497 c 1,108,-1
 702 1365 l 1,109,-1
 676 1365 l 1,110,-1
 657 1349 l 1,111,-1
 701 308 l 1,112,113
 722.823529412 361 722.823529412 361 746.411764706 415 c 128,-1,114
 770 469 770 469 781 505.5 c 128,-1,115
 792 542 792 542 802 584 c 128,-1,116
 812 626 812 626 822.5 670.5 c 128,-1,117
 833 715 833 715 843 757 c 0,118,119
 866.75 856.75 866.75 856.75 883.375 900.375 c 128,-1,120
 900 944 900 944 917 990 c 128,-1,121
 934 1036 934 1036 962 1074 c 0,0,1
1908.5 1495.5 m 2,122,-1
 1912 1495 l 2,123,124
 1910 1495 1910 1495 1908.5 1495.5 c 2,122,-1
712 74 m 1,125,-1
 712 72 l 1,126,-1
 712 74 l 1,125,-1
1902 1497 m 2,127,128
 1901.74341649 1497.01316702 1901.74341649 1497.01316702 1901.5 1497 c 2,129,-1
 1902 1497 l 2,127,128
249 1361 m 1,130,-1
 248 1362 l 1,131,-1
 249 1361 l 1,130,-1
EndSplineSet
EndChar

StartChar: u
Encoding: 88 88 60
Width: 1290
Flags: W
LayerCount: 2
Fore
SplineSet
653 711 m 1,0,-1
 652 778 l 1,1,2
 616.387096774 815.838709677 616.387096774 815.838709677 598.193548387 870.419354839 c 128,-1,3
 580 925 580 925 565 966 c 128,-1,4
 550 1007 550 1007 525.5 1066 c 128,-1,5
 501 1125 501 1125 488.5 1166.5 c 128,-1,6
 476 1208 476 1208 475.5 1231 c 128,-1,7
 475 1254 475 1254 469 1276 c 0,8,9
 460 1294 460 1294 439.5 1302.5 c 128,-1,10
 419 1311 419 1311 396.5 1322 c 128,-1,11
 374 1333 374 1333 350.5 1343 c 128,-1,12
 327 1353 327 1353 303 1359.5 c 0,13,14
 255.176470588 1372.45220588 255.176470588 1372.45220588 196 1378 c 1,15,-1
 415 1509 l 1,16,17
 509.099585062 1500.69709544 509.099585062 1500.69709544 536.549792531 1492.34854772 c 0,18,19
 597.013506428 1473.95946264 597.013506428 1473.95946264 646 1452 c 1,20,21
 771.636363636 1508.53636364 771.636363636 1508.53636364 847 1501 c 0,22,23
 858 1499 858 1499 864 1496 c 1,24,-1
 801 1383 l 1,25,26
 774 1376.76923077 774 1376.76923077 751 1375 c 1,27,28
 760 1353 760 1353 759 1328.5 c 128,-1,29
 758 1304 758 1304 768.5 1270.5 c 128,-1,30
 779 1237 779 1237 796 1195 c 128,-1,31
 813 1153 813 1153 826 1119 c 128,-1,32
 839 1085 839 1085 848 1057.5 c 128,-1,33
 857 1030 857 1030 867 1002 c 1,34,-1
 894 1034 l 2,35,36
 945 1093 945 1093 996 1150 c 128,-1,37
 1047 1207 1047 1207 1095 1269 c 1,38,39
 1102 1288 1102 1288 1107 1308 c 128,-1,40
 1112 1328 1112 1328 1122 1346 c 1,41,42
 1104 1361 1104 1361 1082 1370 c 1,43,44
 1029.4 1370 1029.4 1370 1000 1377 c 1,45,-1
 1245 1504 l 1,46,47
 1249 1502 1249 1502 1283.125 1502 c 128,-1,48
 1317.25 1502 1317.25 1502 1364 1480 c 1,49,50
 1427.03030303 1493.78787879 1427.03030303 1493.78787879 1479.01515152 1498.89393939 c 128,-1,51
 1531 1504 1531 1504 1575.5 1508.5 c 128,-1,52
 1620 1513 1620 1513 1665 1513 c 1,53,-1
 1479 1381 l 1,54,55
 1437.66666667 1381 1437.66666667 1381 1384 1374 c 1,56,57
 1373.18867925 1334.35849057 1373.18867925 1334.35849057 1351.59433962 1309.67924528 c 128,-1,58
 1330 1285 1330 1285 1306.5 1256 c 128,-1,59
 1283 1227 1283 1227 1245.5 1185 c 128,-1,60
 1208 1143 1208 1143 1174.5 1105.5 c 128,-1,61
 1141 1068 1141 1068 1115 1033 c 128,-1,62
 1089 998 1089 998 1063.5 975 c 0,63,64
 1032.33333333 946.888888889 1032.33333333 946.888888889 1000.66666667 925.444444444 c 0,65,66
 943.215591915 886.538979788 943.215591915 886.538979788 935 866 c 1,67,68
 935 848 935 848 936.5 830.5 c 128,-1,69
 938 813 938 813 934 795 c 1,70,-1
 935 795 l 1,71,72
 975.655172414 754.344827586 975.655172414 754.344827586 990.827586207 711.672413793 c 128,-1,73
 1006 669 1006 669 1017.5 640 c 128,-1,74
 1029 611 1029 611 1043.5 576.5 c 128,-1,75
 1058 542 1058 542 1069.5 513 c 0,76,77
 1116.38461538 394.769230769 1116.38461538 394.769230769 1126.19230769 354.884615385 c 128,-1,78
 1136 315 1136 315 1138.5 290.5 c 0,79,80
 1143.51552795 241.347826087 1143.51552795 241.347826087 1148.75776398 232.173913043 c 0,81,82
 1158 216 1158 216 1168 211 c 2,83,-1
 1231 179 l 1,84,85
 1320.65609349 135.086811352 1320.65609349 135.086811352 1431 131 c 1,86,87
 1409 118.2 1409 118.2 1212 0 c 1,88,89
 1090.83735705 3.72808132147 1090.83735705 3.72808132147 972 57 c 1,90,91
 870.5 -1 870.5 -1 665 -1 c 1,92,-1
 851 131 l 1,93,-1
 866 131 l 1,94,95
 857.715328467 152.540145985 857.715328467 152.540145985 856.857664234 178.270072993 c 0,96,97
 854.337995338 253.86013986 854.337995338 253.86013986 808.668997669 359.93006993 c 1,98,-1
 731.5 550 l 2,99,100
 729 555 729 555 728 560.5 c 0,101,102
 726.578947368 568.315789474 726.578947368 568.315789474 719 586 c 1,103,-1
 701 561 l 2,104,105
 669 516 669 516 632.5 474.5 c 128,-1,106
 596 433 596 433 566 395.5 c 128,-1,107
 536 358 536 358 509 324.5 c 128,-1,108
 482 291 482 291 464 262.5 c 128,-1,109
 446 234 446 234 441.5 208.5 c 128,-1,110
 437 183 437 183 426 160 c 1,111,112
 462.129666012 128.68762279 462.129666012 128.68762279 531 130.5 c 0,113,114
 550 131 550 131 568 131 c 1,115,-1
 382 -1 l 1,116,117
 355 -1 355 -1 328 -1 c 0,118,119
 227.214285714 -1 227.214285714 -1 173 32 c 1,120,121
 165 30 165 30 134 20.5 c 0,122,123
 63.8421052632 -1 63.8421052632 -1 -81 -1 c 1,124,-1
 105 131 l 1,125,126
 153 131 153 131 165 134 c 1,127,128
 183.210526316 192.273684211 183.210526316 192.273684211 223.105263158 244.136842105 c 128,-1,129
 263 296 263 296 290 327.5 c 128,-1,130
 317 359 317 359 344 390.5 c 128,-1,131
 371 422 371 422 402.5 461.5 c 128,-1,132
 434 501 434 501 469 550 c 128,-1,133
 504 599 504 599 531.5 620.5 c 128,-1,134
 559 642 559 642 569.5 648.5 c 128,-1,135
 580 655 580 655 591 660.5 c 128,-1,136
 602 666 602 666 611.5 670.5 c 128,-1,137
 621 675 621 675 624 677 c 1,138,139
 618 674 618 674 620 676 c 0,140,141
 642.5 696 642.5 696 653 711 c 1,0,-1
192 36 m 1,142,143
 199.824538485 37.2027264984 199.824538485 37.2027264984 204 38 c 1,144,145
 199 37 199 37 192 36 c 1,142,143
1115 166 m 2,146,147
 1117 167 1117 167 1118 168.5 c 2,148,-1
 1115 166 l 2,146,147
172 33 m 1,149,150
 170 32 170 32 166 32 c 1,151,152
 169 32 169 32 172 33 c 1,149,150
1163 213 m 1,153,154
 1163 209 1163 209 1160 215 c 1,155,156
 1162 213 1162 213 1163 213 c 1,153,154
1112 163 m 1,157,158
 1112.2 161.4 1112.2 161.4 1114 165 c 1,159,-1
 1112 163 l 1,157,158
686 608 m 128,-1,161
 684 607 684 607 685.5 607.5 c 128,-1,162
 687 608 687 608 691 610 c 1,163,160
 688 609 688 609 686 608 c 128,-1,161
EndSplineSet
EndChar

StartChar: v
Encoding: 89 89 61
Width: 1274
Flags: W
LayerCount: 2
Fore
SplineSet
376 1512 m 1,0,1
 546.051204819 1505.70180723 546.051204819 1505.70180723 626 1451 c 1,2,3
 744.4 1507 744.4 1507 939 1507 c 1,4,-1
 753 1375 l 1,5,-1
 729 1375 l 1,6,-1
 729 1374 l 1,7,8
 739.731404959 1351.00413223 739.731404959 1351.00413223 742.365702479 1315.00206612 c 0,9,10
 749.40083383 1218.85527099 749.40083383 1218.85527099 790.200416915 1076.4276355 c 0,11,12
 853.649168359 854.933812275 853.649168359 854.933812275 857 792 c 1,13,-1
 872 818 l 2,14,15
 874 820 874 820 875 822 c 2,16,-1
 873 820 l 1,17,18
 879.666666667 829.333333333 879.666666667 829.333333333 886 842 c 1,19,-1
 908 877 l 2,20,21
 928 907 928 907 940 926 c 128,-1,22
 952 945 952 945 962.5 961 c 128,-1,23
 973 977 973 977 985 994 c 128,-1,24
 997 1011 997 1011 1014.5 1036.5 c 128,-1,25
 1032 1062 1032 1062 1048 1086 c 128,-1,26
 1064 1110 1064 1110 1075 1125 c 128,-1,27
 1086 1140 1086 1140 1095 1152.5 c 0,28,29
 1131 1202.5 1131 1202.5 1137 1212.25 c 128,-1,30
 1143 1222 1143 1222 1153.5 1236.5 c 0,31,32
 1170.01100917 1259.30091743 1170.01100917 1259.30091743 1177.00550459 1291.65045872 c 128,-1,33
 1184 1324 1184 1324 1192 1341 c 1,34,35
 1161.84037559 1367.38967136 1161.84037559 1367.38967136 1132.92018779 1370.69483568 c 128,-1,36
 1104 1374 1104 1374 1085 1375 c 1,37,-1
 1067 1375 l 1,38,-1
 1253 1507 l 1,39,40
 1373.4 1507 1373.4 1507 1428 1479 c 1,41,42
 1531.76470588 1507 1531.76470588 1507 1685 1507 c 1,43,-1
 1499 1375 l 1,44,-1
 1474.5 1375 l 2,45,46
 1467 1375 1467 1375 1456 1374 c 1,47,48
 1438.375 1315.25 1438.375 1315.25 1422.1875 1292.125 c 128,-1,49
 1406 1269 1406 1269 1401.5 1262 c 128,-1,50
 1397 1255 1397 1255 1389 1247 c 1,51,-1
 1284 1098 l 1,52,53
 1182.75618375 951.371024735 1182.75618375 951.371024735 1150.37809187 895.185512367 c 128,-1,54
 1118 839 1118 839 1095 803.5 c 0,55,56
 1043.14424008 723.461761859 1043.14424008 723.461761859 960 680 c 0,57,58
 959 680 959 680 959 679.5 c 128,-1,59
 959 679 959 679 954.5 676.5 c 2,60,-1
 903 649 l 1,61,-1
 878 632 l 1,62,63
 871.112676056 487.366197183 871.112676056 487.366197183 843 396 c 0,64,65
 841 388 841 388 839.5 380.5 c 128,-1,66
 838 373 838 373 834 357.5 c 0,67,68
 820.50931677 305.223602484 820.50931677 305.223602484 818.754658385 258.611801242 c 128,-1,69
 817 212 817 212 852.5 179.5 c 128,-1,70
 888 147 888 147 942 133 c 1,71,72
 982.5 130 982.5 130 1050 130 c 1,73,-1
 864 -2 l 1,74,75
 827 -2 827 -2 790 -2.5 c 128,-1,76
 753 -3 753 -3 726 0.5 c 0,77,78
 659.896551724 9.06896551724 659.896551724 9.06896551724 632.948275862 27.0344827586 c 128,-1,79
 606 45 606 45 593 55 c 1,80,81
 470 -2 470 -2 253 -2 c 1,82,-1
 439 130 l 1,83,84
 481 130 481 130 525 132 c 1,85,-1
 538 142 l 1,86,87
 530.107765452 188.038034865 530.107765452 188.038034865 547.553882726 252.019017433 c 128,-1,88
 565 316 565 316 569 341 c 128,-1,89
 573 366 573 366 579.5 399 c 0,90,91
 592.606557377 465.540983607 592.606557377 465.540983607 597 560 c 1,92,93
 581 598 581 598 579 637 c 128,-1,94
 577 676 577 676 573.5 704.5 c 0,95,96
 564.134220073 780.764207981 564.134220073 780.764207981 525.067110036 917.88210399 c 128,-1,97
 486 1055 486 1055 473 1115.5 c 128,-1,98
 460 1176 460 1176 459.5 1206 c 128,-1,99
 459 1236 459 1236 452 1265 c 1,100,101
 442 1289 442 1289 420.5 1300.5 c 128,-1,102
 399 1312 399 1312 381.5 1321.5 c 128,-1,103
 364 1331 364 1331 351 1338.5 c 128,-1,104
 338 1346 338 1346 312.5 1358 c 0,105,106
 275.955782313 1375.19727891 275.955782313 1375.19727891 157 1381 c 1,107,-1
 376 1512 l 1,0,1
1388 1369 m 2,108,-1
 1383 1367 l 1,109,110
 1381 1366 1381 1366 1383 1367 c 129,-1,111
 1385 1368 1385 1368 1388 1369 c 2,108,-1
1130 1201 m 2,112,113
 1131 1201 1131 1201 1131 1202 c 2,114,-1
 1130 1201 l 2,112,113
478 100 m 2,115,116
 479.156854249 100.828427125 479.156854249 100.828427125 481 102 c 2,117,-1
 478 100 l 2,115,116
EndSplineSet
EndChar

StartChar: w
Encoding: 90 90 62
Width: 1266
Flags: W
LayerCount: 2
Fore
SplineSet
616 1352 m 2,0,-1
 593 1351 l 1,1,2
 590 1336 590 1336 582 1320.5 c 128,-1,3
 574 1305 574 1305 565 1280 c 128,-1,4
 556 1255 556 1255 545.5 1219 c 128,-1,5
 535 1183 535 1183 524 1147 c 1,6,-1
 244 1068 l 1,7,8
 251 1090 251 1090 263 1130 c 128,-1,9
 275 1170 275 1170 289.5 1213 c 0,10,11
 326.613829787 1323.06170213 326.613829787 1323.06170213 348.306914894 1346.53085106 c 0,12,13
 388.943944909 1390.49493017 388.943944909 1390.49493017 432.471972455 1411.24746509 c 0,14,15
 549.471772798 1467.02859229 549.471772798 1467.02859229 631.5 1472 c 0,16,17
 648 1473 648 1473 665 1474 c 1,18,-1
 670.5 1474 l 2,19,20
 674 1474 674 1474 678 1475 c 1,21,-1
 680 1475 l 1,22,-1
 688 1476 l 1,23,-1
 693 1476 l 1,24,25
 815.432432432 1488.55717256 815.432432432 1488.55717256 899.716216216 1485.77858628 c 128,-1,26
 984 1483 984 1483 1023 1485.5 c 128,-1,27
 1062 1488 1062 1488 1100 1491 c 128,-1,28
 1138 1494 1138 1494 1175.5 1492 c 0,29,30
 1261.69668246 1487.4028436 1261.69668246 1487.4028436 1310 1446 c 0,31,32
 1345.53846154 1416.92307692 1345.53846154 1416.92307692 1354.26923077 1399.46153846 c 128,-1,33
 1363 1382 1363 1382 1358.5 1361.5 c 128,-1,34
 1354 1341 1354 1341 1343.5 1321 c 0,35,36
 1320.94655306 1278.04105345 1320.94655306 1278.04105345 1249.47327653 1197.52052672 c 128,-1,37
 1178 1117 1178 1117 1095 1016.5 c 128,-1,38
 1012 916 1012 916 882 764 c 128,-1,39
 752 612 752 612 678.5 523 c 128,-1,40
 605 434 605 434 583.5 412 c 128,-1,41
 562 390 562 390 541 368 c 0,42,43
 477.575757576 301.555555556 477.575757576 301.555555556 454.787878788 259.777777778 c 128,-1,44
 432 218 432 218 431 203.5 c 0,45,46
 428.47761194 166.925373134 428.47761194 166.925373134 476.5 132 c 0,47,48
 482 128 482 128 489 126 c 1,49,-1
 518 126 l 1,50,51
 596 133 596 133 674.5 130.5 c 128,-1,52
 753 128 753 128 832 128 c 2,53,-1
 956 128 l 1,54,-1
 1016.5 130 l 2,55,56
 1025 130 1025 130 1034 132 c 1,57,58
 1038.5 138 1038.5 138 1040.25 141.5 c 2,59,-1
 1047 154 l 1,60,-1
 1061 185 l 2,61,62
 1064 192 1064 192 1066.5 196.5 c 0,63,64
 1070.12903226 203.032258065 1070.12903226 203.032258065 1082.56451613 235.516129032 c 0,65,66
 1113.49634634 316.316007169 1113.49634634 316.316007169 1142 375 c 1,67,-1
 1422 454 l 1,68,69
 1400 410 1400 410 1383 365 c 128,-1,70
 1366 320 1366 320 1352 289 c 128,-1,71
 1338 258 1338 258 1329.5 241.5 c 128,-1,72
 1321 225 1321 225 1311.5 204 c 0,73,74
 1283.52777778 142.166666667 1283.52777778 142.166666667 1251.26388889 115.583333333 c 0,75,76
 1188.2730674 63.6830180836 1188.2730674 63.6830180836 1125.1365337 46.3415090418 c 0,77,78
 1030.26283238 20.282854048 1030.26283238 20.282854048 940 9 c 257,79,-1
 930 9 l 1,80,81
 843 -5 843 -5 757 -4.5 c 128,-1,82
 671 -4 671 -4 583 -4 c 2,83,-1
 378 -4 l 1,84,-1
 297 -7 l 1,85,86
 229.105263158 -7 229.105263158 -7 197 23.5 c 0,87,88
 152.703422053 65.5817490494 152.703422053 65.5817490494 148.351711027 90.7908745247 c 128,-1,89
 144 116 144 116 154 136.5 c 128,-1,90
 164 157 164 157 179 185.5 c 0,91,92
 217.276595745 258.225531915 217.276595745 258.225531915 303.5 341 c 0,93,94
 331.028901734 367.427745665 331.028901734 367.427745665 347.514450867 388.213872832 c 128,-1,95
 364 409 364 409 377 424 c 2,96,-1
 865 1003 l 2,97,98
 900 1046 900 1046 936.5 1088 c 128,-1,99
 973 1130 973 1130 996 1158.5 c 128,-1,100
 1019 1187 1019 1187 1030 1199.5 c 128,-1,101
 1041 1212 1041 1212 1048 1221 c 0,102,103
 1080.25490196 1262.47058824 1080.25490196 1262.47058824 1075 1294 c 1,104,105
 1032.53521127 1344.95774648 1032.53521127 1344.95774648 1003.76760563 1350.97887324 c 128,-1,106
 975 1357 975 1357 948 1357.5 c 128,-1,107
 921 1358 921 1358 894 1355.5 c 128,-1,108
 867 1353 867 1353 825 1351.5 c 128,-1,109
 783 1350 783 1350 728 1352 c 128,-1,110
 673 1354 673 1354 616 1352 c 2,0,-1
1134 145 m 1,111,112
 1142 147 1142 147 1139 147 c 1,113,-1
 1134 145 l 1,111,112
622 1406 m 1,114,115
 623 1407 623 1407 621.5 1406 c 1,116,-1
 622 1406 l 1,114,115
1038 138 m 1,117,-1
 1044 149 l 1,118,-1
 1044 148 l 1,119,-1
 1038 138 l 1,117,-1
687 1476 m 1,120,121
 686.707106781 1475.79289322 686.707106781 1475.79289322 686.353553391 1475.39644661 c 128,-1,122
 686 1475 686 1475 685 1475 c 1,123,124
 686 1476 686 1476 687 1476 c 1,120,121
1038 138 m 2,125,-1
 1037 136 l 2,126,127
 1037 137 1037 137 1038 138 c 2,125,-1
1073 1299 m 1,128,-1
 1073 1301 l 1,129,-1
 1073 1299 l 1,128,-1
EndSplineSet
EndChar

StartChar: x
Encoding: 91 91 63
Width: 717
Flags: W
LayerCount: 2
Fore
SplineSet
457 -278 m 1,0,1
 431 -278 431 -278 398.5 -278.5 c 128,-1,2
 366 -279 366 -279 333.5 -276 c 0,3,4
 258.167630058 -269.046242775 258.167630058 -269.046242775 231.083815029 -246.523121387 c 128,-1,5
 204 -224 204 -224 198 -208.5 c 128,-1,6
 192 -193 192 -193 191.5 -176.5 c 128,-1,7
 191 -160 191 -160 194 -142.5 c 128,-1,8
 197 -125 197 -125 199 -108.5 c 128,-1,9
 201 -92 201 -92 202.5 -77 c 128,-1,10
 204 -62 204 -62 210.5 -26.5 c 0,11,12
 227.239726027 64.9246575342 227.239726027 64.9246575342 251.119863014 156.962328767 c 128,-1,13
 275 249 275 249 290.5 325 c 128,-1,14
 306 401 306 401 323 478 c 2,15,-1
 463 1117 l 2,16,17
 471 1150 471 1150 479.5 1183 c 128,-1,18
 488 1216 488 1216 492 1239.5 c 128,-1,19
 496 1263 496 1263 498 1279.5 c 128,-1,20
 500 1296 500 1296 503.5 1311.5 c 0,21,22
 518.560840708 1378.19800885 518.560840708 1378.19800885 590 1415 c 0,23,24
 693.583333333 1468.36111111 693.583333333 1468.36111111 738.291666667 1480.18055556 c 128,-1,25
 783 1492 783 1492 828 1497.5 c 0,26,27
 897.545454545 1506 897.545454545 1506 1006 1506 c 1,28,-1
 820 1374 l 1,29,-1
 780 1374 l 1,30,31
 778 1361 778 1361 777 1348 c 128,-1,32
 776 1335 776 1335 764.5 1295 c 128,-1,33
 753 1255 753 1255 740 1186 c 128,-1,34
 727 1117 727 1117 699.5 991.5 c 0,35,36
 542.740528129 276.106773823 542.740528129 276.106773823 516.870264064 177.553386912 c 128,-1,37
 491 79 491 79 486 30.5 c 128,-1,38
 481 -18 481 -18 477.5 -34 c 128,-1,39
 474 -50 474 -50 473 -65.5 c 0,40,41
 469.266666667 -123.366666667 469.266666667 -123.366666667 525 -139.5 c 0,42,43
 558.781783681 -149.278937381 558.781783681 -149.278937381 592.390891841 -147.639468691 c 128,-1,44
 626 -146 626 -146 643 -146 c 1,45,-1
 457 -278 l 1,0,1
EndSplineSet
EndChar

StartChar: y
Encoding: 92 92 64
Width: 942
Flags: W
LayerCount: 2
Fore
SplineSet
572 1435 m 1,0,1
 632 1184 632 1184 705 938.5 c 128,-1,2
 778 693 778 693 829 524.5 c 0,3,4
 880 356 880 356 910 266.5 c 128,-1,5
 940 177 940 177 954 84 c 1,6,7
 883 61 883 61 813 37 c 128,-1,8
 743 13 743 13 671 -11 c 1,9,10
 657 83 657 83 627 171.5 c 128,-1,11
 597 260 597 260 546.5 429 c 0,12,13
 496 598 496 598 422.5 843.5 c 128,-1,14
 349 1089 349 1089 289 1340 c 1,15,-1
 572 1435 l 1,0,1
EndSplineSet
EndChar

StartChar: z
Encoding: 93 93 65
Width: 717
Flags: W
LayerCount: 2
Fore
SplineSet
543 1501 m 1,0,1
 606 1501 l 2,2,3
 733.441860465 1501 733.441860465 1501 783.5 1448.5 c 0,4,5
 804 1427 804 1427 800 1399.5 c 0,6,7
 794.153846154 1359.30769231 794.153846154 1359.30769231 791 1353 c 1,8,-1
 791 1345 l 1,9,-1
 787 1303 l 1,10,11
 778.3125 1235.671875 778.3125 1235.671875 760.65625 1164.8359375 c 128,-1,12
 743 1094 743 1094 723.5 1007 c 128,-1,13
 704 920 704 920 673 777 c 128,-1,14
 642 634 642 634 598.5 440 c 128,-1,15
 555 246 555 246 531.5 136 c 128,-1,16
 508 26 508 26 502.5 2 c 128,-1,17
 497 -22 497 -22 492 -46 c 1,18,-1
 492 -47 l 1,19,20
 482.587301587 -109.751322751 482.587301587 -109.751322751 465.793650794 -133.875661376 c 0,21,22
 420.707600365 -198.642468852 420.707600365 -198.642468852 266.5 -246.5 c 0,23,24
 158.555555556 -280 158.555555556 -280 -7 -280 c 1,25,-1
 179 -148 l 1,26,-1
 209 -148 l 1,27,28
 212 -131 212 -131 214.5 -115.5 c 128,-1,29
 217 -100 217 -100 225 -65 c 0,30,31
 246.128205128 27.4358974359 246.128205128 27.4358974359 279.064102564 181.717948718 c 128,-1,32
 312 336 312 336 357.5 541 c 128,-1,33
 403 746 403 746 434 887.5 c 128,-1,34
 465 1029 465 1029 483.5 1101.5 c 128,-1,35
 502 1174 502 1174 505.5 1216.5 c 128,-1,36
 509 1259 509 1259 511.5 1270.5 c 128,-1,37
 514 1282 514 1282 516 1293 c 0,38,39
 523.981776765 1336.89977221 523.981776765 1336.89977221 477.5 1357 c 0,40,41
 445.935172414 1370.64965517 445.935172414 1370.64965517 410.467586207 1369.82482759 c 128,-1,42
 375 1369 375 1369 357 1369 c 1,43,-1
 543 1501 l 1,0,1
EndSplineSet
EndChar

StartChar: braceleft
Encoding: 94 94 66
Width: 1229
Flags: W
LayerCount: 2
Fore
SplineSet
223 474 m 1,0,1
 284.674757282 654.912621359 284.674757282 654.912621359 364.337378641 830.95631068 c 0,2,3
 466.129558552 1055.90335096 466.129558552 1055.90335096 486.564779276 1112.95167548 c 128,-1,4
 507 1170 507 1170 526 1191.5 c 128,-1,5
 545 1213 545 1213 564.5 1226 c 128,-1,6
 584 1239 584 1239 603 1252 c 1,7,-1
 591 1245 l 1,8,9
 597 1251 597 1251 612 1259 c 128,-1,10
 627 1267 627 1267 648 1279.5 c 128,-1,11
 669 1292 669 1292 695.5 1301 c 128,-1,12
 722 1310 722 1310 752.5 1319 c 128,-1,13
 783 1328 783 1328 812.5 1329.5 c 0,14,15
 909.254057079 1334.41969782 909.254057079 1334.41969782 956.5 1244.5 c 0,16,17
 982.317700454 1195.36308623 982.317700454 1195.36308623 1003.15885023 1137.18154312 c 128,-1,18
 1024 1079 1024 1079 1052.5 1005.5 c 128,-1,19
 1081 932 1081 932 1127 810 c 128,-1,20
 1173 688 1173 688 1230 569 c 1,21,-1
 952 460 l 1,22,23
 889.25 595.958333333 889.25 595.958333333 835.125 737.979166667 c 128,-1,24
 781 880 781 880 761 929 c 128,-1,25
 741 978 741 978 723 1029 c 1,26,-1
 711 1058 l 1,27,28
 564.993957704 732.093655589 564.993957704 732.093655589 503 553 c 1,29,-1
 223 474 l 1,0,1
589 1244 m 1,30,31
 588.757359313 1243.74264069 588.757359313 1243.74264069 588.5 1243.5 c 0,32,33
 587 1243 587 1243 589 1244 c 1,30,31
EndSplineSet
EndChar

StartChar: bar
Encoding: 95 95 67
Width: 1024
Flags: W
LayerCount: 2
Fore
SplineSet
145 -139 m 1,0,-1
 1065 -139 l 1,1,-1
 879 -271 l 1,2,-1
 -41 -271 l 1,3,-1
 145 -139 l 1,0,-1
EndSplineSet
EndChar

StartChar: Uacute
Encoding: 8216 8216 68
Width: 504
Flags: W
LayerCount: 2
Fore
SplineSet
777 1449 m 1,0,1
 655.941801619 1331.78491903 655.941801619 1331.78491903 610 1162 c 0,2,3
 605 1133 605 1133 598.5 1106 c 128,-1,4
 592 1079 592 1079 592 1050 c 1,5,6
 521 1027 521 1027 451 1003 c 128,-1,7
 381 979 381 979 309 955 c 1,8,9
 309 1036.38235294 309 1036.38235294 361 1172.5 c 0,10,11
 394.97592068 1261.43696884 394.97592068 1261.43696884 438.98796034 1315.71848442 c 128,-1,12
 483 1370 483 1370 525 1410 c 1,13,-1
 777 1449 l 1,0,1
EndSplineSet
EndChar

StartChar: asciitilde
Encoding: 97 97 69
Width: 1176
Flags: W
LayerCount: 2
Fore
SplineSet
1184 936 m 1,0,-1
 1164 908 l 1,1,2
 1164 856.666666667 1164 856.666666667 1135 760 c 1,3,-1
 1130 740 l 1,4,5
 1126 716 1126 716 1104.5 655 c 0,6,7
 1056.48498845 518.771362587 1056.48498845 518.771362587 1050.24249423 483.385681293 c 128,-1,8
 1044 448 1044 448 1043 420.5 c 128,-1,9
 1042 393 1042 393 1037 365 c 1,10,-1
 1037 358.5 l 1,11,-1
 1036 352 l 1,12,13
 1036 332 1036 332 1033.5 317 c 0,14,15
 1029.4 292.4 1029.4 292.4 1027.7 284.2 c 128,-1,16
 1026 276 1026 276 1025.5 271 c 128,-1,17
 1025 266 1025 266 1024 265 c 2,18,-1
 1019 235 l 1,19,20
 1014.09032258 178.538709677 1014.09032258 178.538709677 1030 156 c 1,21,22
 1052.05405405 185.837837838 1052.05405405 185.837837838 1094 254 c 1,23,-1
 1363 314 l 1,24,25
 1280.73267327 172.97029703 1280.73267327 172.97029703 1191 110 c 0,26,27
 1094.79642857 41.9535714286 1094.79642857 41.9535714286 952.5 9.5 c 0,28,29
 818.957142857 -20.9571428571 818.957142857 -20.9571428571 760.5 37.5 c 0,30,31
 730.342857143 67.6571428571 730.342857143 67.6571428571 732.171428571 97.8285714286 c 128,-1,32
 734 128 734 128 737 144.5 c 128,-1,33
 740 161 740 161 743.5 177.5 c 128,-1,34
 747 194 747 194 749 210 c 2,35,-1
 752 246 l 1,36,37
 686.993630573 161.732484076 686.993630573 161.732484076 630.496815287 122.366242038 c 0,38,39
 549.748297939 66.1017311623 549.748297939 66.1017311623 474 42 c 0,40,41
 468 40 468 40 458.5 36 c 128,-1,42
 449 32 449 32 441 29 c 128,-1,43
 433 26 433 26 428.5 24.5 c 128,-1,44
 424 23 424 23 428.5 25.5 c 128,-1,45
 433 28 433 28 436.5 30 c 128,-1,46
 440 32 440 32 444 34 c 1,47,48
 428 29 428 29 413 24 c 128,-1,49
 398 19 398 19 380 13.5 c 128,-1,50
 362 8 362 8 327.5 1.5 c 128,-1,51
 293 -5 293 -5 256 -5 c 0,52,53
 166.25 -5 166.25 -5 144.125 32 c 0,54,55
 114 82.3785310734 114 82.3785310734 114 112 c 1,56,57
 80.4935064935 204.142857143 80.4935064935 204.142857143 138 415 c 0,58,59
 238.994727592 774.793717047 238.994727592 774.793717047 524 945.5 c 0,60,61
 660.090377873 1027.01246591 660.090377873 1027.01246591 819.5 1049 c 0,62,63
 967.67302799 1069.43765903 967.67302799 1069.43765903 1071 1008 c 0,64,65
 1072 1008 1072 1008 1078.5 1003 c 128,-1,66
 1085 998 1085 998 1093.5 991.5 c 0,67,68
 1114.75 975.25 1114.75 975.25 1122 968 c 2,69,-1
 1143.5 946.5 l 2,70,71
 1152 938 1152 938 1157 930 c 1,72,-1
 1184 936 l 1,0,-1
438 131 m 1,73,74
 483.450381679 169.957470011 483.450381679 169.957470011 538.836301951 269.256512783 c 128,-1,75
 594.222222222 368.555555556 594.222222222 368.555555556 611.111111111 391.777777778 c 128,-1,76
 628 415 628 415 649.5 432.5 c 128,-1,77
 671 450 671 450 696.5 464.5 c 0,78,79
 729.92746114 483.507772021 729.92746114 483.507772021 802 514 c 1,80,81
 821.133333333 552.266666667 821.133333333 552.266666667 836.066666667 609.133333333 c 128,-1,82
 851 666 851 666 860 693.5 c 128,-1,83
 869 721 869 721 872.5 739 c 128,-1,84
 876 757 876 757 876 766.5 c 128,-1,85
 876 776 876 776 878 784.5 c 0,86,87
 883.714285714 808.785714286 883.714285714 808.785714286 881 821 c 1,88,89
 806.75 920 806.75 920 683 920 c 1,90,91
 506.572149344 781.798183653 506.572149344 781.798183653 425.5 527 c 0,92,93
 347.470588235 281.764705882 347.470588235 281.764705882 417 148.5 c 0,94,95
 423.631578947 135.789473684 423.631578947 135.789473684 438 131 c 1,73,74
1133 758 m 2,96,97
 1132.82842712 760.343145751 1132.82842712 760.343145751 1133 762 c 2,98,-1
 1133 758 l 2,96,97
EndSplineSet
EndChar

StartChar: Adieresis
Encoding: 98 98 70
Width: 1200
Flags: W
LayerCount: 2
Fore
SplineSet
449 1546 m 1,0,1
 567.789915966 1560.8487395 567.789915966 1560.8487395 620 1526.5 c 0,2,3
 639 1514 639 1514 657 1497 c 1,4,-1
 808 1509 l 1,5,-1
 706 1423 l 1,6,7
 699.975483871 1278.4116129 699.975483871 1278.4116129 624 1004.5 c 0,8,9
 584.795121951 863.156097561 584.795121951 863.156097561 577 793 c 1,10,11
 643.642574257 882.622772277 643.642574257 882.622772277 705.821287129 915.811386139 c 0,12,13
 835.431474272 984.992336579 835.431474272 984.992336579 879.715737136 995.99616829 c 0,14,15
 951.049970478 1013.72142435 951.049970478 1013.72142435 971.024985239 1017.86071218 c 128,-1,16
 991 1022 991 1022 1017.5 1027.5 c 128,-1,17
 1044 1033 1044 1033 1071.5 1035.5 c 0,18,19
 1225.62168142 1049.51106195 1225.62168142 1049.51106195 1250.5 894.5 c 0,20,21
 1266.9227968 792.173343044 1266.9227968 792.173343044 1212.5 570.5 c 0,22,23
 1142.85676995 286.831233685 1142.85676995 286.831233685 964 132 c 0,24,25
 864.354570637 47.5180055402 864.354570637 47.5180055402 710 -1.5 c 0,26,27
 502.218078638 -67.4847993514 502.218078638 -67.4847993514 371 -5 c 0,28,29
 329.888888889 14.5767195767 329.888888889 14.5767195767 314.444444444 41.7883597884 c 128,-1,30
 299 69 299 69 286 96 c 1,31,-1
 60 46 l 1,32,33
 67 57 67 57 71 69.5 c 128,-1,34
 75 82 75 82 84 101.5 c 0,35,36
 100.944134078 138.212290503 100.944134078 138.212290503 149 180 c 0,37,38
 151 181 151 181 158 186 c 128,-1,39
 165 191 165 191 174.5 196.5 c 0,40,41
 195.611111111 208.722222222 195.611111111 208.722222222 210 219 c 1,42,-1
 210 220 l 1,43,-1
 200 215 l 2,44,45
 195 213 195 213 200 216.5 c 128,-1,46
 205 220 205 220 211 225 c 1,47,48
 231.631578947 345.842105263 231.631578947 345.842105263 277 550 c 1,49,-1
 284 552 l 1,50,51
 274 572 274 572 290 684 c 2,52,-1
 294 712 l 2,53,54
 296 723 296 723 297 729.5 c 128,-1,55
 298 736 298 736 299 741 c 128,-1,56
 300 746 300 746 301.5 752 c 128,-1,57
 303 758 303 758 305 769 c 2,58,-1
 362 987 l 1,59,60
 405.62962963 1149.61952862 405.62962963 1149.61952862 413.814814815 1220.30976431 c 128,-1,61
 422 1291 422 1291 424 1340 c 1,62,63
 416 1349 416 1349 407 1360 c 128,-1,64
 398 1371 398 1371 388 1381.5 c 0,65,66
 348.575831306 1422.89537713 348.575831306 1422.89537713 309.287915653 1418.44768856 c 128,-1,67
 270 1414 270 1414 244 1414 c 1,68,-1
 428 1544 l 1,69,-1
 422 1544 l 2,70,71
 419 1544 419 1544 421.5 1544.5 c 128,-1,72
 424 1545 424 1545 429 1545 c 1,73,-1
 430 1546 l 1,74,-1
 449 1546 l 1,0,1
537 543 m 1,75,76
 504.268774704 391.932806324 504.268774704 391.932806324 491 302 c 1,77,-1
 492 302 l 1,78,79
 528.060606061 283.96969697 528.060606061 283.96969697 545.03030303 247.484848485 c 128,-1,80
 562 211 562 211 571 188.5 c 128,-1,81
 580 166 580 166 593.5 148 c 0,82,83
 614.548387097 119.935483871 614.548387097 119.935483871 671 103 c 256,84,85
 709.461538462 91.4615384615 709.461538462 91.4615384615 717.230769231 99.2307692308 c 128,-1,86
 725 107 725 107 736.5 116 c 128,-1,87
 748 125 748 125 768 147 c 0,88,89
 898.542168675 290.596385542 898.542168675 290.596385542 949 555.5 c 0,90,91
 974.330143541 688.483253589 974.330143541 688.483253589 973.16507177 743.241626794 c 128,-1,92
 972 798 972 798 961.5 828.5 c 0,93,94
 937.945522388 896.920149254 937.945522388 896.920149254 899 902 c 1,95,-1
 889 899 l 1,96,97
 852.183098592 865.864788732 852.183098592 865.864788732 809.591549296 793.932394366 c 128,-1,98
 767 722 767 722 744 687.5 c 128,-1,99
 721 653 721 653 691.5 632 c 0,100,101
 632.613899614 590.081081081 632.613899614 590.081081081 573 564 c 1,102,103
 556 552 556 552 537 543 c 1,75,76
918 1003 m 1,104,105
 929.322580645 1009.29032258 929.322580645 1009.29032258 943 1011 c 1,106,107
 925 1005 925 1005 918 1003 c 1,104,105
847 974 m 1,108,-1
 848 974 l 1,109,-1
 847 974 l 1,108,-1
EndSplineSet
EndChar

StartChar: Aring
Encoding: 99 99 71
Width: 934
Flags: W
LayerCount: 2
Fore
SplineSet
1052 341 m 1,0,1
 900.522340426 49.6968085106 900.522340426 49.6968085106 537 -16 c 0,2,3
 477 -27 477 -27 421.5 -27 c 128,-1,4
 366 -27 366 -27 319.5 -9.5 c 0,5,6
 217.075869336 29.0467158412 217.075869336 29.0467158412 184 154 c 0,7,8
 146.740740741 284.407407407 146.740740741 284.407407407 167.5 403.5 c 0,9,10
 204.470391061 615.593296089 204.470391061 615.593296089 323 788 c 0,11,12
 400.702630406 900.464333482 400.702630406 900.464333482 540 977.5 c 0,13,14
 701.055855856 1066.56876877 701.055855856 1066.56876877 870.5 1058.5 c 0,15,16
 977.613785558 1053.39934354 977.613785558 1053.39934354 1048.5 950.5 c 0,17,18
 1064 928 1064 928 1073 906 c 1,19,-1
 795 797 l 1,20,21
 768.071975498 867.686064319 768.071975498 867.686064319 704.5 908 c 0,22,23
 684 921 684 921 663 925 c 1,24,25
 551.760313672 828.792703716 551.760313672 828.792703716 488.5 645.5 c 0,26,27
 403.311554333 398.671939477 403.311554333 398.671939477 477.5 218.5 c 0,28,29
 502.995689655 156.581896552 502.995689655 156.581896552 530.997844828 136.790948276 c 0,30,31
 586.575277584 97.5107539405 586.575277584 97.5107539405 639 105 c 1,32,33
 654 115 654 115 660 119.5 c 128,-1,34
 666 124 666 124 671.5 128 c 128,-1,35
 677 132 677 132 680 135 c 0,36,37
 737 194 737 194 772 262 c 1,38,-1
 1052 341 l 1,0,1
EndSplineSet
EndChar

StartChar: Ccedilla
Encoding: 100 100 72
Width: 1247
Flags: W
LayerCount: 2
Fore
SplineSet
1000 1028 m 1,0,1
 1039 1208.375 1039 1208.375 1040.52830189 1245.16863208 c 128,-1,2
 1042.05660377 1281.96226415 1042.05660377 1281.96226415 1045 1293 c 1,3,4
 1024 1315 1024 1315 1003.5 1337.5 c 128,-1,5
 983 1360 983 1360 954 1372 c 1,6,7
 896 1369.1 896 1369.1 875 1367 c 1,8,-1
 1023 1496 l 1,9,10
 1098 1505 1098 1505 1129 1505 c 0,11,12
 1213 1505 1213 1505 1253 1473 c 1,13,-1
 1475 1508 l 1,14,15
 1458 1493 1458 1493 1440 1478.5 c 128,-1,16
 1422 1464 1422 1464 1407.5 1451 c 128,-1,17
 1393 1438 1393 1438 1380 1424.5 c 128,-1,18
 1367 1411 1367 1411 1353 1402 c 2,19,-1
 1332 1390 l 1,20,-1
 1323 1373 l 1,21,-1
 1322 1360 l 2,22,23
 1322 1352 1322 1352 1322.5 1343 c 0,24,25
 1323.125 1331.75 1323.125 1331.75 1321.0625 1307.375 c 0,26,27
 1318.73129771 1279.82442748 1318.73129771 1279.82442748 1299.86564885 1196.91221374 c 128,-1,28
 1281 1114 1281 1114 1268 1052.5 c 128,-1,29
 1255 991 1255 991 1244 952 c 128,-1,30
 1233 913 1233 913 1225.5 899 c 128,-1,31
 1218 885 1218 885 1211.5 854 c 128,-1,32
 1205 823 1205 823 1197 777.5 c 128,-1,33
 1189 732 1189 732 1180 687.5 c 0,34,35
 1159.06495264 583.98782138 1159.06495264 583.98782138 1131 513 c 1,36,37
 1131 481 1131 481 1128 448 c 2,38,-1
 1122 392 l 1,39,-1
 1102 244 l 2,40,41
 1100 229 1100 229 1097 214.5 c 128,-1,42
 1094 200 1094 200 1093 185.5 c 0,43,44
 1090.69039146 152.010676157 1090.69039146 152.010676157 1106 135 c 1,45,46
 1137 176 1137 176 1158 222 c 1,47,-1
 1438 301 l 1,48,49
 1303.37724551 18.9332763045 1303.37724551 18.9332763045 968 -17 c 0,50,51
 857.417721519 -28.8481012658 857.417721519 -28.8481012658 825 31 c 0,52,53
 804.24 67.9066666667 804.24 67.9066666667 811.12 103.453333333 c 128,-1,54
 818 139 818 139 820 156 c 2,55,-1
 830 230 l 1,56,57
 759.47311828 130.739944245 759.47311828 130.739944245 689.23655914 92.3699721227 c 128,-1,58
 619 54 619 54 585 39.5 c 0,59,60
 497.068965517 2 497.068965517 2 485.034482759 2 c 128,-1,61
 473 2 473 2 472 1 c 1,62,-1
 471 1 l 1,63,64
 351.217877095 -33.2234636872 351.217877095 -33.2234636872 299.108938547 -27.6117318436 c 128,-1,65
 247 -22 247 -22 219 -8 c 0,66,67
 180.837288136 12.5491525424 180.837288136 12.5491525424 162.918644068 75.2745762712 c 128,-1,68
 145 138 145 138 144.5 185 c 128,-1,69
 144 232 144 232 150.5 279.5 c 0,70,71
 175.160729553 459.713023653 175.160729553 459.713023653 279.5 641.5 c 0,72,73
 465.272656855 965.165762974 465.272656855 965.165762974 835.5 1030.5 c 0,74,75
 895 1041 895 1041 931.5 1036.5 c 128,-1,76
 968 1032 968 1032 978.5 1031 c 128,-1,77
 989 1030 989 1030 1000 1028 c 1,0,1
881 523 m 1,78,79
 908.401028278 617.658097686 908.401028278 617.658097686 918.200514139 694.829048843 c 128,-1,80
 928 772 928 772 938 801 c 1,81,82
 924 816 924 816 911 831.5 c 0,83,84
 882.111111111 865.944444444 882.111111111 865.944444444 869.555555556 872.472222222 c 128,-1,85
 857 879 857 879 849 882.5 c 0,86,87
 803.666666667 902.333333333 803.666666667 902.333333333 867 877 c 0,88,89
 869 875 869 875 863 878 c 1,90,-1
 856 880 l 1,91,92
 837 883.8 837 883.8 832.5 884.4 c 128,-1,93
 828 885 828 885 811.5 888.5 c 128,-1,94
 795 892 795 892 770 899 c 128,-1,95
 745 906 745 906 719 903 c 1,96,97
 665 869 665 869 625 815 c 128,-1,98
 585 761 585 761 545 691.5 c 0,99,100
 414.533805223 464.814986576 414.533805223 464.814986576 429 243 c 0,101,102
 433.140659341 179.50989011 433.140659341 179.50989011 465.5 129.5 c 0,103,104
 475.583333333 113.916666667 475.583333333 113.916666667 485.791666667 112.458333333 c 128,-1,105
 496 111 496 111 507 108 c 1,106,107
 549.558139535 142.578488372 549.558139535 142.578488372 577.779069767 190.789244186 c 128,-1,108
 606 239 606 239 614 252 c 128,-1,109
 622 265 622 265 630 280.5 c 0,110,111
 640.461538462 300.769230769 640.461538462 300.769230769 643.230769231 305.884615385 c 128,-1,112
 646 311 646 311 650.5 320 c 0,113,114
 658 335 658 335 663.5 346.5 c 0,115,116
 685.409836066 392.31147541 685.409836066 392.31147541 698.704918033 408.155737705 c 128,-1,117
 712 424 712 424 733.5 441 c 128,-1,118
 755 458 755 458 780 473.5 c 0,119,120
 827.448979592 502.918367347 827.448979592 502.918367347 881 523 c 1,78,79
1274 1355.5 m 2,121,-1
 1295 1368 l 2,122,123
 1286 1363 1286 1363 1280.5 1359.5 c 128,-1,124
 1275 1356 1275 1356 1274 1355.5 c 2,121,-1
1320 1355 m 1,125,-1
 1319.5 1355 l 1,126,127
 1319 1353 1319 1353 1320 1355 c 1,125,-1
EndSplineSet
EndChar

StartChar: Eacute
Encoding: 101 101 73
Width: 953
Flags: W
LayerCount: 2
Fore
SplineSet
143 394 m 128,-1,1
 141 408 141 408 141 421 c 0,2,3
 141 444.7 141 444.7 164 470 c 1,4,5
 249.199480565 911.848468976 249.199480565 911.848468976 679 1040 c 0,6,7
 840.142384106 1088.34271523 840.142384106 1088.34271523 941 1040.5 c 0,8,9
 980 1022 980 1022 1009.5 975.5 c 128,-1,10
 1039 929 1039 929 1046.5 880 c 128,-1,11
 1054 831 1054 831 1042.5 785.5 c 128,-1,12
 1031 740 1031 740 1003.5 698.5 c 128,-1,13
 976 657 976 657 939 621 c 0,14,15
 801.844079719 487.550996483 801.844079719 487.550996483 571 415 c 1,16,-1
 499 394 l 2,17,18
 488 391 488 391 478.5 388 c 128,-1,19
 469 385 469 385 458 383 c 2,20,-1
 424 374 l 1,21,22
 431.84603258 177.849185497 431.84603258 177.849185497 532 117.5 c 0,23,24
 571 94 571 94 630 99 c 1,25,26
 674.730586371 122.259904913 674.730586371 122.259904913 705.865293185 159.129952456 c 0,27,28
 750.077922078 211.487012987 750.077922078 211.487012987 788 266 c 1,29,-1
 1057 326 l 1,30,31
 827.140280561 4.19639278557 827.140280561 4.19639278557 459.5 -34 c 0,32,33
 273.721801057 -53.301631059 273.721801057 -53.301631059 202 58.5 c 0,34,35
 135.633451957 161.953736655 135.633451957 161.953736655 140 299.5 c 0,36,37
 141 331 141 331 143 355.5 c 128,-1,0
 145 380 145 380 143 394 c 128,-1,1
447 566 m 1,38,39
 472.103448276 551.655172414 472.103448276 551.655172414 514 493 c 1,40,-1
 544 502 l 2,41,42
 542 502 542 502 544.5 502.5 c 128,-1,43
 547 503 547 503 552 504.5 c 128,-1,44
 557 506 557 506 562.5 507.5 c 0,45,46
 591.434782609 515.391304348 591.434782609 515.391304348 607.717391304 524.695652174 c 128,-1,47
 624 534 624 534 628.5 536 c 128,-1,48
 633 538 633 538 637 541 c 128,-1,49
 641 544 641 544 653.5 552.5 c 0,50,51
 713.723253758 593.451812555 713.723253758 593.451812555 751 671.5 c 0,52,53
 777.826706677 727.668417104 777.826706677 727.668417104 770.913353338 754.334208552 c 128,-1,54
 764 781 764 781 759.5 798.5 c 128,-1,55
 755 816 755 816 745.5 839 c 128,-1,56
 736 862 736 862 722 881 c 0,57,58
 689.719745223 924.808917197 689.719745223 924.808917197 643 930 c 1,59,60
 496.484083425 818.368825467 496.484083425 818.368825467 447 566 c 1,38,39
594 514 m 1,61,-1
 593 513.5 l 1,62,-1
 594 514 l 1,61,-1
525 488 m 1,63,64
 530 486 530 486 533.5 486 c 0,65,66
 541 486 541 486 525 488 c 1,63,64
469 386 m 1,67,-1
 468.5 385.5 l 1,68,-1
 469 386 l 1,67,-1
660 548 m 1,69,70
 666 551 666 551 663 550 c 128,-1,71
 660 549 660 549 660 548 c 1,69,70
EndSplineSet
EndChar

StartChar: Ntilde
Encoding: 102 102 74
Width: 713
Flags: W
LayerCount: 2
Fore
SplineSet
319 925 m 1,0,-1
 287 935 l 1,1,2
 267 934 267 934 247.5 931.5 c 128,-1,3
 228 929 228 929 208 929 c 1,4,-1
 394 1061 l 1,5,6
 404.444444444 1063.61111111 404.444444444 1063.61111111 419.722222222 1064.30555556 c 128,-1,7
 435 1065 435 1065 453 1066 c 1,8,9
 464.5 1158 464.5 1158 556.5 1342 c 0,10,11
 589.777777778 1408.55555556 589.777777778 1408.55555556 617.388888889 1441.27777778 c 128,-1,12
 645 1474 645 1474 692.5 1505.5 c 128,-1,13
 740 1537 740 1537 795 1558.5 c 0,14,15
 1037.41197924 1653.26104643 1037.41197924 1653.26104643 1176.5 1498 c 0,16,17
 1198 1474 1198 1474 1217 1448 c 1,18,-1
 939 1339 l 1,19,20
 896.872340426 1400.08510638 896.872340426 1400.08510638 843 1436 c 1,21,22
 815.435897436 1382.70940171 815.435897436 1382.70940171 801.717948718 1345.35470085 c 128,-1,23
 788 1308 788 1308 778 1286.5 c 128,-1,24
 768 1265 768 1265 759.5 1246 c 128,-1,25
 751 1227 751 1227 745 1207.5 c 0,26,27
 730.631205674 1160.80141844 730.631205674 1160.80141844 735.315602837 1141.90070922 c 0,28,29
 741.977051634 1115.02294837 741.977051634 1115.02294837 758.988525817 1098.51147418 c 128,-1,30
 776 1082 776 1082 782.5 1076.5 c 128,-1,31
 789 1071 789 1071 793.5 1067 c 0,32,33
 802.5 1059 802.5 1059 808 1059 c 2,34,-1
 815 1059 l 1,35,36
 820 1060 820 1060 824 1060 c 2,37,-1
 833 1060 l 1,38,39
 872.686440678 1071.33898305 872.686440678 1071.33898305 930.843220339 1066.16949153 c 128,-1,40
 989 1061 989 1061 1011 1061 c 1,41,-1
 825 929 l 1,42,-1
 666 929 l 1,43,44
 632.955643707 686.195816805 632.955643707 686.195816805 573.477821854 433.097908402 c 128,-1,45
 514 180 514 180 497.5 96.5 c 128,-1,46
 481 13 481 13 462.5 -50.5 c 0,47,48
 412.586206897 -221.825722274 412.586206897 -221.825722274 379.293103448 -283.912861137 c 128,-1,49
 346 -346 346 -346 321.5 -375 c 0,50,51
 267.273915627 -439.185977421 267.273915627 -439.185977421 194 -463 c 0,52,53
 174 -470 174 -470 160.5 -475.5 c 128,-1,54
 147 -481 147 -481 135 -485 c 0,55,56
 104.727272727 -495.090909091 104.727272727 -495.090909091 78.3636363636 -499.045454545 c 128,-1,57
 52 -503 52 -503 43.5 -504.5 c 128,-1,58
 35 -506 35 -506 32.5 -506 c 2,59,-1
 22 -506 l 1,60,-1
 -4 -509 l 1,61,-1
 -25 -509 l 1,62,63
 -136.550458716 -507.229357798 -136.550458716 -507.229357798 -216 -396 c 1,64,-1
 62 -287 l 1,65,66
 84 -315 84 -315 109 -340 c 1,67,68
 111 -335 111 -335 113 -329.5 c 128,-1,69
 115 -324 115 -324 130.5 -284 c 0,70,71
 179.695652174 -157.043478261 179.695652174 -157.043478261 206.847826087 -33.0217391304 c 128,-1,72
 234 91 234 91 259.5 199.5 c 128,-1,73
 285 308 285 308 308.5 417 c 0,74,75
 359.881355932 655.322033898 359.881355932 655.322033898 387 856 c 1,76,77
 372 872 372 872 358 888.5 c 0,78,79
 341.083333333 908.4375 341.083333333 908.4375 319 925 c 1,0,-1
EndSplineSet
EndChar

StartChar: Odieresis
Encoding: 103 103 75
Width: 1069
Flags: W
LayerCount: 2
Fore
SplineSet
1394 1034 m 1,0,1
 1370 1014 1370 1014 1347.5 992 c 128,-1,2
 1325 970 1325 970 1292.5 950 c 128,-1,3
 1260 930 1260 930 1218.5 913.5 c 128,-1,4
 1177 897 1177 897 1153.5 887.5 c 128,-1,5
 1130 878 1130 878 1124.5 877.5 c 128,-1,6
 1119 877 1119 877 1114 875 c 1,7,8
 1115 827 1115 827 1116 781 c 128,-1,9
 1117 735 1117 735 1098 667.5 c 128,-1,10
 1079 600 1079 600 1018.5 534 c 128,-1,11
 958 468 958 468 878.5 423.5 c 0,12,13
 718.941803943 334.187550635 718.941803943 334.187550635 533 332 c 1,14,-1
 495 260 l 2,15,16
 493 256 493 256 488.5 248 c 128,-1,17
 484 240 484 240 486 234 c 0,18,19
 496.992125984 201.023622047 496.992125984 201.023622047 530.496062992 193.011811024 c 128,-1,20
 564 185 564 185 575.5 177 c 0,21,22
 600.033333333 159.933333333 600.033333333 159.933333333 604 152 c 1,23,-1
 604 151 l 1,24,25
 624.753623188 141.920289855 624.753623188 141.920289855 645.876811594 140.960144928 c 128,-1,26
 667 140 667 140 695.5 138 c 128,-1,27
 724 136 724 136 772 126.5 c 128,-1,28
 820 117 820 117 865 99 c 0,29,30
 1007.4137931 42.0344827586 1007.4137931 42.0344827586 1053.5 -65.5 c 0,31,32
 1070.30927835 -104.721649485 1070.30927835 -104.721649485 1065.15463918 -134.360824742 c 0,33,34
 1056.72727273 -182.818181818 1056.72727273 -182.818181818 1054 -191 c 1,35,-1
 1054 -192 l 1,36,37
 1049.5 -208.5 1049.5 -208.5 1046.25 -224.75 c 128,-1,38
 1043 -241 1043 -241 1035.5 -266 c 0,39,40
 998.83061049 -388.231298366 998.83061049 -388.231298366 833.5 -471.5 c 0,41,42
 632.30244069 -572.833077317 632.30244069 -572.833077317 391 -553 c 0,43,44
 154.768272875 -532.001624256 154.768272875 -532.001624256 77 -380 c 0,45,46
 20.4253731343 -266.850746269 20.4253731343 -266.850746269 102.5 -149 c 0,47,48
 159.249649369 -67.5133239832 159.249649369 -67.5133239832 268 -16 c 1,49,50
 293.75 22.625 293.75 22.625 320 47 c 1,51,52
 303.5 60.75 303.5 60.75 289.75 66.375 c 128,-1,53
 276 72 276 72 262 78 c 128,-1,54
 248 84 248 84 236 92 c 0,55,56
 210.255813953 109.162790698 210.255813953 109.162790698 205.627906977 131.581395349 c 128,-1,57
 201 154 201 154 209 169.5 c 2,58,-1
 264 273 l 1,59,60
 306 346.5 306 346.5 332 379 c 1,61,62
 305.168224299 410.710280374 305.168224299 410.710280374 265 514 c 1,63,-1
 254 544 l 1,64,65
 240 588.8 240 588.8 240 624.4 c 0,66,67
 240 694.178571429 240 694.178571429 315 804 c 0,68,69
 421.868035191 964.302052786 421.868035191 964.302052786 657.5 1024.5 c 0,70,71
 823.59424307 1066.93283582 823.59424307 1066.93283582 937.5 1036.5 c 0,72,73
 1003 1019 1003 1019 1057 959 c 1,74,75
 1110.64215686 986.68627451 1110.64215686 986.68627451 1114.82107843 983.343137255 c 128,-1,76
 1119 980 1119 980 1116.5 976.5 c 128,-1,77
 1114 973 1114 973 1116 974 c 0,78,79
 1118.4 975.2 1118.4 975.2 1166 1016 c 1,80,-1
 1394 1034 l 1,0,1
506 2 m 1,81,82
 451 -42 451 -42 470 -23 c 1,83,84
 445.566037736 -40.4528301887 445.566037736 -40.4528301887 397 -61 c 1,85,-1
 379 -82 l 1,86,87
 301.616835994 -187.522496372 301.616835994 -187.522496372 368 -295 c 0,88,89
 438.8701973 -406.900311526 438.8701973 -406.900311526 610 -422 c 0,90,91
 632 -423 632 -423 658.5 -424.5 c 128,-1,92
 685 -426 685 -426 697.5 -423 c 128,-1,93
 710 -420 710 -420 711 -420 c 0,94,95
 719 -412 719 -412 725 -403.5 c 128,-1,96
 731 -395 731 -395 739 -386 c 0,97,98
 784.828571429 -294.342857143 784.828571429 -294.342857143 779 -204 c 0,99,100
 774.863586359 -139.885588559 774.863586359 -139.885588559 700.673995014 -77.6620603345 c 128,-1,101
 626.48440367 -15.4385321101 626.48440367 -15.4385321101 506 2 c 1,81,82
736 464 m 1,102,103
 808.888888889 540.444444444 808.888888889 540.444444444 824.5 618.5 c 0,104,105
 832 656 832 656 831.5 698 c 128,-1,106
 831 740 831 740 831 793 c 1,107,108
 811 813 811 813 792.5 834.5 c 128,-1,109
 774 856 774 856 759 870 c 0,110,111
 737.076923077 890.461538462 737.076923077 890.461538462 708 905 c 1,112,113
 652 917 652 917 631 917 c 1,114,115
 576.739130435 873.173913043 576.739130435 873.173913043 553.369565217 817.086956522 c 0,116,117
 511.111111111 715.666666667 511.111111111 715.666666667 532 653 c 0,118,119
 574.115830116 519.633204633 574.115830116 519.633204633 614.5 483.5 c 0,120,121
 631.373134328 468.402985075 631.373134328 468.402985075 646.686567164 466.701492537 c 0,122,123
 671 464 671 464 688.16822178 462.296469087 c 128,-1,124
 705.336443559 460.592938173 705.336443559 460.592938173 736 464 c 1,102,103
336 11 m 2,125,-1
 331.5 9 l 2,126,127
 335 10 335 10 336 11 c 2,125,-1
657 465 m 2,128,-1
 648.5 466 l 2,129,130
 654 465 654 465 657 465 c 2,128,-1
702 907 m 2,131,-1
 701 908 l 2,132,133
 700 908 700 908 702 907 c 2,131,-1
599 437 m 2,134,-1
 601 439.5 l 2,135,136
 600 439 600 439 599 437 c 2,134,-1
237 221 m 2,137,-1
 237.5 222 l 2,138,139
 237 222 237 222 237 221 c 2,137,-1
599 155 m 1,140,141
 598 155 598 155 599 154 c 1,142,-1
 599 155 l 1,140,141
EndSplineSet
EndChar

